<svg xmlns="http://www.w3.org/2000/svg" xmlns:xlink="http://www.w3.org/1999/xlink" width="52" height="52" version="1.1" viewBox="0 0 52 52"><title>apply-to-a-job-ive-already-found</title><defs><polygon id="path-1" points=".416 .612 37.123 .612 37.123 37.321 .416 37.321"/><polygon id="path-3" points="0 .882 44.303 .882 44.303 45.381 0 45.381"/></defs><g id="Symbols" fill="none" fill-rule="evenodd" stroke="none" stroke-width="1"><g id="What-would-you-like-to-do-next?" transform="translate(-30.000000, -107.000000)"><g id="Group-2" transform="translate(30.000000, 107.000000)"><g id="apply-to-a-job-ive-already-found"><g id="Group-3" transform="translate(14.181818, 0.333556)"><mask id="mask-2" fill="#fff"><use xlink:href="#path-1"/></mask><path id="Fill-1" fill="#0071BC" d="M6.18592,36.6600945 L0.415810909,37.3209673 L1.07762909,31.5518036 L6.18592,36.6600945 Z M36.2249018,10.7527491 L33.2741382,13.7054036 L24.0332655,4.46264 L26.98592,1.50998545 C27.5825018,0.910567273 28.3095564,0.611803636 29.1661382,0.611803636 C30.02272,0.611803636 30.7497745,0.910567273 31.3491927,1.50998545 L36.2249018,6.38569455 C36.8233745,6.98511273 37.1240291,7.71500364 37.1240291,8.57158545 C37.1240291,9.42249455 36.8233745,10.1533309 36.2249018,10.7527491 Z M2.33319273,26.1627127 L21.9787927,6.51711273 L31.2206109,15.7598764 L11.5740655,35.4054764 L2.33319273,26.1627127 Z" mask="url(#mask-2)"/></g><g id="Group-6" transform="translate(0.000000, 6.006284)"><mask id="mask-4" fill="#fff"><use xlink:href="#path-3"/></mask><path id="Fill-4" fill="#FDB81E" d="M28.6053891,3.70580364 L25.6924436,6.59416727 C24.9634982,7.31649455 23.9783345,7.72209455 22.9525164,7.72209455 L10.44888,7.72209455 C8.45586182,7.72209455 6.84102545,9.33787636 6.84102545,11.3299491 L6.84102545,34.9322764 C6.84102545,36.9252945 8.45586182,38.5410764 10.44888,38.5410764 L33.8507709,38.5410764 C35.8437891,38.5410764 37.4605164,36.9243491 37.4605164,34.9303855 L37.4605164,24.7100218 C37.4605164,23.3514036 37.9946982,22.0476218 38.9467709,21.0804218 L41.3595709,18.6307491 C41.3595709,18.6307491 44.3027709,15.8832582 44.3027709,19.9553309 L44.3027709,34.9322764 C44.3027709,40.7033309 39.6237164,45.38144 33.8526618,45.38144 L10.44888,45.38144 C4.67782545,45.38144 -0.000283636364,40.7033309 -0.000283636364,34.9322764 L-0.000283636364,11.3299491 C-0.000283636364,5.55889455 4.67782545,0.881730909 10.44888,0.881730909 L27.1418255,0.881730909 C31.3490982,0.881730909 28.6053891,3.70580364 28.6053891,3.70580364" mask="url(#mask-4)"/></g></g></g></g></g></svg>