<svg xmlns="http://www.w3.org/2000/svg" xmlns:xlink="http://www.w3.org/1999/xlink" width="52" height="52" version="1.1" viewBox="0 0 52 52"><title>jtbd-find-a-job</title><defs><polygon id="find-a-job-path-1" points="0 .587 51.404 .587 51.404 51.019 0 51.019"/></defs><g id="jtbd-find-a-job" fill="none" fill-rule="evenodd" stroke="none" stroke-width="1"><g id="find-a-job"><g id="find-a-job-2" transform="translate(0.000000, 0.394317)"><mask id="mask-2" fill="#fff"><use xlink:href="#find-a-job-path-1"/></mask><path id="find-a-job-Fill-1" fill="#0071BC" d="M31.5234,31.5178868 C34.2334,28.8619623 35.5864,25.6615094 35.5864,21.9273208 C35.5864,18.1872453 34.2334,14.9867925 31.5234,12.3298868 C28.8154,9.67396226 25.5564,8.34845283 21.7484,8.34845283 C17.9364,8.34845283 14.6774,9.67396226 11.9694,12.3298868 C9.2624,14.9867925 7.9084,18.1872453 7.9084,21.9273208 C7.9084,25.6615094 9.2624,28.8619623 11.9694,31.5178868 C14.6774,34.1738113 17.9364,35.5042264 21.7484,35.5042264 C25.5564,35.5042264 28.8154,34.1738113 31.5234,31.5178868 M51.4044,47.1424151 C51.4044,48.1902642 51.0124,49.1007547 50.2284,49.8699623 C49.4464,50.6381887 48.5184,51.0188679 47.4484,51.0188679 C46.3364,51.0188679 45.4104,50.6381887 44.6694,49.8699623 L34.0734,39.505283 C30.3864,42.0101132 26.2774,43.2620377 21.7484,43.2620377 C18.8014,43.2620377 15.9854,42.6998491 13.2984,41.577434 C10.6114,40.4589434 8.2934,38.9430943 6.3474,37.0338113 C4.4014,35.1245283 2.8584,32.8522264 1.7144,30.2139623 C0.5724,27.574717 0.0004,24.8128302 0.0004,21.9273208 C0.0004,19.0359245 0.5724,16.2730566 1.7144,13.6338113 C2.8584,11.0004528 4.4014,8.72422642 6.3474,6.81396226 C8.2934,4.90467925 10.6114,3.38883019 13.2984,2.27033962 C15.9854,1.14792453 18.8014,0.586716981 21.7484,0.586716981 C24.6914,0.586716981 27.5094,1.14792453 30.1964,2.27033962 C32.8844,3.38883019 35.1994,4.90467925 37.1464,6.81396226 C39.0914,8.72422642 40.6374,11.0004528 41.7814,13.6338113 C42.9234,16.2730566 43.4954,19.0359245 43.4954,21.9273208 C43.4954,26.3689057 42.2184,30.3993962 39.6644,34.0197736 L50.2594,44.4158491 C51.0214,45.1624906 51.4044,46.0680755 51.4044,47.1424151" mask="url(#mask-2)"/></g><path id="find-a-job-Fill-4" fill="#FDB81E" d="M32.978,18.7981962 C32.978,18.9924604 32.861,19.2024226 32.628,19.4320075 L27.749,24.1012151 L28.904,30.6954038 C28.913,30.756234 28.918,30.845517 28.918,30.9593283 C28.918,31.1437811 28.871,31.2988 28.777,31.4283094 C28.683,31.5548755 28.545,31.6186491 28.367,31.6186491 C28.197,31.6186491 28.017,31.5666491 27.829,31.4606868 L21.792,28.3485358 L15.757,31.4606868 C15.559,31.5666491 15.381,31.6186491 15.219,31.6186491 C15.031,31.6186491 14.89,31.5548755 14.795,31.4283094 C14.702,31.2988 14.654,31.1437811 14.654,30.9593283 C14.654,30.9073283 14.663,30.8180453 14.681,30.6954038 L15.837,24.1012151 L10.944,19.4320075 C10.72,19.1945736 10.608,18.9826491 10.608,18.7981962 C10.608,18.4734415 10.859,18.2713283 11.361,18.1928377 L18.11,17.2283849 L21.134,11.2277811 C21.304,10.8677057 21.524,10.6871774 21.792,10.6871774 C22.062,10.6871774 22.281,10.8677057 22.451,11.2277811 L25.477,17.2283849 L32.225,18.1928377 C32.726,18.2713283 32.978,18.4734415 32.978,18.7981962"/></g></g></svg>