<svg xmlns="http://www.w3.org/2000/svg" xmlns:xlink="http://www.w3.org/1999/xlink" width="42" height="52" version="1.1" viewBox="0 0 42 52"><title>learn-a-new-skill</title><defs><polygon id="path-1" points="0 .757 41.854 .757 41.854 51.235 0 51.235"/></defs><g id="Symbols" fill="none" fill-rule="evenodd" stroke="none" stroke-width="1"><g id="What-would-you-like-to-do-next?" transform="translate(-30.000000, -301.000000)"><g id="Group-5" transform="translate(30.000000, 301.000000)"><g id="learn-a-new-skill"><g id="Group-3" transform="translate(0.000000, 0.007876)"><mask id="mask-2" fill="#fff"><use xlink:href="#path-1"/></mask><path id="Fill-1" fill="#0071BC" d="M17.9065824,51.2356765 L17.9065824,46.0685588 L11.3920529,46.0685588 L8.53128824,46.0685588 C6.15993529,46.0685588 4.2367,44.1460882 4.2367,41.7739706 L4.2367,38.8963824 L4.2367,33.4172647 L1.21228824,32.6403235 C0.215111765,32.3841471 -0.289594118,31.2715 0.173817647,30.3515588 L4.3147,22.1409118 L4.3147,19.5715 C4.3147,9.18067647 12.7172882,0.756676471 23.0844059,0.756676471 C33.4507588,0.756676471 41.8541118,9.18067647 41.8541118,19.8934412 C41.8541118,22.8115588 41.2607,25.2593824 40.3789941,27.5374412 C37.5564647,34.8289118 37.9028765,37.0763824 37.9028765,42.9653824 L37.9028765,51.2356765" mask="url(#mask-2)"/></g><path id="Fill-4" fill="#FFF" d="M9.93467647,19.4208529 C9.93467647,12.1133235 15.8580882,6.18991176 23.1656176,6.18991176 C30.4723824,6.18991176 36.3965588,12.1133235 36.3965588,19.4208529 C36.3965588,26.7276176 30.4723824,32.6510294 23.1656176,32.6510294 C15.8580882,32.6510294 9.93467647,26.7276176 9.93467647,19.4208529"/><path id="Fill-6" fill="#FDB81E" d="M27.6027471,15.3441294 C27.7243353,15.4794824 27.7472765,15.6286 27.6738647,15.7899529 L22.1901588,27.5388941 C22.1014529,27.7078941 21.9592176,27.7920118 21.7634529,27.7920118 C21.7359235,27.7920118 21.6885118,27.7866588 21.6219824,27.7728941 C21.5057471,27.7384824 21.4201,27.6734824 21.3627471,27.5786588 C21.3053941,27.4838353 21.2901,27.3836588 21.3161,27.2758353 L23.3173353,19.0697765 L19.1948059,20.0960118 C19.1680412,20.1021294 19.1267471,20.1067176 19.0732176,20.1067176 C18.9508647,20.1067176 18.8453353,20.0700118 18.7581588,19.9943059 C18.6358059,19.8933647 18.5922176,19.7595412 18.6258647,19.5981882 L20.6668647,11.2216 C20.6936294,11.1267765 20.7479235,11.0487765 20.8297471,10.9876 C20.9108059,10.9271882 21.0056294,10.8958353 21.1142176,10.8958353 L24.4437471,10.8958353 C24.5729824,10.8958353 24.6815706,10.9386588 24.7687471,11.0235412 C24.8574529,11.1076588 24.9018059,11.2070706 24.9018059,11.3225412 C24.9018059,11.3776 24.8834529,11.4380118 24.8498059,11.5053059 L23.1146882,16.2059529 L27.1347471,15.2110706 C27.1898059,15.1980706 27.2295706,15.1919529 27.2563353,15.1919529 C27.3855706,15.1919529 27.5002765,15.2416588 27.6027471,15.3441294"/></g></g></g></g></svg>