<svg xmlns="http://www.w3.org/2000/svg" xmlns:xlink="http://www.w3.org/1999/xlink" width="56" height="52" version="1.1" viewBox="0 0 56 52"><title>learn-more-about-working-in-the-government</title><g id="Symbols" fill="none" fill-rule="evenodd" stroke="none" stroke-width="1"><g id="What-would-you-like-to-do-next?" fill="#0071BC" transform="translate(-30.000000, -398.000000)"><g id="Group-5-Copy" transform="translate(30.000000, 398.000000)"><path id="learn-more-about-working-in-the-government" d="M7.46689013,18.5712698 L14.9337803,18.5712698 L14.9337803,40.8574605 L18.6666667,40.8574605 L18.6666667,18.5712698 L26.1335568,18.5712698 L26.1335568,40.8574605 L29.8664432,40.8574605 L29.8664432,18.5712698 L37.3333333,18.5712698 L37.3333333,40.8574605 L41.067337,40.8574605 L41.067337,18.5712698 L48.5342272,18.5712698 L48.5342272,40.8574605 L50.2548632,40.8574605 C50.7978692,40.8574605 51.2704854,41.0419838 51.6704774,41.4088072 C52.0671176,41.774519 52.2682309,42.2102608 52.2682309,42.7149209 L52.2682309,44.5723814 L3.73288641,44.5723814 L3.73288641,42.7149209 C3.73288641,42.2102608 3.93176513,41.774519 4.33063985,41.4088072 C4.72839728,41.0419838 5.20101355,40.8574605 5.74513677,40.8574605 L7.46689013,40.8574605 L7.46689013,18.5712698 Z M53.9888669,46.4287302 C54.5318729,46.4287302 55.0033718,46.6143651 55.4022466,46.980077 C55.800004,47.3469004 56,47.7815306 56,48.2850791 L56,52 L0,52 L0,48.2850791 C0,47.7815306 0.198878714,47.3469004 0.597753437,46.980077 C0.995510864,46.6143651 1.46700984,46.4287302 2.01225035,46.4287302 L53.9888669,46.4287302 Z M28.0005586,1.13686838e-13 L56,11.1425395 L56,14.8563489 L52.2682309,14.8563489 C52.2682309,15.361009 52.0671176,15.7967507 51.6704774,16.1624626 C51.2704854,16.529286 50.7978692,16.7138093 50.2548632,16.7138093 L5.74513677,16.7138093 C5.20101355,16.7138093 4.72839728,16.529286 4.33063985,16.1624626 C3.93176513,15.7967507 3.73288641,15.361009 3.73288641,14.8563489 L0,14.8563489 L0,11.1425395 L28.0005586,1.13686838e-13 Z"/></g></g></g></svg>