<svg viewBox="0 0 10 10" version="1.1" xmlns="http://www.w3.org/2000/svg" xmlns:xlink="http://www.w3.org/1999/xlink">
  <path class="usajobs-icon__path" d="M10,8.04713805 C10,8.27160494 9.92143659,8.4624018 9.76430976,8.61952862 L8.61952862,9.76430976 C8.4624018,9.92143659 8.27160494,10 8.04713805,10 C7.82267116,10 7.6318743,9.92143659 7.47474747,9.76430976 L5,7.28956229 L2.52525253,9.76430976 C2.3681257,9.92143659 2.17732884,10 1.95286195,10 C1.72839506,10 1.5375982,9.92143659 1.38047138,9.76430976 L0.235690236,8.61952862 C0.0785634119,8.4624018 0,8.27160494 0,8.04713805 C0,7.82267116 0.0785634119,7.6318743 0.235690236,7.47474747 L2.71043771,5 L0.235690236,2.52525253 C0.0785634119,2.3681257 0,2.17732884 0,1.95286195 C0,1.72839506 0.0785634119,1.5375982 0.235690236,1.38047138 L1.38047138,0.235690236 C1.5375982,0.0785634119 1.72839506,0 1.95286195,0 C2.17732884,0 2.3681257,0.0785634119 2.52525253,0.235690236 L5,2.71043771 L7.47474747,0.235690236 C7.6318743,0.0785634119 7.82267116,0 8.04713805,0 C8.27160494,0 8.4624018,0.0785634119 8.61952862,0.235690236 L9.76430976,1.38047138 C9.92143659,1.5375982 10,1.72839506 10,1.95286195 C10,2.17732884 9.92143659,2.3681257 9.76430976,2.52525253 L7.28956229,5 L9.76430976,7.47474747 C9.92143659,7.6318743 10,7.82267116 10,8.04713805 Z"></path>
</svg>
