<svg xmlns="http://www.w3.org/2000/svg" xmlns:xlink="http://www.w3.org/1999/xlink" width="46" height="46" version="1.1" viewBox="0 0 46 46"><title>individuals-with-disabilities</title><desc>Created with Sketch.</desc><g id="Symbols" fill="none" fill-rule="evenodd" stroke="none" stroke-width="1"><g id="individuals-with-disabilities"><path id="Fill-1-Copy-2" fill="#205493" d="M45,23 C45,35.1506076 35.1502514,45 22.9992043,45 C10.8497486,45 1,35.1506076 1,23 C1,10.8493924 10.8497486,1 22.9992043,1 C35.1502514,1 45,10.8493924 45,23"/><g id="wheelchair-alt" fill="#FFF" fill-rule="nonzero" transform="translate(11.000000, 7.000000)"><path id="Shape" d="M23.5850483,15.0448552 L22.8448552,24.3069517 C22.7609379,25.248331 21.9873931,25.9540966 21.0632276,25.9540966 C21.0126621,25.9540966 20.9620966,25.9540966 20.911531,25.9368828 C19.9195862,25.8691034 19.1966069,24.9955034 19.2643862,24.0207724 L19.8528828,16.809269 L17.4494069,16.9437517 C18.0379034,18.1540966 18.3735724,19.5322759 18.3735724,20.9782345 C18.3735724,23.3989241 17.4321931,25.6012138 15.8861793,27.2311448 L13.5827586,24.9277241 C14.5241379,23.8852138 15.1126345,22.4898207 15.1126345,20.9771586 C15.1126345,17.7162207 12.4735448,15.077131 9.22874483,15.077131 C7.69886897,15.077131 6.32068966,15.6656276 5.26204138,16.6231448 L2.95862069,14.3035862 C4.25288276,13.0760276 5.90002759,12.2357793 7.73329655,11.9334621 L12.1712276,6.88982069 L9.66662069,5.42772414 L6.62408276,8.1345931 C5.88388966,8.8070069 4.75853793,8.73922759 4.10226207,8.00011034 C3.44598621,7.2609931 3.51376552,6.13456552 4.23674483,5.47828966 L8.25401379,1.89782069 C8.82529655,1.37710345 9.66662069,1.29318621 10.3379586,1.69663448 C18.5241931,6.45409655 18.5414069,6.45409655 18.5414069,6.45409655 C18.9782069,6.70584828 19.2310345,7.14372414 19.3483034,7.59666207 C19.5161379,8.25186207 19.398869,8.99205517 18.9115034,9.56333793 L15.4655172,13.4633379 L21.7022897,13.1265931 C22.2230069,13.0932414 22.7275862,13.2782897 23.0976828,13.6645241 C23.4505655,14.0367724 23.6356138,14.5402759 23.5850483,15.0448552 Z M19.7689655,5.98502069 C18.1218207,5.98502069 16.7769931,4.6574069 16.7769931,2.99304828 C16.7769931,1.34590345 18.1218207,0.00107586207 19.7689655,0.00107586207 C21.4333241,0.00107586207 22.7781517,1.34590345 22.7781517,2.99304828 C22.7781517,4.6574069 21.4333241,5.98502069 19.7689655,5.98502069 Z M9.22874483,26.8632 C10.4390897,26.8632 11.582731,26.4769655 12.5241103,25.8379034 L14.8608828,28.1746759 C13.314869,29.4022345 11.3471172,30.1252138 9.22982069,30.1252138 C4.17004138,30.1252138 0.0677793103,26.0229517 0.0677793103,20.9803862 C0.0677793103,18.8458759 0.790758621,16.8953379 2.01831724,15.3321103 L4.35508966,17.6688828 C3.71602759,18.6102621 3.34593103,19.7528276 3.34593103,20.9803862 C3.34593103,24.2251862 5.98502069,26.8642759 9.22982069,26.8642759 L9.22874483,26.8632 Z"/></g></g></g></svg>