<?xml version="1.0" encoding="UTF-8"?>
<svg width="46px" height="46px" viewBox="0 0 46 46" version="1.1" xmlns="http://www.w3.org/2000/svg" xmlns:xlink="http://www.w3.org/1999/xlink">
    <!-- Generator: Sketch 48.2 (47327) - http://www.bohemiancoding.com/sketch -->
    <title>military-spouses</title>
    <desc>Created with Sketch.</desc>
    <defs></defs>
    <g id="Symbols" stroke="none" stroke-width="1" fill="none" fill-rule="evenodd">
        <g id="military-spouses">
            <path d="M46,23 C46,35.1506076 36.1502514,45 23.9992043,45 C11.8497486,45 2,35.1506076 2,23 C2,10.8493924 11.8497486,1 23.9992043,1 C36.1502514,1 46,10.8493924 46,23" id="Fill-1-Copy-4" fill="#2E8540"></path>
            <g id="Group" transform="translate(9.000000, 11.000000)" fill="#FFFFFF" fill-rule="nonzero">
                <g id="circle-copy" opacity="0.8">
                    <path d="M9.85714286,0 C4.41186636,0 0,4.41186636 0,9.85714286 C0,15.3024194 4.41186636,19.7142857 9.85714286,19.7142857 C15.3024194,19.7142857 19.7142857,15.3024194 19.7142857,9.85714286 C19.7142857,4.41186636 15.3024194,0 9.85714286,0 Z M9.85714286,17.8064516 C5.46514977,17.8064516 1.9078341,14.2491359 1.9078341,9.85714286 C1.9078341,5.46514977 5.46514977,1.9078341 9.85714286,1.9078341 C14.2491359,1.9078341 17.8064516,5.46514977 17.8064516,9.85714286 C17.8064516,14.2491359 14.2491359,17.8064516 9.85714286,17.8064516 Z" id="Shape"></path>
                </g>
                <g id="circle" transform="translate(10.285714, 3.428571)">
                    <path d="M9.85714286,0 C4.41186636,0 0,4.41186636 0,9.85714286 C0,15.3024194 4.41186636,19.7142857 9.85714286,19.7142857 C15.3024194,19.7142857 19.7142857,15.3024194 19.7142857,9.85714286 C19.7142857,4.41186636 15.3024194,0 9.85714286,0 Z M9.85714286,17.8064516 C5.46514977,17.8064516 1.9078341,14.2491359 1.9078341,9.85714286 C1.9078341,5.46514977 5.46514977,1.9078341 9.85714286,1.9078341 C14.2491359,1.9078341 17.8064516,5.46514977 17.8064516,9.85714286 C17.8064516,14.2491359 14.2491359,17.8064516 9.85714286,17.8064516 Z" id="Shape"></path>
                </g>
            </g>
        </g>
    </g>
</svg>