<svg xmlns="http://www.w3.org/2000/svg" xmlns:xlink="http://www.w3.org/1999/xlink" width="46" height="46" version="1.1" viewBox="0 0 46 46"><title>military-spouses</title><desc>Created with Sketch.</desc><g id="Symbols" fill="none" fill-rule="evenodd" stroke="none" stroke-width="1"><g id="military-spouses"><path id="Fill-1-Copy-4" fill="#2E8540" d="M46,23 C46,35.1506076 36.1502514,45 23.9992043,45 C11.8497486,45 2,35.1506076 2,23 C2,10.8493924 11.8497486,1 23.9992043,1 C36.1502514,1 46,10.8493924 46,23"/><g id="Group" fill="#FFF" fill-rule="nonzero" transform="translate(9.000000, 11.000000)"><g id="circle-copy" opacity=".8"><path id="Shape" d="M9.85714286,0 C4.41186636,0 0,4.41186636 0,9.85714286 C0,15.3024194 4.41186636,19.7142857 9.85714286,19.7142857 C15.3024194,19.7142857 19.7142857,15.3024194 19.7142857,9.85714286 C19.7142857,4.41186636 15.3024194,0 9.85714286,0 Z M9.85714286,17.8064516 C5.46514977,17.8064516 1.9078341,14.2491359 1.9078341,9.85714286 C1.9078341,5.46514977 5.46514977,1.9078341 9.85714286,1.9078341 C14.2491359,1.9078341 17.8064516,5.46514977 17.8064516,9.85714286 C17.8064516,14.2491359 14.2491359,17.8064516 9.85714286,17.8064516 Z"/></g><g id="circle" transform="translate(10.285714, 3.428571)"><path id="Shape" d="M9.85714286,0 C4.41186636,0 0,4.41186636 0,9.85714286 C0,15.3024194 4.41186636,19.7142857 9.85714286,19.7142857 C15.3024194,19.7142857 19.7142857,15.3024194 19.7142857,9.85714286 C19.7142857,4.41186636 15.3024194,0 9.85714286,0 Z M9.85714286,17.8064516 C5.46514977,17.8064516 1.9078341,14.2491359 1.9078341,9.85714286 C1.9078341,5.46514977 5.46514977,1.9078341 9.85714286,1.9078341 C14.2491359,1.9078341 17.8064516,5.46514977 17.8064516,9.85714286 C17.8064516,14.2491359 14.2491359,17.8064516 9.85714286,17.8064516 Z"/></g></g></g></g></svg>