<svg xmlns="http://www.w3.org/2000/svg" xmlns:xlink="http://www.w3.org/1999/xlink" width="46" height="46" version="1.1" viewBox="0 0 46 46"><title>public</title><desc>Created with Sketch.</desc><g id="Symbols" fill="none" fill-rule="evenodd" stroke="none" stroke-width="1"><g id="public"><g id="Group-2" transform="translate(1.000000, 1.000000)"><g id="Group" fill="#02BFE7"><circle id="Oval-3" cx="22" cy="22" r="22"/></g><g id="users" fill="#FFF" fill-rule="nonzero" transform="translate(5.000000, 12.000000)"><path id="Shape" d="M11.6875,5.3125 C11.6875,2.37845937 14.0660125,0 17,0 C19.9339875,0 22.3125,2.37845937 22.3125,5.3125 C22.3125,8.24654062 19.9339875,10.625 17,10.625 C14.0660125,10.625 11.6875,8.24654062 11.6875,5.3125 Z M2.55,7.65 C2.55,5.30277812 4.45277813,3.4 6.8,3.4 C9.14722187,3.4 11.05,5.30277812 11.05,7.65 C11.05,9.99722187 9.14722187,11.9 6.8,11.9 C4.45277813,11.9 2.55,9.99722187 2.55,7.65 Z M22.95,7.65 C22.95,5.30277812 24.8527781,3.4 27.2,3.4 C29.5472219,3.4 31.45,5.30277812 31.45,7.65 C31.45,9.99722187 29.5472219,11.9 27.2,11.9 C24.8527781,11.9 22.95,9.99722187 22.95,7.65 Z M21.78125,11.6875 C23.8350625,11.6875 25.5,13.3524375 25.5,15.40625 L25.5,19.125 C25.5,19.8291719 24.9291719,20.4 24.225,20.4 L9.775,20.4 C9.07082813,20.4 8.5,19.8291719 8.5,19.125 L8.5,15.40625 C8.5,13.3524375 10.1649375,11.6875 12.21875,11.6875 L13.166925,11.6875 C15.5237625,13.1052469 18.4757063,13.1055656 20.8331281,11.6875 L21.78125,11.6875 Z M6.8,15.40625 C6.8,14.7700781 6.91055312,14.1593 7.11285312,13.5917125 C5.94782187,13.6529125 4.76887188,13.3727844 3.73351875,12.75 L2.975,12.75 C1.33195,12.75 0,14.08195 0,15.725 L0,17.425 C0,18.1291719 0.570828125,18.7 1.275,18.7 L6.8,18.7 L6.8,15.40625 Z M31.025,12.75 L30.2664812,12.75 C29.2308094,13.3729969 28.0519125,13.6529125 26.8871469,13.5917125 C27.0946513,14.174159 27.200477,14.7879444 27.2,15.40625 L27.2,18.7 L32.725,18.7 C33.4291719,18.7 34,18.1291719 34,17.425 L34,15.725 C34,14.08195 32.66805,12.75 31.025,12.75 Z"/></g></g></g></g></svg>