<svg xmlns="http://www.w3.org/2000/svg" xmlns:xlink="http://www.w3.org/1999/xlink" width="46" height="46" version="1.1" viewBox="0 0 46 46"><title>se-other</title><desc>Created with Sketch.</desc><g id="Symbols" fill="none" fill-rule="evenodd" stroke="none" stroke-width="1"><g id="se-other"><g id="Group-2" transform="translate(1.000000, 1.000000)"><g id="Group" fill="#00BEE6"><path id="Fill-1-Copy-8" d="M44,22 C44,34.1506076 34.1502514,44 21.9992043,44 C9.84974862,44 0,34.1506076 0,22 C0,9.84939236 9.84974862,0 21.9992043,0 C34.1502514,0 44,9.84939236 44,22"/></g><g id="briefcase" fill="#FFF" fill-rule="nonzero" transform="translate(8.000000, 9.000000)"><path id="Shape" d="M17.5,14 L28,14 L28,21.875 C28,23.3247656 26.8247656,24.5 25.375,24.5 L2.625,24.5 C1.17523437,24.5 0,23.3247656 0,21.875 L0,14 L10.5,14 L10.5,15.09375 C10.5,15.4561641 10.7938359,15.75 11.15625,15.75 L16.84375,15.75 C17.2061641,15.75 17.5,15.4561641 17.5,15.09375 L17.5,14 Z M28,7.875 L28,12.25 L0,12.25 L0,7.875 C0,6.42523437 1.17523437,5.25 2.625,5.25 L7,5.25 L7,2.625 C7,1.17523437 8.17523438,0 9.625,0 L18.375,0 C19.8247656,0 21,1.17523437 21,2.625 L21,5.25 L25.375,5.25 C26.8247656,5.25 28,6.42523437 28,7.875 Z M17.5,3.5 L10.5,3.5 L10.5,5.25 L17.5,5.25 L17.5,3.5 Z"/></g></g></g></g></svg>