<svg xmlns="http://www.w3.org/2000/svg" xmlns:xlink="http://www.w3.org/1999/xlink" width="46" height="46" version="1.1" viewBox="0 0 46 46"><title>special authorities</title><desc>Created with Sketch.</desc><g id="Symbols" fill="none" fill-rule="evenodd" stroke="none" stroke-width="1"><g id="special-authorities"><g id="Senior-Executives" fill="#AEB0B5" transform="translate(1.000000, 1.000000)"><path id="Fill-1" d="M43.4452857,21.7511724 C43.4452857,33.7643525 33.7197143,43.5023448 21.7218571,43.5023448 C9.72557143,43.5023448 0,33.7643525 0,21.7511724 C0,9.73799234 9.72557143,0 21.7218571,0 C33.7197143,0 43.4452857,9.73799234 43.4452857,21.7511724"/></g><g id="asterisk" fill="#FFF" fill-rule="nonzero" transform="translate(8.000000, 7.000000)"><path id="Shape" d="M29.1620772,21.3250851 L20.0848431,16.3404255 L29.1620772,11.355766 C29.9149495,10.9423404 30.1808644,9.99082979 29.7513538,9.24702128 L28.5079495,7.09334043 C28.0785027,6.34953191 27.1215665,6.10404255 26.3870772,6.54931915 L17.5316516,11.9181702 L17.7534601,1.5647234 C17.7718431,0.706021277 17.0808218,0 16.2218644,0 L13.7350559,0 C12.8761623,0 12.1850772,0.706021277 12.203524,1.5647234 L12.4252686,11.9181702 L3.56984312,6.54938298 C2.83541758,6.10410638 1.87841758,6.34959574 1.44897078,7.09340426 L0.20556652,9.24708511 C-0.223880289,9.99089362 0.0420346051,10.9424043 0.794906945,11.3558298 L9.87207716,16.3404255 L0.794843116,21.3250851 C0.0419707753,21.7385106 -0.223944118,22.6900213 0.20556652,23.4338298 L1.44897078,25.5875106 C1.87841758,26.3313191 2.83541758,26.5768085 3.56984312,26.1315319 L12.4252686,20.7626809 L12.2034601,31.1161277 C12.1850772,31.9748298 12.8761623,32.6808511 13.7350559,32.6808511 L16.2219282,32.6808511 C17.0808218,32.6808511 17.7719069,31.9748298 17.753524,31.1161277 L17.5316516,20.7626809 L26.3870772,26.1314681 C27.1215027,26.5767447 28.0785027,26.3312553 28.5079495,25.5874468 L29.7513538,23.433766 C30.1808006,22.6899574 29.9149495,21.7385106 29.1620772,21.3250851 Z"/></g></g></g></svg>