<?xml version="1.0" encoding="UTF-8"?>
<svg width="46px" height="46px" viewBox="0 0 46 46" version="1.1" xmlns="http://www.w3.org/2000/svg" xmlns:xlink="http://www.w3.org/1999/xlink">
    <!-- Generator: Sketch 48.1 (47250) - http://www.bohemiancoding.com/sketch -->
    <title>family-of-overseas-employees</title>
    <desc>Created with Sketch.</desc>
    <defs></defs>
    <g id="Symbols" stroke="none" stroke-width="1" fill="none" fill-rule="evenodd">
        <g id="family-of-overseas-employees">
            <path d="M22.9992043,45 C10.8497486,45 1,35.1506076 1,23 C1,10.8493924 10.8497486,1 22.9992043,1 C35.1502514,1 45,10.8493924 45,23 C45,35.1506076 35.1502514,45 22.9992043,45 Z" id="Fill-1-Copy-3" fill="#046B99"></path>
            <g id="plane" transform="translate(10.000000, 9.000000)" fill="#FFFFFF" fill-rule="nonzero">
                <path d="M24.5833367,10.4166667 L18.760993,10.4166667 L13.3340138,0.297447917 C13.2202659,0.11260079 13.0187637,6.99049308e-08 12.8017221,0 L9.79198255,0 C9.38312838,0 9.08437838,0.38609375 9.18698255,0.781822917 L10.91792,10.4166667 L5.19614922,10.4166667 L3.37823255,7.38677083 C3.26527905,7.19851712 3.06183537,7.08333122 2.84229505,7.08333333 L0.625211715,7.08333333 C0.230836715,7.08333333 -0.0649966183,7.44416667 0.0123471317,7.83088542 L1.11281588,13.3333854 L0.0123471317,18.8357292 C-0.0649966183,19.2225 0.230836715,19.5833333 0.625263798,19.5832812 L2.84234713,19.5831771 C3.06187838,19.5831771 3.26531588,19.4679687 3.37823255,19.2797396 L5.19614922,16.25 L10.91792,16.25 L9.18698255,25.8848437 C9.08437838,26.280625 9.38312838,26.6666667 9.79198255,26.6666667 L12.8017221,26.6666667 C13.0187637,26.6666666 13.2202659,26.5540659 13.3340138,26.3692187 L18.761045,16.25 L24.5833367,16.25 C27.5748992,16.25 30.0000034,14.9441667 30.0000034,13.3333333 C30.0000034,11.7225 27.5748992,10.4166667 24.5833367,10.4166667 Z" id="Shape"></path>
            </g>
        </g>
    </g>
</svg>