<?xml version="1.0" encoding="UTF-8"?>
<svg width="46px" height="46px" viewBox="0 0 46 46" version="1.1" xmlns="http://www.w3.org/2000/svg" xmlns:xlink="http://www.w3.org/1999/xlink">
    <!-- Generator: Sketch 47 (45396) - http://www.bohemiancoding.com/sketch -->
    <title>family-of-overseas-employees</title>
    <desc>Created with Sketch.</desc>
    <defs></defs>
    <g id="Symbols" stroke="none" stroke-width="1" fill="none" fill-rule="evenodd">
        <g id="family-of-overseas-employees">
            <path d="M22.9992043,45 C10.8497486,45 1,35.1506076 1,23 C1,10.8493924 10.8497486,1 22.9992043,1 C35.1502514,1 45,10.8493924 45,23 C45,35.1506076 35.1502514,45 22.9992043,45 Z" id="Fill-1-Copy-3" fill="#046B99"></path>
            <g id="plane" transform="translate(10.000000, 11.000000)" fill-rule="nonzero" fill="#FFFFFF">
                <path d="M25.5681818,0.568181818 C26.7045455,1.70454545 25.5681818,4.54545455 23.8636364,6.25 L21.0045455,9.10909091 L23.8454545,21.4670455 C23.8988636,21.6795455 23.8102273,21.9113636 23.6329545,22.0534091 L21.3602273,23.7579545 C21.2715909,23.8295455 21.1477273,23.8647727 21.0227273,23.8647727 C20.9875,23.8647727 20.9511364,23.8647727 20.8988636,23.8465909 C20.7386364,23.8113636 20.5965909,23.7227273 20.5261364,23.5625 L15.5727273,14.5420455 L10.9738636,19.1409091 L11.9147727,22.5852273 C11.9681818,22.7806818 11.9147727,22.9761364 11.7727273,23.1352273 L10.0681818,24.8397727 C9.96136364,24.9465909 9.80227273,25 9.66022727,25 L9.625,25 C9.44772727,24.9818182 9.30568182,24.9113636 9.19886364,24.7693182 L5.84318182,20.2943182 L1.36818182,16.9386364 C1.22613636,16.85 1.15568182,16.6897727 1.1375,16.5306818 C1.11931818,16.3715909 1.19090909,16.2113636 1.29772727,16.0863636 L3.00227273,14.3636364 C3.10909091,14.2568182 3.26818182,14.2034091 3.41022727,14.2034091 C3.46363636,14.2034091 3.51704545,14.2034091 3.55227273,14.2215909 L6.99659091,15.1625 L11.5954545,10.5636364 L2.575,5.61022727 C2.41477273,5.52159091 2.30909091,5.36136364 2.27272727,5.18409091 C2.25454545,5.02386364 2.30795455,4.82840909 2.43295455,4.70454545 L4.70568182,2.43181818 C4.84772727,2.30795455 5.06136364,2.23636364 5.23863636,2.28977273 L17.0465909,5.1125 L19.8875,2.27159091 C21.5920455,0.567045455 24.4329545,-0.569318182 25.5693182,0.567045455 L25.5681818,0.568181818 Z" id="Shape"></path>
            </g>
        </g>
    </g>
</svg>