<svg xmlns="http://www.w3.org/2000/svg" xmlns:xlink="http://www.w3.org/1999/xlink" width="46" height="46" version="1.1" viewBox="0 0 46 46"><title>federal-employees</title><desc>Created with Sketch.</desc><g id="Symbols" fill="none" fill-rule="evenodd" stroke="none" stroke-width="1"><g id="federal-employees"><g id="Group-2" transform="translate(1.000000, 1.000000)"><g id="Group" fill="#112E51"><circle id="Oval-3" cx="22" cy="22" r="22"/></g><g id="university" fill="#FFF" fill-rule="nonzero" transform="translate(8.000000, 8.000000)"><path id="Shape" d="M28,5.6 L28,6.53333333 C28,6.79106622 27.7910662,7 27.5333333,7 L26.1333333,7 L26.1333333,7.7 C26.1333333,8.086575 25.8199083,8.4 25.4333333,8.4 L2.56666667,8.4 C2.18009167,8.4 1.86666667,8.086575 1.86666667,7.7 L1.86666667,7 L0.466666667,7 C0.208933783,7 3.15631751e-17,6.79106622 0,6.53333333 L0,5.6 C1.36488333e-06,5.41119547 0.113768252,5.24099413 0.288225,5.1688 L13.8215583,0.0354666667 C13.9358157,-0.0118433251 14.0641843,-0.0118433251 14.1784417,0.0354666667 L27.711775,5.1688 C27.8862317,5.24099413 27.9999986,5.41119547 28,5.6 Z M26.6,23.3333333 L1.4,23.3333333 C0.626791667,23.3333333 0,23.960125 0,24.7333333 L0,25.6666667 C3.15631751e-17,25.9243995 0.208933783,26.1333333 0.466666667,26.1333333 L27.5333333,26.1333333 C27.7910662,26.1333333 28,25.9243995 28,25.6666667 L28,24.7333333 C28,23.960125 27.3732083,23.3333333 26.6,23.3333333 Z M3.73333333,9.33333333 L3.73333333,20.5333333 L2.56666667,20.5333333 C2.18009167,20.5333333 1.86666667,20.8467583 1.86666667,21.2333333 L1.86666667,22.4 L26.1333333,22.4 L26.1333333,21.2333333 C26.1333333,20.8467583 25.8199083,20.5333333 25.4333333,20.5333333 L24.2666667,20.5333333 L24.2666667,9.33333333 L20.5333333,9.33333333 L20.5333333,20.5333333 L18.6666667,20.5333333 L18.6666667,9.33333333 L14.9333333,9.33333333 L14.9333333,20.5333333 L13.0666667,20.5333333 L13.0666667,9.33333333 L9.33333333,9.33333333 L9.33333333,20.5333333 L7.46666667,20.5333333 L7.46666667,9.33333333 L3.73333333,9.33333333 Z"/></g></g></g></g></svg>