<?xml version="1.0" encoding="UTF-8"?>
<svg width="46px" height="46px" viewBox="0 0 46 46" version="1.1" xmlns="http://www.w3.org/2000/svg" xmlns:xlink="http://www.w3.org/1999/xlink">
    <!-- Generator: Sketch 47 (45396) - http://www.bohemiancoding.com/sketch -->
    <title>federal-employees</title>
    <desc>Created with Sketch.</desc>
    <defs></defs>
    <g id="Symbols" stroke="none" stroke-width="1" fill="none" fill-rule="evenodd">
        <g id="federal-employees">
            <g id="Group" transform="translate(1.000000, 1.000000)">
                <circle id="Oval-3" fill="#112E51" cx="22" cy="22" r="22"></circle>
                <g id="institution" transform="translate(7.000000, 8.000000)" fill-rule="nonzero" fill="#FFFFFF">
                    <path d="M15,0 L30,5.625 L30,7.5 L28,7.5 C28,7.75390625 27.8932292,7.97363281 27.6796875,8.15917969 C27.4661458,8.34472656 27.2135417,8.4375 26.921875,8.4375 L3.078125,8.4375 C2.78645833,8.4375 2.53385417,8.34472656 2.3203125,8.15917969 C2.10677083,7.97363281 2,7.75390625 2,7.5 L0,7.5 L0,5.625 L15,0 Z M4,9.375 L8,9.375 L8,20.625 L10,20.625 L10,9.375 L14,9.375 L14,20.625 L16,20.625 L16,9.375 L20,9.375 L20,20.625 L22,20.625 L22,9.375 L26,9.375 L26,20.625 L26.921875,20.625 C27.2135417,20.625 27.4661458,20.7177734 27.6796875,20.9033203 C27.8932292,21.0888672 28,21.3085938 28,21.5625 L28,22.5 L2,22.5 L2,21.5625 C2,21.3085938 2.10677083,21.0888672 2.3203125,20.9033203 C2.53385417,20.7177734 2.78645833,20.625 3.078125,20.625 L4,20.625 L4,9.375 Z M28.921875,23.4375 C29.2135417,23.4375 29.4661458,23.5302734 29.6796875,23.7158203 C29.8932292,23.9013672 30,24.1210938 30,24.375 L30,26.25 L0,26.25 L0,24.375 C0,24.1210938 0.106770833,23.9013672 0.3203125,23.7158203 C0.533854167,23.5302734 0.786458333,23.4375 1.078125,23.4375 L28.921875,23.4375 Z" id="Shape"></path>
                </g>
            </g>
        </g>
    </g>
</svg>