<?xml version="1.0" encoding="UTF-8"?>
<svg width="46px" height="46px" viewBox="0 0 46 46" version="1.1" xmlns="http://www.w3.org/2000/svg" xmlns:xlink="http://www.w3.org/1999/xlink">
    <!-- Generator: Sketch 48.2 (47327) - http://www.bohemiancoding.com/sketch -->
    <title>federal-employees-career-transition</title>
    <desc>Created with Sketch.</desc>
    <defs></defs>
    <g id="Symbols" stroke="none" stroke-width="1" fill="none" fill-rule="evenodd">
        <g id="federal-employees-career-transition">
            <g id="Group-2" transform="translate(1.000000, 1.000000)">
                <g id="Group" fill="#112E51">
                    <circle id="Oval-3" cx="22" cy="22" r="22"></circle>
                </g>
                <g id="exchange-alt" transform="translate(8.000000, 9.000000)" fill="#FFFFFF" fill-rule="nonzero">
                    <path d="M3.55271368e-15,6.88464302 L3.55271368e-15,5.90133271 C3.55271368e-15,5.08672157 0.587617188,4.42636724 1.3125,4.42636724 L21,4.42636724 L21,1.4764363 C21,0.163286836 22.4163516,-0.492765513 23.2406016,0.433451345 L27.6156016,5.35000291 C28.1281328,5.92603838 28.1281328,6.85993735 27.6156016,7.43591137 L23.2406016,12.3524629 C22.4194688,13.2750538 21,12.6281586 21,11.3095394 L21,8.35960849 L1.3125,8.35960849 C0.587617188,8.35960849 3.55271368e-15,7.69925416 3.55271368e-15,6.88464302 Z M26.6875,16.226091 L7,16.226091 L7,13.2761601 C7,11.9662678 5.58567188,11.3046229 4.75939844,12.2331751 L0.384398438,17.1497267 C-0.128132813,17.7257621 -0.128132813,18.6596611 0.384398438,19.2356351 L4.75939844,24.1521867 C5.58124219,25.0756994 7,24.4267146 7,23.1092632 L7,20.1593322 L26.6875,20.1593322 C27.4123828,20.1593322 28,19.4989779 28,18.6843668 L28,17.7010565 C28,16.8864453 27.4123828,16.226091 26.6875,16.226091 Z" id="Shape"></path>
                </g>
            </g>
        </g>
    </g>
</svg>