<svg xmlns="http://www.w3.org/2000/svg" xmlns:xlink="http://www.w3.org/1999/xlink" width="46" height="46" version="1.1" viewBox="0 0 46 46"><title>graduates</title><desc>Created with Sketch.</desc><g id="Symbols" fill="none" fill-rule="evenodd" stroke="none" stroke-width="1"><g id="graduates"><g id="Group" fill="#FDB81E" transform="translate(1.000000, 1.000000)"><path id="Fill-1-Copy" d="M44,22 C44,34.1506076 34.1502514,44 21.9992043,44 C9.84974862,44 0,34.1506076 0,22 C0,9.84939236 9.84974862,0 21.9992043,0 C34.1502514,0 44,9.84939236 44,22"/></g><g id="graduation-cap" fill="#FFF" fill-rule="nonzero" transform="translate(6.000000, 13.000000)"><path id="Shape" d="M33.092131,7.16095164 L18.4622122,11.6748362 C17.5249022,11.9502838 16.5281399,11.9502838 15.59083,11.6748362 L4.95402808,8.392961 C4.49977535,8.99965679 4.36960998,9.6155819 4.32187207,10.4263307 C4.81505772,10.7232605 5.1450858,11.2637598 5.1450858,11.8814353 C5.1450858,12.5153947 4.79728861,13.0677754 4.28235569,13.3592418 L5.14147894,19.8885148 C5.17489548,20.1423744 4.97704836,20.3681747 4.72074883,20.3681747 L2.17472699,20.3681747 C1.91863963,20.3681747 1.72058034,20.1425866 1.75399688,19.8884618 L2.61312012,13.3591888 C2.09818721,13.0677754 1.75039002,12.5153947 1.75039002,11.8814353 C1.75039002,11.2431264 2.10290796,10.6874041 2.62372855,10.3975289 C2.67395944,9.44536973 2.83451794,8.63488612 3.26829641,7.872883 L0.960858034,7.16095164 C-0.252533541,6.80021217 -0.246698908,5.07952574 0.960858034,4.72048362 L15.5907769,0.206599064 C16.5280868,-0.0688485075 17.5248492,-0.0688485075 18.4621591,0.206599064 L33.092078,4.72048362 C34.3055226,5.08122309 34.299688,6.80190952 33.092131,7.16095164 Z M18.9627176,13.2967051 L18.9517379,13.3000998 L18.9407582,13.3033354 C17.6910401,13.6705875 16.3620551,13.6705875 15.112337,13.3033354 L15.1013573,13.3000998 L15.0903775,13.2967051 L7.08557878,10.8265335 L6.41809672,15.276131 C6.41809672,17.1509579 11.1676474,18.6708268 17.0265211,18.6708268 C22.8853947,18.6708268 27.6349454,17.1509579 27.6349454,15.276131 L26.9675164,10.8265335 L18.9627176,13.2967051 Z"/></g></g></g></svg>