<?xml version="1.0" encoding="UTF-8"?>
<svg width="46px" height="46px" viewBox="0 0 46 46" version="1.1" xmlns="http://www.w3.org/2000/svg" xmlns:xlink="http://www.w3.org/1999/xlink">
    <!-- Generator: Sketch 47 (45396) - http://www.bohemiancoding.com/sketch -->
    <title>individuals-with-disabilities</title>
    <desc>Created with Sketch.</desc>
    <defs></defs>
    <g id="Symbols" stroke="none" stroke-width="1" fill="none" fill-rule="evenodd">
        <g id="individuals-with-disabilities">
            <path d="M45,23 C45,35.1506076 35.1502514,45 22.9992043,45 C10.8497486,45 1,35.1506076 1,23 C1,10.8493924 10.8497486,1 22.9992043,1 C35.1502514,1 45,10.8493924 45,23" id="Fill-1-Copy-2" fill="#205493"></path>
            <g id="wheelchair-alt" transform="translate(13.000000, 10.000000)" fill-rule="nonzero" fill="#FFFFFF">
                <path d="M19.248069,11.3888966 C19.5421379,11.6973103 19.6963448,12.1168966 19.6542069,12.5373793 L19.0373793,20.2557931 C18.9674483,21.0402759 18.3228276,21.6284138 17.5526897,21.6284138 C17.5105517,21.6284138 17.4684138,21.6284138 17.4262759,21.614069 C16.5996552,21.5575862 15.9971724,20.8295862 16.0536552,20.0173103 L16.544069,14.0077241 L14.5411724,14.1197931 C15.0315862,15.1284138 15.3113103,16.2768966 15.3113103,17.4818621 C15.3113103,19.4991034 14.5268276,21.3343448 13.2384828,22.6926207 L11.3189655,20.7731034 C12.1034483,19.9043448 12.5938621,18.7415172 12.5938621,17.4809655 C12.5938621,14.7635172 10.3946207,12.5642759 7.69062069,12.5642759 C6.41572414,12.5642759 5.26724138,13.0546897 4.38503448,13.8526207 L2.46551724,11.9196552 C3.54406897,10.8966897 4.91668966,10.1964828 6.44441379,9.94455172 L10.1426897,5.74151724 L8.05551724,4.52310345 L5.52006897,6.77882759 C4.90324138,7.33917241 3.96544828,7.28268966 3.41855172,6.66675862 C2.87165517,6.05082759 2.92813793,5.11213793 3.53062069,4.56524138 L6.87834483,1.58151724 C7.35441379,1.14758621 8.05551724,1.07765517 8.61496552,1.41386207 C15.4368276,5.37841379 15.4511724,5.37841379 15.4511724,5.37841379 C15.8151724,5.5882069 16.0258621,5.95310345 16.1235862,6.33055172 C16.2634483,6.87655172 16.1657241,7.49337931 15.7595862,7.96944828 L12.887931,11.2194483 L18.0852414,10.9388276 C18.5191724,10.9110345 18.9396552,11.0652414 19.248069,11.3871034 L19.248069,11.3888966 Z M16.4741379,4.98751724 C15.1015172,4.98751724 13.9808276,3.88117241 13.9808276,2.4942069 C13.9808276,1.12158621 15.1015172,0.000896551724 16.4741379,0.000896551724 C17.8611034,0.000896551724 18.9817931,1.12158621 18.9817931,2.4942069 C18.9817931,3.88117241 17.8611034,4.98751724 16.4741379,4.98751724 Z M7.69062069,22.386 C8.69924138,22.386 9.65227586,22.0641379 10.4367586,21.5315862 L12.384069,23.4788966 C11.0957241,24.5018621 9.45593103,25.1043448 7.69151724,25.1043448 C3.47503448,25.1043448 0.0564827586,21.6857931 0.0564827586,17.4836552 C0.0564827586,15.7048966 0.658965517,14.0794483 1.68193103,12.7767586 L3.62924138,14.724069 C3.09668966,15.5085517 2.78827586,16.4606897 2.78827586,17.4836552 C2.78827586,20.1876552 4.98751724,22.3868966 7.69151724,22.3868966 L7.69062069,22.386 Z" id="Shape"></path>
            </g>
        </g>
    </g>
</svg>