<?xml version="1.0" encoding="UTF-8"?>
<svg width="46px" height="46px" viewBox="0 0 46 46" version="1.1" xmlns="http://www.w3.org/2000/svg" xmlns:xlink="http://www.w3.org/1999/xlink">
    <!-- Generator: Sketch 47 (45396) - http://www.bohemiancoding.com/sketch -->
    <title>internal-to-an-agency</title>
    <desc>Created with Sketch.</desc>
    <defs></defs>
    <g id="Symbols" stroke="none" stroke-width="1" fill="none" fill-rule="evenodd">
        <g id="internal-to-an-agency">
            <g id="Group-2" transform="translate(1.000000, 1.000000)">
                <g id="Group" fill="#112E51">
                    <circle id="Oval-3" cx="22" cy="22" r="22"></circle>
                </g>
                <g id="bullseye" transform="translate(9.000000, 9.000000)" fill-rule="nonzero" fill="#FFFFFF">
                    <path d="M17.3333333,13 C17.3333333,15.3865833 15.3865833,17.3333333 13,17.3333333 C10.6134167,17.3333333 8.66666667,15.3865833 8.66666667,13 C8.66666667,10.6134167 10.6134167,8.66666667 13,8.66666667 C15.3865833,8.66666667 17.3333333,10.6134167 17.3333333,13 Z M19.5,13 C19.5,9.41091667 16.588,6.5 13,6.5 C9.412,6.5 6.5,9.412 6.5,13 C6.5,16.588 9.412,19.5 13,19.5 C16.588,19.5 19.5,16.588 19.5,13 Z M21.6666667,13 C21.6666667,17.7905 17.7905,21.6666667 13,21.6666667 C8.2095,21.6666667 4.33333333,17.7905 4.33333333,13 C4.33333333,8.2095 8.2095,4.33333333 13,4.33333333 C17.7905,4.33333333 21.6666667,8.2095 21.6666667,13 Z M23.8333333,13 C23.8333333,7.02433333 18.9756667,2.16666667 13,2.16666667 C7.02433333,2.16666667 2.16666667,7.02433333 2.16666667,13 C2.16666667,18.9756667 7.02433333,23.8333333 13,23.8333333 C18.9756667,23.8333333 23.8333333,18.9756667 23.8333333,13 Z M26,13 C26,20.1770833 20.1770833,26 13,26 C5.82291667,26 0,20.1770833 0,13 C0,5.82291667 5.82291667,0 13,0 C20.1770833,0 26,5.82291667 26,13 Z" id="Shape"></path>
                </g>
            </g>
        </g>
    </g>
</svg>