<svg xmlns="http://www.w3.org/2000/svg" xmlns:xlink="http://www.w3.org/1999/xlink" width="46" height="46" version="1.1" viewBox="0 0 46 46"><title>internal-to-an-agency</title><desc>Created with Sketch.</desc><g id="Symbols" fill="none" fill-rule="evenodd" stroke="none" stroke-width="1"><g id="internal-to-an-agency"><g id="Group-2" transform="translate(1.000000, 1.000000)"><g id="Group" fill="#112E51"><circle id="Oval-3" cx="22" cy="22" r="22"/></g><g id="bullseye" fill="#FFF" fill-rule="nonzero" transform="translate(7.000000, 7.000000)"><path id="Shape" d="M20,15 C20,17.75375 17.75375,20 15,20 C12.24625,20 10,17.75375 10,15 C10,12.24625 12.24625,10 15,10 C17.75375,10 20,12.24625 20,15 Z M22.5,15 C22.5,10.85875 19.14,7.5 15,7.5 C10.86,7.5 7.5,10.86 7.5,15 C7.5,19.14 10.86,22.5 15,22.5 C19.14,22.5 22.5,19.14 22.5,15 Z M25,15 C25,20.5275 20.5275,25 15,25 C9.4725,25 5,20.5275 5,15 C5,9.4725 9.4725,5 15,5 C20.5275,5 25,9.4725 25,15 Z M27.5,15 C27.5,8.105 21.895,2.5 15,2.5 C8.105,2.5 2.5,8.105 2.5,15 C2.5,21.895 8.105,27.5 15,27.5 C21.895,27.5 27.5,21.895 27.5,15 Z M30,15 C30,23.28125 23.28125,30 15,30 C6.71875,30 0,23.28125 0,15 C0,6.71875 6.71875,0 15,0 C23.28125,0 30,6.71875 30,15 Z"/></g></g></g></g></svg>