<?xml version="1.0" encoding="UTF-8"?>
<svg width="46px" height="46px" viewBox="0 0 46 46" version="1.1" xmlns="http://www.w3.org/2000/svg" xmlns:xlink="http://www.w3.org/1999/xlink">
    <!-- Generator: Sketch 48.1 (47250) - http://www.bohemiancoding.com/sketch -->
    <title>land-mgmt</title>
    <desc>Created with Sketch.</desc>
    <defs></defs>
    <g id="Symbols" stroke="none" stroke-width="1" fill="none" fill-rule="evenodd">
        <g id="land-mgmt">
            <g id="Group" transform="translate(1.000000, 1.000000)">
                <path d="M44,22 C44,34.1506076 34.1502514,44 21.9992043,44 C9.84974862,44 0,34.1506076 0,22 C0,9.84939236 9.84974862,0 21.9992043,0 C34.1502514,0 44,9.84939236 44,22" id="Fill-1-Copy-9" fill="#494440"></path>
                <g id="tree" transform="translate(10.000000, 7.000000)" fill="#FFFFFF" fill-rule="nonzero">
                    <path d="M24.4791667,23.9583333 C24.4791667,24.528125 24.0072917,25 23.4375,25 L15.9177083,25 C15.9666667,26.0416667 16.096875,27.1322917 16.096875,28.190625 C16.096875,28.728125 15.6572917,29.1677083 15.1041667,29.1677083 L9.89583333,29.1677083 C9.34270833,29.1677083 8.903125,28.728125 8.903125,28.190625 C8.903125,27.1322917 9.03333333,26.0416667 9.08229167,25 L1.5625,25 C0.992708333,25 0.520833333,24.528125 0.520833333,23.9583333 C0.520833333,23.68125 0.634375,23.4208333 0.830208333,23.2260417 L7.37291667,16.6666667 L3.64583333,16.6666667 C3.07604167,16.6666667 2.60416667,16.1947917 2.60416667,15.625 C2.60416667,15.3479167 2.71770833,15.0875 2.91354167,14.8927083 L9.45625,8.33333333 L6.25,8.33333333 C5.68020833,8.33333333 5.20833333,7.86145833 5.20833333,7.29166667 C5.20833333,7.01458333 5.321875,6.75416667 5.51770833,6.559375 L11.7677083,0.309375 C11.9625,0.114583333 12.2239583,0 12.5,0 C12.7760417,0 13.0375,0.113541667 13.2322917,0.309375 L19.4822917,6.559375 C19.6770833,6.75416667 19.7916667,7.015625 19.7916667,7.29166667 C19.7916667,7.86145833 19.3197917,8.33333333 18.75,8.33333333 L15.54375,8.33333333 L22.0864583,14.8927083 C22.28125,15.0875 22.3958333,15.3489583 22.3958333,15.625 C22.3958333,16.1947917 21.9239583,16.6666667 21.3541667,16.6666667 L17.6270833,16.6666667 L24.1697917,23.2260417 C24.3645833,23.4208333 24.4791667,23.6822917 24.4791667,23.9583333 Z" id="Shape"></path>
                </g>
            </g>
        </g>
    </g>
</svg>