<?xml version="1.0" encoding="UTF-8"?>
<svg width="46px" height="46px" viewBox="0 0 46 46" version="1.1" xmlns="http://www.w3.org/2000/svg" xmlns:xlink="http://www.w3.org/1999/xlink">
    <!-- Generator: Sketch 47 (45396) - http://www.bohemiancoding.com/sketch -->
    <title>land-mgmt</title>
    <desc>Created with Sketch.</desc>
    <defs></defs>
    <g id="Symbols" stroke="none" stroke-width="1" fill="none" fill-rule="evenodd">
        <g id="land-mgmt">
            <g id="Group" transform="translate(1.000000, 1.000000)">
                <path d="M44,22 C44,34.1506076 34.1502514,44 21.9992043,44 C9.84974862,44 0,34.1506076 0,22 C0,9.84939236 9.84974862,0 21.9992043,0 C34.1502514,0 44,9.84939236 44,22" id="Fill-1-Copy-9" fill="#494440"></path>
                <g id="tree" transform="translate(10.000000, 8.000000)" fill-rule="nonzero" fill="#FFFFFF">
                    <path d="M23.5,23 C23.5,23.547 23.047,24 22.5,24 L15.281,24 C15.328,25 15.453,26.047 15.453,27.063 C15.453,27.579 15.031,28.001 14.5,28.001 L9.5,28.001 C8.969,28.001 8.547,27.579 8.547,27.063 C8.547,26.047 8.672,25 8.719,24 L1.5,24 C0.953,24 0.5,23.547 0.5,23 C0.5,22.734 0.609,22.484 0.797,22.297 L7.078,16 L3.5,16 C2.953,16 2.5,15.547 2.5,15 C2.5,14.734 2.609,14.484 2.797,14.297 L9.078,8 L6,8 C5.453,8 5,7.547 5,7 C5,6.734 5.109,6.484 5.297,6.297 L11.297,0.297 C11.484,0.11 11.735,0 12,0 C12.265,0 12.516,0.109 12.703,0.297 L18.703,6.297 C18.89,6.484 19,6.735 19,7 C19,7.547 18.547,8 18,8 L14.922,8 L21.203,14.297 C21.39,14.484 21.5,14.735 21.5,15 C21.5,15.547 21.047,16 20.5,16 L16.922,16 L23.203,22.297 C23.39,22.484 23.5,22.735 23.5,23 Z" id="Shape"></path>
                </g>
            </g>
        </g>
    </g>
</svg>