<?xml version="1.0" encoding="UTF-8"?>
<svg width="46px" height="46px" viewBox="0 0 46 46" version="1.1" xmlns="http://www.w3.org/2000/svg" xmlns:xlink="http://www.w3.org/1999/xlink">
    <!-- Generator: Sketch 47 (45396) - http://www.bohemiancoding.com/sketch -->
    <title>military-spouses</title>
    <desc>Created with Sketch.</desc>
    <defs></defs>
    <g id="Symbols" stroke="none" stroke-width="1" fill="none" fill-rule="evenodd">
        <g id="military-spouses">
            <path d="M46,23 C46,35.1506076 36.1502514,45 23.9992043,45 C11.8497486,45 2,35.1506076 2,23 C2,10.8493924 11.8497486,1 23.9992043,1 C36.1502514,1 46,10.8493924 46,23" id="Fill-1-Copy-4" fill="#2E8540"></path>
            <g id="Group" transform="translate(8.000000, 10.000000)" fill-rule="nonzero" fill="#FFFFFF">
                <g id="circle-o" transform="translate(10.400000, 3.466667)">
                    <path d="M11.2666667,3.28611111 C9.81921296,3.28611111 8.48423032,3.64308449 7.26171875,4.35703125 C6.03920718,5.07097801 5.07097801,6.03920718 4.35703125,7.26171875 C3.64308449,8.48423032 3.28611111,9.81921296 3.28611111,11.2666667 C3.28611111,12.7141204 3.64308449,14.049103 4.35703125,15.2716146 C5.07097801,16.4941262 6.03920718,17.4623553 7.26171875,18.1763021 C8.48423032,18.8902488 9.81921296,19.2472222 11.2666667,19.2472222 C12.7141204,19.2472222 14.049103,18.8902488 15.2716146,18.1763021 C16.4941262,17.4623553 17.4623553,16.4941262 18.1763021,15.2716146 C18.8902488,14.049103 19.2472222,12.7141204 19.2472222,11.2666667 C19.2472222,9.81921296 18.8902488,8.48423032 18.1763021,7.26171875 C17.4623553,6.03920718 16.4941262,5.07097801 15.2716146,4.35703125 C14.049103,3.64308449 12.7141204,3.28611111 11.2666667,3.28611111 Z M22.5333333,11.2666667 C22.5333333,13.310706 22.0296586,15.1958189 21.022309,16.9220052 C20.0149595,18.6481916 18.6481916,20.0149595 16.9220052,21.022309 C15.1958189,22.0296586 13.310706,22.5333333 11.2666667,22.5333333 C9.22262731,22.5333333 7.33751447,22.0296586 5.61132812,21.022309 C3.88514178,20.0149595 2.51837384,18.6481916 1.51102431,16.9220052 C0.503674769,15.1958189 0,13.310706 0,11.2666667 C0,9.22262731 0.503674769,7.33751447 1.51102431,5.61132812 C2.51837384,3.88514178 3.88514178,2.51837384 5.61132812,1.51102431 C7.33751447,0.503674769 9.22262731,0 11.2666667,0 C13.310706,0 15.1958189,0.503674769 16.9220052,1.51102431 C18.6481916,2.51837384 20.0149595,3.88514178 21.022309,5.61132812 C22.0296586,7.33751447 22.5333333,9.22262731 22.5333333,11.2666667 Z" id="Shape"></path>
                </g>
                <g id="circle-o-copy" opacity="0.8">
                    <path d="M11.2666667,3.28611111 C9.81921296,3.28611111 8.48423032,3.64308449 7.26171875,4.35703125 C6.03920718,5.07097801 5.07097801,6.03920718 4.35703125,7.26171875 C3.64308449,8.48423032 3.28611111,9.81921296 3.28611111,11.2666667 C3.28611111,12.7141204 3.64308449,14.049103 4.35703125,15.2716146 C5.07097801,16.4941262 6.03920718,17.4623553 7.26171875,18.1763021 C8.48423032,18.8902488 9.81921296,19.2472222 11.2666667,19.2472222 C12.7141204,19.2472222 14.049103,18.8902488 15.2716146,18.1763021 C16.4941262,17.4623553 17.4623553,16.4941262 18.1763021,15.2716146 C18.8902488,14.049103 19.2472222,12.7141204 19.2472222,11.2666667 C19.2472222,9.81921296 18.8902488,8.48423032 18.1763021,7.26171875 C17.4623553,6.03920718 16.4941262,5.07097801 15.2716146,4.35703125 C14.049103,3.64308449 12.7141204,3.28611111 11.2666667,3.28611111 Z M22.5333333,11.2666667 C22.5333333,13.310706 22.0296586,15.1958189 21.022309,16.9220052 C20.0149595,18.6481916 18.6481916,20.0149595 16.9220052,21.022309 C15.1958189,22.0296586 13.310706,22.5333333 11.2666667,22.5333333 C9.22262731,22.5333333 7.33751447,22.0296586 5.61132812,21.022309 C3.88514178,20.0149595 2.51837384,18.6481916 1.51102431,16.9220052 C0.503674769,15.1958189 0,13.310706 0,11.2666667 C0,9.22262731 0.503674769,7.33751447 1.51102431,5.61132812 C2.51837384,3.88514178 3.88514178,2.51837384 5.61132812,1.51102431 C7.33751447,0.503674769 9.22262731,0 11.2666667,0 C13.310706,0 15.1958189,0.503674769 16.9220052,1.51102431 C18.6481916,2.51837384 20.0149595,3.88514178 21.022309,5.61132812 C22.0296586,7.33751447 22.5333333,9.22262731 22.5333333,11.2666667 Z" id="Shape"></path>
                </g>
            </g>
        </g>
    </g>
</svg>