<?xml version="1.0" encoding="UTF-8"?>
<svg width="46px" height="46px" viewBox="0 0 46 46" version="1.1" xmlns="http://www.w3.org/2000/svg" xmlns:xlink="http://www.w3.org/1999/xlink">
    <!-- Generator: Sketch 47 (45396) - http://www.bohemiancoding.com/sketch -->
    <title>native-americans</title>
    <desc>Created with Sketch.</desc>
    <defs></defs>
    <g id="Symbols" stroke="none" stroke-width="1" fill="none" fill-rule="evenodd">
        <g id="native-americans">
            <g id="Group" transform="translate(1.000000, 1.000000)">
                <path d="M44,22 C44,34.1506076 34.1502514,44 21.9992043,44 C9.84974862,44 0,34.1506076 0,22 C0,9.84939236 9.84974862,0 21.9992043,0 C34.1502514,0 44,9.84939236 44,22" id="Fill-1-Copy-6" fill="#5B616B"></path>
                <g id="sun-o" transform="translate(8.000000, 8.000000)" fill-rule="nonzero" fill="#FFFFFF">
                    <path d="M23,14 C23,9.031 18.969,5 14,5 C9.031,5 5,9.031 5,14 C5,18.969 9.031,23 14,23 C18.969,23 23,18.969 23,14 Z M27.312,18.328 C27.265,18.484 27.14,18.594 26.999,18.641 L22.437,20.141 L22.437,24.922 C22.437,25.078 22.359,25.235 22.234,25.328 C22.093,25.422 21.937,25.453 21.781,25.391 L17.219,23.922 L14.407,27.797 C14.313,27.922 14.157,28 14.001,28 C13.845,28 13.688,27.922 13.595,27.797 L10.783,23.922 L6.221,25.391 C6.065,25.454 5.908,25.422 5.768,25.328 C5.643,25.234 5.565,25.078 5.565,24.922 L5.565,20.141 L1.003,18.641 C0.862,18.594 0.737,18.485 0.69,18.328 C0.643,18.171 0.659,18 0.753,17.875 L3.565,14 L0.753,10.125 C0.659,9.984 0.644,9.828 0.69,9.672 C0.736,9.516 0.862,9.406 1.003,9.359 L5.565,7.859 L5.565,3.078 C5.565,2.922 5.643,2.765 5.768,2.672 C5.909,2.578 6.065,2.547 6.221,2.609 L10.783,4.078 L13.595,0.203 C13.782,-0.047 14.22,-0.047 14.407,0.203 L17.219,4.078 L21.781,2.609 C21.937,2.546 22.094,2.578 22.234,2.672 C22.359,2.766 22.437,2.922 22.437,3.078 L22.437,7.859 L26.999,9.359 C27.14,9.406 27.265,9.515 27.312,9.672 C27.359,9.829 27.343,9.985 27.249,10.125 L24.437,14 L27.249,17.875 C27.343,18 27.358,18.172 27.312,18.328 Z" id="Shape"></path>
                </g>
            </g>
        </g>
    </g>
</svg>