<?xml version="1.0" encoding="UTF-8"?>
<svg width="46px" height="46px" viewBox="0 0 46 46" version="1.1" xmlns="http://www.w3.org/2000/svg" xmlns:xlink="http://www.w3.org/1999/xlink">
    <!-- Generator: Sketch 48.1 (47250) - http://www.bohemiancoding.com/sketch -->
    <title>national-guard</title>
    <desc>Created with Sketch.</desc>
    <defs></defs>
    <g id="Symbols" stroke="none" stroke-width="1" fill="none" fill-rule="evenodd">
        <g id="national-guard">
            <g id="Group-2" transform="translate(1.000000, 1.000000)">
                <g id="Group" fill="#E31C3D">
                    <path d="M44,22 C44,34.1506076 34.1502514,44 21.9992043,44 C9.84974862,44 0,34.1506076 0,22 C0,9.84939236 9.84974862,0 21.9992043,0 C34.1502514,0 44,9.84939236 44,22" id="Fill-1-Copy-5"></path>
                </g>
                <g id="flag" transform="translate(8.000000, 8.000000)" fill="#FFFFFF" fill-rule="nonzero">
                    <path d="M18.9758333,5.48792487 C15.9987778,5.48792487 13.5400556,3.55553598 9.79711111,3.55553598 C8.41072222,3.55553598 7.16883333,3.79909154 6.01683333,4.22292487 C6.1764873,3.80596495 6.24443628,3.35950259 6.21605556,2.91392487 C6.11761111,1.33414709 4.82255556,0.0669804277 3.241,0.00264709435 C1.46361111,-0.069686239 0,1.34975821 0,3.11109154 C0,4.16809154 0.527611111,5.10136932 1.33333333,5.66359154 L1.33333333,27.1110915 C1.33333333,27.8474804 1.93027778,28.4444249 2.66666667,28.4444249 L3.55555556,28.4444249 C4.29194444,28.4444249 4.88888889,27.8474804 4.88888889,27.1110915 L4.88888889,21.8666471 C6.46172222,21.1964249 8.42122222,20.6376471 11.2463889,20.6376471 C14.2235,20.6376471 16.6821667,22.570036 20.4251111,22.570036 C23.1011667,22.570036 25.2399444,21.6648138 27.2309444,20.3001471 C27.7133333,19.969536 28,19.4205915 28,18.8358138 L28,5.33025821 C28,4.03064709 26.6517222,3.17081376 25.4730556,3.71825821 C23.5653889,4.60425821 21.2256111,5.48792487 18.9758333,5.48792487 Z" id="Shape"></path>
                </g>
            </g>
        </g>
    </g>
</svg>