<?xml version="1.0" encoding="UTF-8"?>
<svg width="46px" height="46px" viewBox="0 0 46 46" version="1.1" xmlns="http://www.w3.org/2000/svg" xmlns:xlink="http://www.w3.org/1999/xlink">
    <!-- Generator: Sketch 48.2 (47327) - http://www.bohemiancoding.com/sketch -->
    <title>native-americans</title>
    <desc>Created with Sketch.</desc>
    <defs></defs>
    <g id="Symbols" stroke="none" stroke-width="1" fill="none" fill-rule="evenodd">
        <g id="native-americans">
            <g id="Group-2" transform="translate(1.000000, 1.000000)">
                <g id="Group" fill="#5B616B">
                    <path d="M44,22 C44,34.1506076 34.1502514,44 21.9992043,44 C9.84974862,44 0,34.1506076 0,22 C0,9.84939236 9.84974862,0 21.9992043,0 C34.1502514,0 44,9.84939236 44,22" id="Fill-1-Copy-6"></path>
                </g>
                <g id="sun" transform="translate(7.000000, 6.000000)" fill="#FFFFFF" fill-rule="nonzero">
                    <path d="M16.1531633,0.774244898 L17.7153673,4.59422449 C17.9733061,5.22489796 18.7360408,5.47273469 19.3154082,5.11414286 L22.824551,2.94195918 C23.7729184,2.35493878 24.9556531,3.21422449 24.6903673,4.29759184 L23.7089388,8.30626531 C23.5468776,8.96810204 24.0183061,9.61695918 24.6978367,9.66734694 L28.8135918,9.97267347 C29.9258571,10.0552041 30.3776327,11.445551 29.5263061,12.166102 L26.3761224,14.8322449 C25.8560204,15.272449 25.8560204,16.0744286 26.3761224,16.5146327 L29.5263673,19.1808367 C30.3777551,19.9013878 29.9259796,21.2917347 28.8136531,21.3742653 L24.697898,21.6795918 C24.0183673,21.7299796 23.5469388,22.3788367 23.709,23.0406735 L24.6904286,27.0493469 C24.9556531,28.1327143 23.7729184,28.992 22.8246122,28.4049796 L19.3154694,26.2327959 C18.736102,25.8741429 17.9733061,26.1219796 17.7154286,26.7527143 L16.1532245,30.5726939 C15.7310204,31.6050612 14.269102,31.6050612 13.846898,30.5726939 L12.2846939,26.7527143 C12.0267551,26.1220408 11.2640204,25.8742041 10.6846531,26.2327959 L7.17544898,28.4049796 C6.22708163,28.992 5.04434694,28.1327143 5.30963265,27.0493469 L6.29106122,23.0406735 C6.45312245,22.3788367 5.98169388,21.7299796 5.30216327,21.6795918 L1.18640816,21.3742653 C0.0741428571,21.2917347 -0.377632653,19.9013878 0.473693878,19.1808367 L3.62387755,16.5146939 C4.14397959,16.0744898 4.14397959,15.2725102 3.62387755,14.8323061 L0.473632653,12.166102 C-0.377755102,11.445551 0.0740204082,10.0552041 1.18634694,9.97267347 L5.30210204,9.66734694 C5.98163265,9.61695918 6.45306122,8.96810204 6.291,8.30626531 L5.30957143,4.29759184 C5.04434694,3.21422449 6.22708163,2.35493878 7.17538776,2.94195918 L10.6845918,5.11414286 C11.2639592,5.47279592 12.0266939,5.22495918 12.2846327,4.59422449 L13.8468367,0.774244898 C14.2690408,-0.258061224 15.7309592,-0.258061224 16.1531633,0.774244898 Z M23.3265306,15.6734694 C23.3265306,11.0821837 19.5912245,7.34693878 15,7.34693878 C10.4087143,7.34693878 6.67346939,11.0821837 6.67346939,15.6734694 C6.67346939,20.2647551 10.4087143,24 15,24 C19.5912245,24 23.3265306,20.2647551 23.3265306,15.6734694 Z M21.3673469,15.6734694 C21.3673469,19.184449 18.5109796,22.0408163 15,22.0408163 C11.4890204,22.0408163 8.63265306,19.184449 8.63265306,15.6734694 C8.63265306,12.1624898 11.4890204,9.30612245 15,9.30612245 C18.5109796,9.30612245 21.3673469,12.1624898 21.3673469,15.6734694 Z" id="Shape"></path>
                </g>
            </g>
        </g>
    </g>
</svg>