<?xml version="1.0" encoding="UTF-8"?>
<svg width="46px" height="46px" viewBox="0 0 46 46" version="1.1" xmlns="http://www.w3.org/2000/svg" xmlns:xlink="http://www.w3.org/1999/xlink">
    <!-- Generator: Sketch 48.2 (47327) - http://www.bohemiancoding.com/sketch -->
    <title>peace-corps</title>
    <desc>Created with Sketch.</desc>
    <defs></defs>
    <g id="Symbols" stroke="none" stroke-width="1" fill="none" fill-rule="evenodd">
        <g id="peace-corps">
            <g id="Group-2" transform="translate(1.000000, 1.000000)">
                <g id="Group" fill="#4C2C92">
                    <path d="M44,22 C44,34.1506076 34.1502514,44 21.9992043,44 C9.84974862,44 0,34.1506076 0,22 C0,9.84939236 9.84974862,0 21.9992043,0 C34.1502514,0 44,9.84939236 44,22" id="Fill-1-Copy-7"></path>
                </g>
                <g id="globe" transform="translate(7.000000, 7.000000)" fill="#FFFFFF" fill-rule="nonzero">
                    <path d="M21.5452621,11.1290323 L29.4946573,11.1290323 C29.823629,12.3640524 29.9999395,13.661371 29.9999395,15 C29.9999395,16.338629 29.823629,17.6359476 29.4946573,18.8709677 L21.5452621,18.8709677 C21.856996,16.2671976 21.8439919,13.6242339 21.5452621,11.1290323 Z M10.7185887,20.8064516 C11.3644355,24.0532258 12.7250202,27.6117339 14.9600202,29.9995161 C14.9733871,29.9995766 14.9866331,30 15,30 C15.0133669,30 15.0266129,29.9995161 15.0399798,29.9995161 C17.2786089,27.6078024 18.6367742,24.0470565 19.2814113,20.8064516 L10.7185887,20.8064516 Z M21.2506452,9.19354839 L28.8344153,9.19354839 C26.9033468,4.59822581 22.7496774,1.16764113 17.71875,0.246471774 C19.5476613,2.85453629 20.6716331,6.07300403 21.2506452,9.19354839 Z M19.5964113,11.1290323 L10.4035887,11.1290323 C10.0806653,13.6641532 10.0803024,16.3328831 10.4035887,18.8709677 L19.5964718,18.8709677 C19.9193952,16.3357863 19.9197581,13.6671169 19.5964113,11.1290323 Z M8.74935484,20.8064516 L1.16558468,20.8064516 C3.09659274,25.4017742 7.2502621,28.8323589 12.2811895,29.7535282 C10.4517944,27.144496 9.32818548,23.9259073 8.74935484,20.8064516 Z M21.2506452,20.8064516 C20.6715121,23.9277218 19.5472379,27.1460081 17.71875,29.7535282 C22.7496774,28.8323589 26.9033468,25.4017742 28.8343548,20.8064516 L21.2506452,20.8064516 Z M19.2814113,9.19354839 C18.6355645,5.94677419 17.2749194,2.38826613 15.0399798,0.000483870968 C15.0266129,0.000483870968 15.0133669,0 15,0 C14.9866331,0 14.9733871,0.000483870968 14.9600202,0.000483870968 C12.7213911,2.39219758 11.3632258,5.95294355 10.7185887,9.19354839 L19.2814113,9.19354839 Z M0.505342742,11.1290323 C0.176310484,12.3640524 0,13.661371 0,15 C0,16.338629 0.176310484,17.6359476 0.505342742,18.8709677 L8.4547379,18.8709677 C8.15600806,16.3757661 8.14300403,13.7328024 8.4547379,11.1290323 L0.505342742,11.1290323 Z M8.74935484,9.19354839 C9.3284879,6.07245968 10.4526411,2.85423387 12.28125,0.246471774 C7.25032258,1.16764113 3.09665323,4.59822581 1.16558468,9.19354839 L8.74935484,9.19354839 Z" id="Shape"></path>
                </g>
            </g>
        </g>
    </g>
</svg>