<?xml version="1.0" encoding="UTF-8"?>
<svg width="46px" height="46px" viewBox="0 0 46 46" version="1.1" xmlns="http://www.w3.org/2000/svg" xmlns:xlink="http://www.w3.org/1999/xlink">
    <!-- Generator: Sketch 47 (45396) - http://www.bohemiancoding.com/sketch -->
    <title>peace-corps</title>
    <desc>Created with Sketch.</desc>
    <defs></defs>
    <g id="Symbols" stroke="none" stroke-width="1" fill="none" fill-rule="evenodd">
        <g id="peace-corps">
            <g id="Group" transform="translate(1.000000, 1.000000)">
                <path d="M44,22 C44,34.1506076 34.1502514,44 21.9992043,44 C9.84974862,44 0,34.1506076 0,22 C0,9.84939236 9.84974862,0 21.9992043,0 C34.1502514,0 44,9.84939236 44,22" id="Fill-1-Copy-7" fill="#4C2C92"></path>
                <g id="globe" transform="translate(9.000000, 9.000000)" fill-rule="nonzero" fill="#FFFFFF">
                    <path d="M13,0 C15.3585069,0 17.5336372,0.581163194 19.5253906,1.74348958 C21.5171441,2.90581597 23.094184,4.4828559 24.2565104,6.47460938 C25.4188368,8.46636285 26,10.6414931 26,13 C26,15.3585069 25.4188368,17.5336372 24.2565104,19.5253906 C23.094184,21.5171441 21.5171441,23.094184 19.5253906,24.2565104 C17.5336372,25.4188368 15.3585069,26 13,26 C10.6414931,26 8.46636285,25.4188368 6.47460938,24.2565104 C4.4828559,23.094184 2.90581597,21.5171441 1.74348958,19.5253906 C0.581163194,17.5336372 0,15.3585069 0,13 C0,10.6414931 0.581163194,8.46636285 1.74348958,6.47460938 C2.90581597,4.4828559 4.4828559,2.90581597 6.47460938,1.74348958 C8.46636285,0.581163194 10.6414931,0 13,0 Z M17.6380208,8.81901042 C17.6154514,8.83029514 17.561849,8.88389757 17.4772135,8.97981771 C17.3925781,9.07573785 17.3164062,9.12934028 17.2486979,9.140625 C17.2712674,9.140625 17.296658,9.11241319 17.3248698,9.05598958 C17.3530816,8.99956597 17.3812934,8.9375 17.4095052,8.86979167 C17.437717,8.80208333 17.4574653,8.76258681 17.46875,8.75130208 C17.5364583,8.67230903 17.6605903,8.58767361 17.8411458,8.49739583 C17.9991319,8.4296875 18.2925347,8.36197917 18.7213542,8.29427083 C19.1050347,8.20399306 19.3927951,8.26605903 19.5846354,8.48046875 C19.562066,8.45789931 19.6156684,8.38454861 19.7454427,8.26041667 C19.875217,8.13628472 19.9570312,8.06857639 19.9908854,8.05729167 C20.0247396,8.03472222 20.109375,8.0093316 20.2447917,7.98111979 C20.3802083,7.95290799 20.4648437,7.91059028 20.4986979,7.85416667 L20.5325521,7.48177083 C20.3971354,7.49305556 20.2983941,7.45355903 20.2363281,7.36328125 C20.1742622,7.27300347 20.1375868,7.15451389 20.1263021,7.0078125 C20.1263021,7.03038194 20.0924479,7.07552083 20.0247396,7.14322917 C20.0247396,7.06423611 19.999349,7.01909722 19.9485677,7.0078125 C19.8977865,6.99652778 19.8328993,7.00217014 19.7539062,7.02473958 C19.6749132,7.04730903 19.6241319,7.05295139 19.6015625,7.04166667 C19.4887153,7.0078125 19.4040799,6.96549479 19.3476562,6.91471354 C19.2912326,6.86393229 19.2460937,6.77083333 19.2122396,6.63541667 C19.1783854,6.5 19.155816,6.41536458 19.1445312,6.38151042 C19.1219618,6.32508681 19.0683594,6.26302083 18.983724,6.1953125 C18.8990885,6.12760417 18.8454861,6.07118056 18.8229167,6.02604167 C18.8116319,6.00347222 18.797526,5.97243924 18.780599,5.93294271 C18.7636719,5.89344618 18.7467448,5.85677083 18.7298177,5.82291667 C18.7128906,5.7890625 18.6903212,5.75802951 18.6621094,5.72981771 C18.6338976,5.7016059 18.6028646,5.6875 18.5690104,5.6875 C18.5351562,5.6875 18.4956597,5.71571181 18.4505208,5.77213542 C18.4053819,5.82855903 18.3630642,5.88498264 18.3235677,5.94140625 C18.2840712,5.99782986 18.2586806,6.02604167 18.2473958,6.02604167 C18.2135417,6.00347222 18.1796875,5.99500868 18.1458333,6.00065104 C18.1119792,6.0062934 18.0865885,6.01193576 18.0696615,6.01757812 C18.0527344,6.02322049 18.0273437,6.04014757 17.9934896,6.06835938 C17.9596354,6.09657118 17.9314236,6.11631944 17.9088542,6.12760417 C17.875,6.15017361 17.8270399,6.16710069 17.764974,6.17838542 C17.702908,6.18967014 17.6549479,6.20095486 17.6210937,6.21223958 C17.7903646,6.15581597 17.7847222,6.09375 17.6041667,6.02604167 C17.4913194,5.98090278 17.4010417,5.96397569 17.3333333,5.97526042 C17.4348958,5.93012153 17.4772135,5.86241319 17.4602865,5.77213542 C17.4433594,5.68185764 17.3953993,5.60286458 17.3164062,5.53515625 L17.4010417,5.53515625 C17.3897569,5.49001736 17.3417969,5.44205729 17.2571615,5.39127604 C17.172526,5.34049479 17.0737847,5.29253472 16.9609375,5.24739583 C16.8480903,5.20225694 16.7747396,5.16840278 16.7408854,5.14583333 C16.6506076,5.08940972 16.4587674,5.03580729 16.1653646,4.98502604 C15.8719618,4.93424479 15.6857639,4.93142361 15.6067708,4.9765625 C15.5503472,5.04427083 15.5249566,5.10351562 15.530599,5.15429688 C15.5362413,5.20507812 15.5588108,5.28407118 15.5983073,5.39127604 C15.6378038,5.4984809 15.6575521,5.56901042 15.6575521,5.60286458 C15.6688368,5.67057292 15.6378038,5.74392361 15.5644531,5.82291667 C15.4911024,5.90190972 15.4544271,5.96961806 15.4544271,6.02604167 C15.4544271,6.10503472 15.5334201,6.19249132 15.6914062,6.28841146 C15.8493924,6.3843316 15.905816,6.50564236 15.8606771,6.65234375 C15.8268229,6.74262153 15.7365451,6.83289931 15.5898437,6.92317708 C15.4431424,7.01345486 15.3528646,7.08116319 15.3190104,7.12630208 C15.2625868,7.21657986 15.2541233,7.32096354 15.2936198,7.43945312 C15.3331163,7.55794271 15.3923611,7.65104167 15.4713542,7.71875 C15.4939236,7.74131944 15.5023872,7.76388889 15.4967448,7.78645833 C15.4911024,7.80902778 15.4713542,7.8344184 15.4375,7.86263021 C15.4036458,7.89084201 15.3726128,7.91341146 15.344401,7.93033854 C15.3161892,7.94726562 15.2795139,7.96701389 15.234375,7.98958333 L15.1835937,8.0234375 C15.0594618,8.07986111 14.9437934,8.04600694 14.8365885,7.921875 C14.7293837,7.79774306 14.6532118,7.65104167 14.6080729,7.48177083 C14.5290799,7.19965278 14.4388021,7.03038194 14.3372396,6.97395833 C14.077691,6.88368056 13.9140625,6.88932292 13.8463542,6.99088542 C13.7899306,6.84418403 13.5585937,6.69748264 13.1523437,6.55078125 C12.8702257,6.44921875 12.5429687,6.42664931 12.1705729,6.48307292 C12.2382812,6.47178819 12.2382812,6.38715278 12.1705729,6.22916667 C12.0915799,6.05989583 11.984375,5.9921875 11.8489583,6.02604167 C11.8828125,5.95833333 11.9053819,5.85959201 11.9166667,5.72981771 C11.9279514,5.6000434 11.9335937,5.52387153 11.9335937,5.50130208 C11.9674479,5.35460069 12.0351562,5.22482639 12.1367187,5.11197917 C12.1480035,5.10069444 12.1875,5.05273438 12.2552083,4.96809896 C12.3229167,4.88346354 12.3765191,4.80729167 12.4160156,4.73958333 C12.4555122,4.671875 12.4583333,4.63802083 12.4244792,4.63802083 C12.8194444,4.68315972 13.1015625,4.62109375 13.2708333,4.45182292 C13.3272569,4.39539931 13.3921441,4.29947917 13.4654948,4.1640625 C13.5388455,4.02864583 13.5980903,3.93272569 13.6432292,3.87630208 C13.7447917,3.80859375 13.8237847,3.77756076 13.8802083,3.78320312 C13.9366319,3.78884549 14.0184462,3.81987847 14.125651,3.87630208 C14.2328559,3.93272569 14.3146701,3.9609375 14.3710937,3.9609375 C14.5290799,3.97222222 14.6165365,3.91015625 14.6334635,3.77473958 C14.6503906,3.63932292 14.6080729,3.52647569 14.5065104,3.43619792 C14.6419271,3.44748264 14.6588542,3.3515625 14.5572917,3.1484375 C14.5121528,3.06944444 14.4670139,3.01866319 14.421875,2.99609375 C14.2864583,2.95095486 14.1341146,2.97916667 13.9648437,3.08072917 C13.874566,3.12586806 13.8858507,3.17100694 13.9986979,3.21614583 C13.9874132,3.20486111 13.9338108,3.2641059 13.8378906,3.39388021 C13.7419705,3.52365451 13.6488715,3.62239583 13.5585937,3.69010417 C13.468316,3.7578125 13.3780382,3.72960069 13.2877604,3.60546875 C13.2764757,3.59418403 13.2454427,3.51801215 13.1946615,3.37695312 C13.1438802,3.2358941 13.0902778,3.15972222 13.0338542,3.1484375 C12.9435764,3.1484375 12.8532986,3.23307292 12.7630208,3.40234375 C12.796875,3.31206597 12.734809,3.22743056 12.5768229,3.1484375 C12.4188368,3.06944444 12.2834201,3.02430556 12.1705729,3.01302083 C12.3849826,2.87760417 12.3398437,2.72526042 12.0351562,2.55598958 C11.9561632,2.51085069 11.8404948,2.48263889 11.688151,2.47135417 C11.5358073,2.46006944 11.4257812,2.48263889 11.3580729,2.5390625 C11.3016493,2.61805556 11.2706163,2.68294271 11.264974,2.73372396 C11.2593316,2.78450521 11.2875434,2.8296441 11.3496094,2.86914062 C11.4116753,2.90863715 11.4709201,2.93967014 11.5273437,2.96223958 C11.5837674,2.98480903 11.6486545,3.00737847 11.7220052,3.02994792 C11.7953559,3.05251736 11.843316,3.06944444 11.8658854,3.08072917 C12.0238715,3.19357639 12.0690104,3.27256944 12.0013021,3.31770833 C11.9787326,3.32899306 11.9307726,3.34874132 11.8574219,3.37695312 C11.7840712,3.40516493 11.719184,3.43055556 11.6627604,3.453125 C11.6063368,3.47569444 11.5724826,3.49826389 11.5611979,3.52083333 C11.5273437,3.56597222 11.5273437,3.64496528 11.5611979,3.7578125 C11.5950521,3.87065972 11.5837674,3.94965278 11.5273437,3.99479167 C11.4709201,3.93836806 11.4201389,3.83962674 11.375,3.69856771 C11.3298611,3.55750868 11.2903646,3.46440972 11.2565104,3.41927083 C11.3355035,3.52083333 11.1944444,3.5546875 10.8333333,3.52083333 L10.6640625,3.50390625 C10.6189236,3.50390625 10.5286458,3.51519097 10.3932292,3.53776042 C10.2578125,3.56032986 10.1421441,3.56597222 10.046224,3.5546875 C9.95030382,3.54340278 9.87413194,3.49826389 9.81770833,3.41927083 C9.77256944,3.32899306 9.77256944,3.21614583 9.81770833,3.08072917 C9.82899306,3.03559028 9.8515625,3.02430556 9.88541667,3.046875 C9.84027778,3.01302083 9.77821181,2.9594184 9.69921875,2.88606771 C9.62022569,2.81271701 9.56380208,2.76475694 9.52994792,2.7421875 C9.01085069,2.91145833 8.48046875,3.14279514 7.93880208,3.43619792 C8.00651042,3.44748264 8.07421875,3.44184028 8.14192708,3.41927083 C8.19835069,3.39670139 8.27170139,3.36002604 8.36197917,3.30924479 C8.45225694,3.25846354 8.50868056,3.22743056 8.53125,3.21614583 C8.91493056,3.05815972 9.15190972,3.01866319 9.2421875,3.09765625 L9.32682292,3.01302083 C9.48480903,3.19357639 9.59765625,3.33463542 9.66536458,3.43619792 C9.58637153,3.39105903 9.41710069,3.38541667 9.15755208,3.41927083 C8.93185764,3.48697917 8.80772569,3.5546875 8.78515625,3.62239583 C8.86414931,3.7578125 8.89236111,3.859375 8.86979167,3.92708333 C8.82465278,3.89322917 8.75976562,3.83680556 8.67513021,3.7578125 C8.59049479,3.67881944 8.50868056,3.61675347 8.4296875,3.57161458 C8.35069444,3.52647569 8.26605903,3.49826389 8.17578125,3.48697917 C7.99522569,3.48697917 7.87109375,3.49262153 7.80338542,3.50390625 C6.15581597,4.40668403 4.82986111,5.65928819 3.82552083,7.26171875 C3.90451389,7.34071181 3.97222222,7.38585069 4.02864583,7.39713542 C4.07378472,7.40842014 4.10199653,7.45920139 4.11328125,7.54947917 C4.12456597,7.63975694 4.13867187,7.70182292 4.15559896,7.73567708 C4.17252604,7.76953125 4.23741319,7.75260417 4.35026042,7.68489583 C4.45182292,7.77517361 4.46875,7.88237847 4.40104167,8.00651042 C4.41232639,7.99522569 4.66059028,8.14756944 5.14583333,8.46354167 C5.36024306,8.65538194 5.47873264,8.77387153 5.50130208,8.81901042 C5.53515625,8.94314236 5.47873264,9.04470486 5.33203125,9.12369792 C5.32074653,9.10112847 5.26996528,9.05034722 5.1796875,8.97135417 C5.08940972,8.89236111 5.03862847,8.86979167 5.02734375,8.90364583 C4.99348958,8.96006944 4.99631076,9.06445312 5.03580729,9.21679688 C5.07530382,9.36914062 5.13454861,9.43967014 5.21354167,9.42838542 C5.13454861,9.42838542 5.08094618,9.51866319 5.05273437,9.69921875 C5.02452257,9.87977431 5.01041667,10.0800781 5.01041667,10.3001302 C5.01041667,10.5201823 5.00477431,10.6527778 4.99348958,10.6979167 L5.02734375,10.7148437 C4.99348958,10.8502604 5.02452257,11.0449219 5.12044271,11.2988281 C5.21636285,11.5527344 5.33767361,11.6627604 5.484375,11.6289062 C5.33767361,11.6627604 5.45052083,11.9053819 5.82291667,12.3567708 C5.890625,12.4470486 5.93576389,12.4978299 5.95833333,12.5091146 C5.9921875,12.531684 6.05989583,12.5740017 6.16145833,12.6360677 C6.26302083,12.6981337 6.34765625,12.7545573 6.41536458,12.8053385 C6.48307292,12.8561198 6.53949653,12.9153646 6.58463542,12.9830729 C6.62977431,13.0394965 6.68619792,13.1664497 6.75390625,13.3639323 C6.82161458,13.5614149 6.90060764,13.6940104 6.99088542,13.7617188 C6.96831597,13.8294271 7.0219184,13.9422743 7.15169271,14.1002604 C7.28146701,14.2582465 7.34071181,14.3880208 7.32942708,14.4895833 C7.31814236,14.4895833 7.30403646,14.4952257 7.28710937,14.5065104 C7.27018229,14.5177951 7.25607639,14.5234375 7.24479167,14.5234375 C7.27864583,14.6024306 7.36610243,14.6814236 7.50716146,14.7604167 C7.64822049,14.8394097 7.73567708,14.9127604 7.76953125,14.9804688 C7.78081597,15.0143229 7.79210069,15.0707465 7.80338542,15.1497396 C7.81467014,15.2287326 7.83159722,15.2907986 7.85416667,15.3359375 C7.87673611,15.3810764 7.921875,15.3923611 7.98958333,15.3697917 C8.01215278,15.1440972 7.87673611,14.7942708 7.58333333,14.3203125 C7.4140625,14.0381944 7.31814236,13.874566 7.29557292,13.8294271 C7.26171875,13.7730035 7.23068576,13.6855469 7.20247396,13.5670573 C7.17426215,13.4485677 7.14887153,13.3667535 7.12630208,13.3216146 C7.14887153,13.3216146 7.18272569,13.3300781 7.22786458,13.3470052 C7.27300347,13.3639323 7.32096354,13.3836806 7.37174479,13.40625 C7.42252604,13.4288194 7.46484375,13.4513889 7.49869792,13.4739583 C7.53255208,13.4965278 7.54383681,13.5134549 7.53255208,13.5247396 C7.49869792,13.6037326 7.50998264,13.702474 7.56640625,13.8209635 C7.62282986,13.9394531 7.69053819,14.0438368 7.76953125,14.1341146 C7.84852431,14.2243924 7.94444444,14.3315972 8.05729167,14.4557292 C8.17013889,14.5798611 8.23784722,14.6532118 8.26041667,14.6757812 C8.328125,14.7434896 8.40711806,14.8535156 8.49739583,15.0058594 C8.58767361,15.1582031 8.58767361,15.234375 8.49739583,15.234375 C8.59895833,15.234375 8.71180556,15.2936198 8.8359375,15.4121094 C8.96006944,15.530599 9.05598958,15.640625 9.12369792,15.7421875 C9.18012153,15.8324653 9.22526042,15.9791667 9.25911458,16.1822917 C9.29296875,16.3854167 9.32118056,16.5208333 9.34375,16.5885417 C9.36631944,16.6675347 9.41427951,16.7437066 9.48763021,16.8170573 C9.5609809,16.890408 9.63151042,16.9440104 9.69921875,16.9778646 L9.97005208,17.1132812 L10.1901042,17.2317708 C10.2465278,17.2543403 10.3509115,17.3135851 10.5032552,17.4095052 C10.655599,17.5054253 10.7769097,17.5703125 10.8671875,17.6041667 C10.9800347,17.6493056 11.0703125,17.671875 11.1380208,17.671875 C11.2057292,17.671875 11.2875434,17.6577691 11.3834635,17.6295573 C11.4793837,17.6013455 11.5555556,17.5815972 11.6119792,17.5703125 C11.78125,17.5477431 11.9448785,17.6323785 12.1028646,17.8242188 C12.2608507,18.016059 12.3793403,18.1345486 12.4583333,18.1796875 C12.8645833,18.3940972 13.1749132,18.4561632 13.3893229,18.3658854 C13.3667535,18.3771701 13.3695747,18.4194878 13.3977865,18.4928385 C13.4259983,18.5661892 13.4711372,18.6536458 13.5332031,18.7552083 C13.5952691,18.8567708 13.6460503,18.9385851 13.6855469,19.000651 C13.7250434,19.062717 13.7560764,19.1106771 13.7786458,19.1445312 C13.8350694,19.2122396 13.9366319,19.296875 14.0833333,19.3984375 C14.2300347,19.5 14.3315972,19.5846354 14.3880208,19.6523438 C14.4557292,19.6072049 14.4952257,19.5564236 14.5065104,19.5 C14.4726562,19.5902778 14.5121528,19.703125 14.625,19.8385417 C14.7378472,19.9739583 14.8394097,20.0303819 14.9296875,20.0078125 C15.0876736,19.9739583 15.1666667,19.7934028 15.1666667,19.4661458 C14.8168403,19.6354167 14.5403646,19.5338542 14.3372396,19.1614583 C14.3372396,19.1501736 14.3231337,19.1191406 14.2949219,19.0683594 C14.2667101,19.0175781 14.2441406,18.9696181 14.2272135,18.9244792 C14.2102865,18.8793403 14.1961806,18.8313802 14.1848958,18.780599 C14.1736111,18.7298177 14.1736111,18.6875 14.1848958,18.6536458 C14.1961806,18.6197917 14.2243924,18.6028646 14.2695312,18.6028646 C14.3710937,18.6028646 14.4275174,18.5831163 14.4388021,18.5436198 C14.4500868,18.5041233 14.4388021,18.4335938 14.4049479,18.3320312 C14.3710937,18.2304688 14.3485243,18.1571181 14.3372396,18.1119792 C14.3259549,18.0217014 14.2638889,17.9088542 14.1510417,17.7734375 C14.0381944,17.6380208 13.9704861,17.5533854 13.9479167,17.5195312 C13.8914931,17.6210938 13.8012153,17.6662326 13.6770833,17.6549479 C13.5529514,17.6436632 13.4626736,17.5928819 13.40625,17.5026042 C13.40625,17.5138889 13.3977865,17.5449219 13.3808594,17.5957031 C13.3639323,17.6464844 13.3554687,17.6831597 13.3554687,17.7057292 C13.2087674,17.7057292 13.1241319,17.7000868 13.1015625,17.6888021 C13.1128472,17.6549479 13.1269531,17.5562066 13.1438802,17.3925781 C13.1608073,17.2289497 13.1805556,17.1019965 13.203125,17.0117188 C13.2144097,16.9665799 13.2454427,16.8988715 13.296224,16.8085938 C13.3470052,16.718316 13.3893229,16.6365017 13.4231771,16.563151 C13.4570312,16.4898003 13.4796007,16.4192708 13.4908854,16.3515625 C13.5021701,16.2838542 13.4767795,16.2302517 13.4147135,16.1907552 C13.3526476,16.1512587 13.2539062,16.1371528 13.1184896,16.1484375 C12.9040799,16.1597222 12.7573785,16.2725694 12.6783854,16.4869792 C12.6671007,16.5208333 12.6501736,16.5800781 12.6276042,16.6647135 C12.6050347,16.749349 12.5768229,16.8142361 12.5429687,16.859375 C12.5091146,16.9045139 12.4583333,16.9440104 12.390625,16.9778646 C12.3116319,17.0117188 12.1762153,17.0230035 11.984375,17.0117188 C11.7925347,17.000434 11.6571181,16.9722222 11.578125,16.9270833 C11.4314236,16.8368056 11.3044705,16.6731771 11.1972656,16.4361979 C11.0900608,16.1992188 11.0364583,15.9904514 11.0364583,15.8098958 C11.0364583,15.6970486 11.0505642,15.547526 11.078776,15.3613281 C11.1069878,15.1751302 11.1239149,15.0340712 11.1295573,14.938151 C11.1351997,14.8422309 11.1041667,14.7039931 11.0364583,14.5234375 C11.0703125,14.5008681 11.1210937,14.4472656 11.1888021,14.3626302 C11.2565104,14.2779948 11.312934,14.21875 11.3580729,14.1848958 C11.3806424,14.1736111 11.406033,14.1651476 11.4342448,14.1595052 C11.4624566,14.1538628 11.4878472,14.1538628 11.5104167,14.1595052 C11.5329861,14.1651476 11.5555556,14.156684 11.578125,14.1341146 C11.6006944,14.1115451 11.6176215,14.077691 11.6289062,14.0325521 C11.6176215,14.0212674 11.5950521,14.0043403 11.5611979,13.9817708 C11.5273437,13.9479167 11.5047743,13.9309896 11.4934896,13.9309896 C11.5724826,13.9648437 11.7332899,13.9563802 11.9759115,13.905599 C12.218533,13.8548177 12.3736979,13.8632812 12.4414062,13.9309896 C12.6106771,14.0551215 12.734809,14.0438368 12.8138021,13.8971354 C12.8138021,13.8858507 12.7996962,13.8322483 12.7714844,13.7363281 C12.7432726,13.640408 12.7404514,13.5642361 12.7630208,13.5078125 C12.8194444,13.8125 12.9830729,13.8632812 13.2539062,13.6601562 C13.2877604,13.6940104 13.375217,13.7222222 13.516276,13.7447917 C13.6573351,13.7673611 13.7560764,13.7955729 13.8125,13.8294271 C13.8463542,13.8519965 13.8858507,13.8830295 13.9309896,13.922526 C13.9761285,13.9620226 14.0071615,13.9874132 14.0240885,13.9986979 C14.0410156,14.0099826 14.0692274,14.0071615 14.108724,13.9902344 C14.1482205,13.9733073 14.1961806,13.9366319 14.2526042,13.8802083 C14.3654514,14.0381944 14.4331597,14.1736111 14.4557292,14.2864583 C14.5798611,14.7378472 14.687066,14.9861111 14.7773437,15.03125 C14.8563368,15.0651042 14.9184028,15.0763889 14.9635417,15.0651042 C15.0086806,15.0538194 15.0340712,15.000217 15.0397135,14.9042969 C15.0453559,14.8083767 15.0453559,14.7293837 15.0397135,14.6673177 C15.0340712,14.6052517 15.0256076,14.5347222 15.0143229,14.4557292 L14.9973958,14.3203125 L14.9973958,14.015625 L14.9804687,13.8802083 C14.8111979,13.8463542 14.7068142,13.7786458 14.6673177,13.6770833 C14.6278212,13.5755208 14.6362847,13.4711372 14.6927083,13.3639323 C14.7491319,13.2567274 14.8337674,13.1523438 14.9466146,13.0507812 C14.9578993,13.0394965 15.0030382,13.0197483 15.0820312,12.9915365 C15.1610243,12.9633247 15.2484809,12.9266493 15.344401,12.8815104 C15.4403212,12.8363715 15.5108507,12.7912326 15.5559896,12.7460937 C15.7929687,12.531684 15.8776042,12.3342014 15.8098958,12.1536458 C15.8888889,12.1536458 15.9509549,12.1028646 15.9960937,12.0013021 C15.984809,12.0013021 15.9565972,11.984375 15.9114583,11.9505208 C15.8663194,11.9166667 15.8240017,11.8884549 15.7845052,11.8658854 C15.7450087,11.843316 15.7196181,11.8320312 15.7083333,11.8320312 C15.8098958,11.7756076 15.8211806,11.6853299 15.7421875,11.5611979 C15.7986111,11.5273438 15.8409288,11.4652778 15.8691406,11.375 C15.8973524,11.2847222 15.9396701,11.2282986 15.9960937,11.2057292 C16.0976562,11.3411458 16.2161458,11.3524306 16.3515625,11.2395833 C16.4418403,11.1493056 16.4474826,11.0590278 16.3684896,10.96875 C16.4249132,10.8897569 16.5405816,10.8305122 16.7154948,10.7910156 C16.890408,10.7515191 16.9947917,10.6979167 17.0286458,10.6302083 C17.1076389,10.6527778 17.1527778,10.6414931 17.1640625,10.5963542 C17.1753472,10.5512153 17.1809896,10.4835069 17.1809896,10.3932292 C17.1809896,10.3029514 17.1979167,10.2352431 17.2317708,10.1901042 C17.2769097,10.1336806 17.3615451,10.0828993 17.4856771,10.0377604 C17.609809,9.99262153 17.6831597,9.96440972 17.7057292,9.953125 L17.9934896,9.76692708 C18.0273437,9.72178819 18.0273437,9.69921875 17.9934896,9.69921875 C18.1966146,9.72178819 18.3715278,9.65972222 18.5182292,9.51302083 C18.6310764,9.38888889 18.5972222,9.27604167 18.4166667,9.17447917 C18.4505208,9.10677083 18.4335937,9.0531684 18.3658854,9.01367188 C18.2981771,8.97417535 18.2135417,8.94314236 18.1119792,8.92057292 C18.1458333,8.90928819 18.2107205,8.90646701 18.3066406,8.91210937 C18.4025608,8.91775174 18.4618056,8.90928819 18.484375,8.88671875 C18.6536458,8.77387153 18.6141493,8.68359375 18.3658854,8.61588542 C18.1740451,8.55946181 17.9314236,8.62717014 17.6380208,8.81901042 Z M14.8789062,23.6640625 C17.203559,23.2578125 19.1840278,22.1914062 20.8203125,20.4648437 C20.7864583,20.4309896 20.7159288,20.405599 20.608724,20.3886719 C20.5015191,20.3717448 20.4309896,20.3519965 20.3971354,20.3294271 C20.1940104,20.250434 20.0585938,20.2052951 19.9908854,20.1940104 C20.0021701,20.1150174 19.9880642,20.0416667 19.9485677,19.9739583 C19.9090712,19.90625 19.8639323,19.8554687 19.813151,19.8216146 C19.7623698,19.7877604 19.6918403,19.7426215 19.6015625,19.6861979 C19.5112847,19.6297743 19.4492188,19.5902778 19.4153646,19.5677083 C19.3927951,19.5451389 19.3532986,19.5112847 19.296875,19.4661458 C19.2404514,19.4210069 19.2009549,19.389974 19.1783854,19.3730469 C19.155816,19.3561198 19.1134983,19.3307292 19.0514323,19.296875 C18.9893663,19.2630208 18.9414062,19.2517361 18.9075521,19.2630208 C18.8736979,19.2743056 18.8172743,19.2799479 18.7382812,19.2799479 L18.6875,19.296875 C18.6536458,19.3081597 18.6226128,19.3222656 18.594401,19.3391927 C18.5661892,19.3561198 18.5351562,19.3730469 18.5013021,19.389974 C18.4674479,19.406901 18.4448785,19.4238281 18.4335938,19.4407552 C18.422309,19.4576823 18.422309,19.4717882 18.4335938,19.4830729 C18.1966146,19.2912326 17.9934896,19.1671007 17.8242188,19.1106771 C17.7677951,19.0993924 17.7057292,19.0683594 17.6380208,19.0175781 C17.5703125,18.9667969 17.5110677,18.9273003 17.4602865,18.8990885 C17.4095052,18.8708767 17.3530816,18.8624132 17.2910156,18.8736979 C17.2289497,18.8849826 17.1640625,18.9244792 17.0963542,18.9921875 C17.0399306,19.0486111 17.0060764,19.1332465 16.9947917,19.2460937 C16.9835069,19.358941 16.9722222,19.4322917 16.9609375,19.4661458 C16.8819444,19.4097222 16.8819444,19.3109809 16.9609375,19.1699219 C17.0399306,19.0288628 17.0512153,18.9244792 16.9947917,18.8567708 C16.9609375,18.7890625 16.9016927,18.7636719 16.8170573,18.780599 C16.7324219,18.797526 16.6647135,18.8229167 16.6139323,18.8567708 C16.563151,18.890625 16.4982639,18.9385851 16.4192708,19.000651 C16.3402778,19.062717 16.2894965,19.0993924 16.2669271,19.1106771 C16.2443576,19.1219618 16.1963976,19.1529948 16.1230469,19.203776 C16.0496962,19.2545573 16.0017361,19.296875 15.9791667,19.3307292 C15.9453125,19.3758681 15.9114583,19.4435764 15.8776042,19.5338542 C15.84375,19.6241319 15.8155382,19.6861979 15.7929688,19.7200521 C15.7703993,19.6749132 15.7055122,19.6382378 15.5983073,19.610026 C15.4911024,19.5818142 15.4375,19.5507812 15.4375,19.5169271 C15.4600694,19.6297743 15.4826389,19.8272569 15.5052083,20.109375 C15.5277778,20.3914931 15.5559896,20.6059028 15.5898438,20.7526042 C15.6688368,21.1024306 15.6011285,21.3732639 15.3867188,21.5651042 C15.0820312,21.8472222 14.9184028,22.0729167 14.8958333,22.2421875 C14.8506944,22.4904514 14.9184028,22.6371528 15.0989583,22.6822917 C15.0989583,22.7612847 15.0538194,22.8769531 14.9635417,23.0292969 C14.8732639,23.1816406 14.8337674,23.3029514 14.8450521,23.3932292 C14.8450521,23.4609375 14.8563368,23.5512153 14.8789062,23.6640625 Z" id="Shape"></path>
                </g>
            </g>
        </g>
    </g>
</svg>