<?xml version="1.0" encoding="UTF-8"?>
<svg width="46px" height="46px" viewBox="0 0 46 46" version="1.1" xmlns="http://www.w3.org/2000/svg" xmlns:xlink="http://www.w3.org/1999/xlink">
    <!-- Generator: Sketch 47 (45396) - http://www.bohemiancoding.com/sketch -->
    <title>public</title>
    <desc>Created with Sketch.</desc>
    <defs></defs>
    <g id="Symbols" stroke="none" stroke-width="1" fill="none" fill-rule="evenodd">
        <g id="public">
            <g id="Group" transform="translate(1.000000, 1.000000)">
                <circle id="Oval-3" fill="#02BFE7" cx="22" cy="22" r="22"></circle>
                <g id="users" transform="translate(8.000000, 9.000000)" fill-rule="nonzero" fill="#FFFFFF">
                    <path d="M8.60379464,13 C7.03683036,13.0483631 5.75520833,13.6674107 4.75892857,14.8571429 L2.81473214,14.8571429 C2.02157738,14.8571429 1.35416667,14.6612723 0.8125,14.2695312 C0.270833333,13.8777902 0,13.3046875 0,12.5502232 C0,9.13578869 0.599702381,7.42857143 1.79910714,7.42857143 C1.85714286,7.42857143 2.06752232,7.53013393 2.43024554,7.73325893 C2.79296875,7.93638393 3.26450893,8.14192708 3.84486607,8.34988839 C4.42522321,8.5578497 5.00074405,8.66183036 5.57142857,8.66183036 C6.21949405,8.66183036 6.86272321,8.55059524 7.50111607,8.328125 C7.45275298,8.6860119 7.42857143,9.00520833 7.42857143,9.28571429 C7.42857143,10.6302083 7.8203125,11.8683036 8.60379464,13 Z M24.1428571,22.2421875 C24.1428571,23.4029018 23.7898065,24.3193824 23.0837054,24.9916295 C22.3776042,25.6638765 21.4393601,26 20.2689732,26 L7.58816964,26 C6.41778274,26 5.47953869,25.6638765 4.7734375,24.9916295 C4.06733631,24.3193824 3.71428571,23.4029018 3.71428571,22.2421875 C3.71428571,21.7295387 3.7312128,21.2289807 3.76506696,20.7405134 C3.79892113,20.2520461 3.86662946,19.7248884 3.96819196,19.1590402 C4.06975446,18.593192 4.19791667,18.0684524 4.35267857,17.5848214 C4.50744048,17.1011905 4.71540179,16.6296503 4.9765625,16.1702009 C5.23772321,15.7107515 5.5375744,15.3190104 5.87611607,14.9949777 C6.21465774,14.6709449 6.6281622,14.4122024 7.11662946,14.21875 C7.60509673,14.0252976 8.14434524,13.9285714 8.734375,13.9285714 C8.83110119,13.9285714 9.0390625,14.0325521 9.35825893,14.2405134 C9.67745536,14.4484747 10.030506,14.6806176 10.4174107,14.936942 C10.8043155,15.1932664 11.3218006,15.4254092 11.9698661,15.6333705 C12.6179315,15.8413318 13.2708333,15.9453125 13.9285714,15.9453125 C14.5863095,15.9453125 15.2392113,15.8413318 15.8872768,15.6333705 C16.5353423,15.4254092 17.0528274,15.1932664 17.4397321,14.936942 C17.8266369,14.6806176 18.1796875,14.4484747 18.4988839,14.2405134 C18.8180804,14.0325521 19.0260417,13.9285714 19.1227679,13.9285714 C19.7127976,13.9285714 20.2520461,14.0252976 20.7405134,14.21875 C21.2289807,14.4122024 21.6424851,14.6709449 21.9810268,14.9949777 C22.3195685,15.3190104 22.6194196,15.7107515 22.8805804,16.1702009 C23.1417411,16.6296503 23.3497024,17.1011905 23.5044643,17.5848214 C23.6592262,18.0684524 23.7873884,18.593192 23.8889509,19.1590402 C23.9905134,19.7248884 24.0582217,20.2520461 24.0920759,20.7405134 C24.1259301,21.2289807 24.1428571,21.7295387 24.1428571,22.2421875 Z M9.28571429,3.71428571 C9.28571429,4.73958333 8.92299107,5.61495536 8.19754464,6.34040179 C7.47209821,7.06584821 6.59672619,7.42857143 5.57142857,7.42857143 C4.54613095,7.42857143 3.67075893,7.06584821 2.9453125,6.34040179 C2.21986607,5.61495536 1.85714286,4.73958333 1.85714286,3.71428571 C1.85714286,2.6889881 2.21986607,1.81361607 2.9453125,1.08816964 C3.67075893,0.362723214 4.54613095,0 5.57142857,0 C6.59672619,0 7.47209821,0.362723214 8.19754464,1.08816964 C8.92299107,1.81361607 9.28571429,2.6889881 9.28571429,3.71428571 Z M19.5,9.28571429 C19.5,10.8236607 18.9559152,12.1367187 17.8677455,13.2248884 C16.7795759,14.313058 15.4665179,14.8571429 13.9285714,14.8571429 C12.390625,14.8571429 11.077567,14.313058 9.98939732,13.2248884 C8.90122768,12.1367187 8.35714286,10.8236607 8.35714286,9.28571429 C8.35714286,7.74776786 8.90122768,6.43470982 9.98939732,5.34654018 C11.077567,4.25837054 12.390625,3.71428571 13.9285714,3.71428571 C15.4665179,3.71428571 16.7795759,4.25837054 17.8677455,5.34654018 C18.9559152,6.43470982 19.5,7.74776786 19.5,9.28571429 Z M27.8571429,12.5502232 C27.8571429,13.3046875 27.5863095,13.8777902 27.0446429,14.2695312 C26.5029762,14.6612723 25.8355655,14.8571429 25.0424107,14.8571429 L23.0982143,14.8571429 C22.1019345,13.6674107 20.8203125,13.0483631 19.2533482,13 C20.0368304,11.8683036 20.4285714,10.6302083 20.4285714,9.28571429 C20.4285714,9.00520833 20.4043899,8.6860119 20.3560268,8.328125 C20.9944196,8.55059524 21.6376488,8.66183036 22.2857143,8.66183036 C22.8563988,8.66183036 23.4319196,8.5578497 24.0122768,8.34988839 C24.5926339,8.14192708 25.0641741,7.93638393 25.4268973,7.73325893 C25.7896205,7.53013393 26,7.42857143 26.0580357,7.42857143 C27.2574405,7.42857143 27.8571429,9.13578869 27.8571429,12.5502232 Z M26,3.71428571 C26,4.73958333 25.6372768,5.61495536 24.9118304,6.34040179 C24.1863839,7.06584821 23.3110119,7.42857143 22.2857143,7.42857143 C21.2604167,7.42857143 20.3850446,7.06584821 19.6595982,6.34040179 C18.9341518,5.61495536 18.5714286,4.73958333 18.5714286,3.71428571 C18.5714286,2.6889881 18.9341518,1.81361607 19.6595982,1.08816964 C20.3850446,0.362723214 21.2604167,0 22.2857143,0 C23.3110119,0 24.1863839,0.362723214 24.9118304,1.08816964 C25.6372768,1.81361607 26,2.6889881 26,3.71428571 Z" id="Shape"></path>
                </g>
            </g>
        </g>
    </g>
</svg>