<?xml version="1.0" encoding="UTF-8"?>
<svg width="46px" height="46px" viewBox="0 0 46 46" version="1.1" xmlns="http://www.w3.org/2000/svg" xmlns:xlink="http://www.w3.org/1999/xlink">
    <!-- Generator: Sketch 47 (45396) - http://www.bohemiancoding.com/sketch -->
    <title>ses</title>
    <desc>Created with Sketch.</desc>
    <defs></defs>
    <g id="Symbols" stroke="none" stroke-width="1" fill="none" fill-rule="evenodd">
        <g id="ses">
            <g id="Group" transform="translate(1.000000, 1.000000)">
                <path d="M44,22 C44,34.1506076 34.1502514,44 21.9992043,44 C9.84974862,44 0,34.1506076 0,22 C0,9.84939236 9.84974862,0 21.9992043,0 C34.1502514,0 44,9.84939236 44,22" id="Fill-1-Copy-8" fill="#112E51"></path>
                <g id="briefcase" transform="translate(9.000000, 9.000000)" fill-rule="nonzero" fill="#FFFFFF">
                    <path d="M9.28571429,4.33333333 L16.7142857,4.33333333 L16.7142857,2.16666667 L9.28571429,2.16666667 L9.28571429,4.33333333 Z M26,15.1666667 L26,23.2916667 C26,24.0364583 25.7726935,24.6740451 25.3180804,25.2044271 C24.8634673,25.734809 24.3169643,26 23.6785714,26 L2.32142857,26 C1.68303571,26 1.13653274,25.734809 0.681919643,25.2044271 C0.227306548,24.6740451 0,24.0364583 0,23.2916667 L0,15.1666667 L9.75,15.1666667 L9.75,17.875 C9.75,18.1684028 9.84188988,18.422309 10.0256696,18.6367188 C10.2094494,18.8511285 10.4270833,18.9583333 10.6785714,18.9583333 L15.3214286,18.9583333 C15.5729167,18.9583333 15.7905506,18.8511285 15.9743304,18.6367188 C16.1581101,18.422309 16.25,18.1684028 16.25,17.875 L16.25,15.1666667 L26,15.1666667 Z M14.8571429,15.1666667 L14.8571429,17.3333333 L11.1428571,17.3333333 L11.1428571,15.1666667 L14.8571429,15.1666667 Z M26,7.04166667 L26,13.5416667 L0,13.5416667 L0,7.04166667 C0,6.296875 0.227306548,5.65928819 0.681919643,5.12890625 C1.13653274,4.59852431 1.68303571,4.33333333 2.32142857,4.33333333 L7.42857143,4.33333333 L7.42857143,1.625 C7.42857143,1.17361111 7.5639881,0.789930556 7.83482143,0.473958333 C8.10565476,0.157986111 8.43452381,0 8.82142857,0 L17.1785714,0 C17.5654762,0 17.8943452,0.157986111 18.1651786,0.473958333 C18.4360119,0.789930556 18.5714286,1.17361111 18.5714286,1.625 L18.5714286,4.33333333 L23.6785714,4.33333333 C24.3169643,4.33333333 24.8634673,4.59852431 25.3180804,5.12890625 C25.7726935,5.65928819 26,6.296875 26,7.04166667 Z" id="Shape"></path>
                </g>
            </g>
        </g>
    </g>
</svg>