<?xml version="1.0" encoding="UTF-8"?>
<svg width="46px" height="46px" viewBox="0 0 46 46" version="1.1" xmlns="http://www.w3.org/2000/svg" xmlns:xlink="http://www.w3.org/1999/xlink">
    <!-- Generator: Sketch 47 (45396) - http://www.bohemiancoding.com/sketch -->
    <title>students</title>
    <desc>Created with Sketch.</desc>
    <defs></defs>
    <g id="Symbols" stroke="none" stroke-width="1" fill="none" fill-rule="evenodd">
        <g id="students">
            <g id="Group" transform="translate(1.000000, 1.000000)">
                <path d="M44,22 C44,34.1506076 34.1502514,44 21.9992043,44 C9.84974862,44 0,34.1506076 0,22 C0,9.84939236 9.84974862,0 21.9992043,0 C34.1502514,0 44,9.84939236 44,22" id="Fill-1-Copy" fill="#FDB81E"></path>
                <g id="graduation-cap" transform="translate(5.000000, 9.000000)" fill-rule="nonzero" fill="#FFFFFF">
                    <path d="M25.7388393,11.984375 L26,17.3333333 C26.0386905,18.1119792 25.6421131,18.8342014 24.8102679,19.5 C23.9784226,20.1657986 22.8418899,20.6933594 21.4006696,21.0826823 C19.9594494,21.4720052 18.3973214,21.6666667 16.7142857,21.6666667 C15.03125,21.6666667 13.469122,21.4720052 12.0279018,21.0826823 C10.5866815,20.6933594 9.45014881,20.1657986 8.61830357,19.5 C7.78645833,18.8342014 7.38988095,18.1119792 7.42857143,17.3333333 L7.68973214,11.984375 L16.0178571,15.0481771 C16.2306548,15.1271701 16.4627976,15.1666667 16.7142857,15.1666667 C16.9657738,15.1666667 17.1979167,15.1271701 17.4107143,15.0481771 L25.7388393,11.984375 Z M33.4285714,6.5 C33.4285714,6.75954861 33.3221726,6.93446181 33.109375,7.02473958 L16.859375,12.9830729 C16.8206845,12.9943576 16.7723214,13 16.7142857,13 C16.65625,13 16.6078869,12.9943576 16.5691964,12.9830729 L7.109375,9.49609375 C6.69345238,9.87977431 6.3500744,10.5088976 6.07924107,11.3834635 C5.80840774,12.2580295 5.64397321,13.265191 5.5859375,14.4049479 C6.1953125,14.8111979 6.5,15.4262153 6.5,16.25 C6.5,17.0286458 6.21949405,17.6323785 5.65848214,18.0611979 L6.5,25.390625 C6.51934524,25.5486111 6.48065476,25.6896701 6.38392857,25.8138021 C6.296875,25.937934 6.18080357,26 6.03571429,26 L3.25,26 C3.10491071,26 2.98883929,25.937934 2.90178571,25.8138021 C2.80505952,25.6896701 2.76636905,25.5486111 2.78571429,25.390625 L3.62723214,18.0611979 C3.06622024,17.6323785 2.78571429,17.0286458 2.78571429,16.25 C2.78571429,15.4262153 3.1000744,14.7999132 3.72879464,14.3710938 C3.83519345,12.0351563 4.30915179,10.1731771 5.15066964,8.78515625 L0.319196429,7.02473958 C0.10639881,6.93446181 0,6.75954861 0,6.5 C0,6.24045139 0.10639881,6.06553819 0.319196429,5.97526042 L16.5691964,0.0169270833 C16.6078869,0.00564236111 16.65625,0 16.7142857,0 C16.7723214,0 16.8206845,0.00564236111 16.859375,0.0169270833 L33.109375,5.97526042 C33.3221726,6.06553819 33.4285714,6.24045139 33.4285714,6.5 Z" id="Shape"></path>
                </g>
            </g>
        </g>
    </g>
</svg>