<?xml version="1.0" encoding="UTF-8"?>
<svg width="46px" height="46px" viewBox="0 0 46 46" version="1.1" xmlns="http://www.w3.org/2000/svg" xmlns:xlink="http://www.w3.org/1999/xlink">
    <!-- Generator: Sketch 48.2 (47327) - http://www.bohemiancoding.com/sketch -->
    <title>students</title>
    <desc>Created with Sketch.</desc>
    <defs></defs>
    <g id="Symbols" stroke="none" stroke-width="1" fill="none" fill-rule="evenodd">
        <g id="students">
            <g id="Group-2" transform="translate(1.000000, 1.000000)">
                <g id="Group" fill="#FDB81E">
                    <path d="M44,22 C44,34.1506076 34.1502514,44 21.9992043,44 C9.84974862,44 0,34.1506076 0,22 C0,9.84939236 9.84974862,0 21.9992043,0 C34.1502514,0 44,9.84939236 44,22" id="Fill-1-Copy"></path>
                </g>
                <g id="book" transform="translate(9.000000, 7.000000)" fill="#FFFFFF" fill-rule="nonzero">
                    <path d="M26.25,21.09375 L26.25,1.40625 C26.25,0.626953125 25.6230469,0 24.84375,0 L5.625,0 C2.51953125,0 0,2.51953125 0,5.625 L0,24.375 C0,27.4804688 2.51953125,30 5.625,30 L24.84375,30 C25.6230469,30 26.25,29.3730469 26.25,28.59375 L26.25,27.65625 C26.25,27.2167969 26.0449219,26.8183594 25.7285156,26.5605469 C25.4824219,25.6582031 25.4824219,23.0859375 25.7285156,22.1835938 C26.0449219,21.9316406 26.25,21.5332031 26.25,21.09375 Z M7.5,7.8515625 C7.5,7.65820312 7.65820312,7.5 7.8515625,7.5 L20.2734375,7.5 C20.4667969,7.5 20.625,7.65820312 20.625,7.8515625 L20.625,9.0234375 C20.625,9.21679688 20.4667969,9.375 20.2734375,9.375 L7.8515625,9.375 C7.65820312,9.375 7.5,9.21679688 7.5,9.0234375 L7.5,7.8515625 Z M7.5,11.6015625 C7.5,11.4082031 7.65820312,11.25 7.8515625,11.25 L20.2734375,11.25 C20.4667969,11.25 20.625,11.4082031 20.625,11.6015625 L20.625,12.7734375 C20.625,12.9667969 20.4667969,13.125 20.2734375,13.125 L7.8515625,13.125 C7.65820312,13.125 7.5,12.9667969 7.5,12.7734375 L7.5,11.6015625 Z M22.3476563,26.25 L5.625,26.25 C4.58789062,26.25 3.75,25.4121094 3.75,24.375 C3.75,23.34375 4.59375,22.5 5.625,22.5 L22.3476563,22.5 C22.2363281,23.5019531 22.2363281,25.2480469 22.3476563,26.25 Z" id="Shape"></path>
                </g>
            </g>
        </g>
    </g>
</svg>