<?xml version="1.0" encoding="UTF-8"?>
<svg width="46px" height="46px" viewBox="0 0 46 46" version="1.1" xmlns="http://www.w3.org/2000/svg" xmlns:xlink="http://www.w3.org/1999/xlink">
    <!-- Generator: Sketch 47 (45396) - http://www.bohemiancoding.com/sketch -->
    <title>veterans</title>
    <desc>Created with Sketch.</desc>
    <defs></defs>
    <g id="Symbols" stroke="none" stroke-width="1" fill="none" fill-rule="evenodd">
        <g id="veterans">
            <g id="Group" transform="translate(1.000000, 1.000000)">
                <path d="M44,22 C44,34.1506076 34.1502514,44 21.9992043,44 C9.84974862,44 0,34.1506076 0,22 C0,9.84939236 9.84974862,0 21.9992043,0 C34.1502514,0 44,9.84939236 44,22" id="Fill-1" fill="#008647"></path>
                <g id="shield" transform="translate(12.000000, 9.000000)" fill-rule="nonzero" fill="#FFFFFF">
                    <path d="M16.2714281,14.5166663 L16.2714281,3.3499999 L9.5714283,3.3499999 L9.5714283,23.1882806 C10.7578866,22.4554681 11.8197169,21.6586799 12.7569193,20.7979161 C15.0999252,18.6576384 16.2714281,16.5638884 16.2714281,14.5166663 Z M19.1428566,1.11666663 L19.1428566,14.5166663 C19.1428566,15.5170134 18.9758551,16.5086367 18.6418521,17.491536 C18.3078492,18.4744352 17.8940843,19.346831 17.4005575,20.1087234 C16.9070308,20.8706157 16.3187867,21.6121522 15.6358254,22.3333327 C14.9528642,23.0545132 14.3222466,23.6535584 13.7439728,24.1304681 C13.165699,24.6073778 12.5624996,25.0581156 11.9343747,25.4826816 C11.3062497,25.9072475 10.8600815,26.1951381 10.5958702,26.3463534 C10.3316589,26.4975687 10.1197914,26.6138881 9.96026757,26.6953117 C9.84062472,26.7651034 9.71101163,26.7999992 9.5714283,26.7999992 C9.43184497,26.7999992 9.30223188,26.7651034 9.18258902,26.6953117 C9.02306522,26.6138881 8.81119767,26.4975687 8.54698636,26.3463534 C8.28277506,26.1951381 7.83660692,25.9072475 7.20848194,25.4826816 C6.58035696,25.0581156 5.97715757,24.6073778 5.39888377,24.1304681 C4.82060998,23.6535584 4.18999244,23.0545132 3.50703115,22.3333327 C2.82406986,21.6121522 2.23582583,20.8706157 1.74229906,20.1087234 C1.24877229,19.346831 0.835007417,18.4744352 0.50100445,17.491536 C0.167001483,16.5086367 0,15.5170134 0,14.5166663 L0,1.11666663 C0,0.814236088 0.0947172592,0.552517345 0.284151778,0.331510407 C0.473586296,0.110503469 0.697916647,0 0.95714283,0 L18.1857138,0 C18.44494,0 18.6692703,0.110503469 18.8587048,0.331510407 C19.0481393,0.552517345 19.1428566,0.814236088 19.1428566,1.11666663 Z" id="Shape"></path>
                </g>
            </g>
        </g>
    </g>
</svg>