<svg xmlns="http://www.w3.org/2000/svg" xmlns:xlink="http://www.w3.org/1999/xlink" width="46" height="46" version="1.1" viewBox="0 0 46 46"><title>veterans</title><desc>Created with Sketch.</desc><g id="Symbols" fill="none" fill-rule="evenodd" stroke="none" stroke-width="1"><g id="veterans"><g id="Group-2" transform="translate(1.000000, 1.000000)"><g id="Group" fill="#008647"><path id="Fill-1" d="M44,22 C44,34.1506076 34.1502514,44 21.9992043,44 C9.84974862,44 0,34.1506076 0,22 C0,9.84939236 9.84974862,0 21.9992043,0 C34.1502514,0 44,9.84939236 44,22"/></g><g id="shield-alt" fill="#FFF" fill-rule="nonzero" transform="translate(8.000000, 7.000000)"><path id="Shape" d="M28,7.46666667 C28,20.3747833 20.0705167,27.5709583 15.0768917,29.6513 C14.3876622,29.9384782 13.6122795,29.9384782 12.92305,29.6513 C6.678875,27.049925 0,19.045075 0,7.46666667 C-1.96254898e-06,6.33629013 0.679678559,5.31678086 1.72310833,4.88203333 L12.9231083,0.215366667 C13.6123378,-0.0718115741 14.3877205,-0.0718115741 15.07695,0.215366667 L26.27695,4.88203333 C27.3203569,5.31679896 28.0000118,6.33630429 28,7.46666667 Z M14,26.034925 L14.00385,26.0369083 C19.471725,23.3133833 24.066175,16.9189417 24.2598417,8.08605 L14,3.81109167 L14,26.034925 Z"/></g></g></g></g></svg>