<svg style="display: none;" version="1.1" xmlns="http://www.w3.org/2000/svg" xmlns:xlink="http://www.w3.org/1999/xlink">
  <defs>
    <symbol id="hiring-path-public" viewBox="0 0 46 46">
      <title>public</title>
      <g id="Symbols" stroke="none" stroke-width="1" fill="none" fill-rule="evenodd">
          <g id="public">
              <g id="Group" transform="translate(1.000000, 1.000000)">
                  <circle id="Oval-3" fill="#02BFE7" cx="22" cy="22" r="22"></circle>
                  <g id="users" transform="translate(7.000000, 8.000000)" fill-rule="nonzero" fill="#FFFFFF">
                      <path d="M9.265625,14 C7.578125,14.0520833 6.19791667,14.71875 5.125,16 L3.03125,16 C2.17708333,16 1.45833333,15.7890625 0.875,15.3671875 C0.291666667,14.9453125 0,14.328125 0,13.515625 C0,9.83854167 0.645833333,8 1.9375,8 C2,8 2.2265625,8.109375 2.6171875,8.328125 C3.0078125,8.546875 3.515625,8.76822917 4.140625,8.9921875 C4.765625,9.21614583 5.38541667,9.328125 6,9.328125 C6.69791667,9.328125 7.390625,9.20833333 8.078125,8.96875 C8.02604167,9.35416667 8,9.69791667 8,10 C8,11.4479167 8.421875,12.78125 9.265625,14 Z M26,23.953125 C26,25.203125 25.6197917,26.1901042 24.859375,26.9140625 C24.0989583,27.6380208 23.0885417,28 21.828125,28 L8.171875,28 C6.91145833,28 5.90104167,27.6380208 5.140625,26.9140625 C4.38020833,26.1901042 4,25.203125 4,23.953125 C4,23.4010417 4.01822917,22.8619792 4.0546875,22.3359375 C4.09114583,21.8098958 4.1640625,21.2421875 4.2734375,20.6328125 C4.3828125,20.0234375 4.52083333,19.4583333 4.6875,18.9375 C4.85416667,18.4166667 5.078125,17.9088542 5.359375,17.4140625 C5.640625,16.9192708 5.96354167,16.4973958 6.328125,16.1484375 C6.69270833,15.7994792 7.13802083,15.5208333 7.6640625,15.3125 C8.19010417,15.1041667 8.77083333,15 9.40625,15 C9.51041667,15 9.734375,15.1119792 10.078125,15.3359375 C10.421875,15.5598958 10.8020833,15.8098958 11.21875,16.0859375 C11.6354167,16.3619792 12.1927083,16.6119792 12.890625,16.8359375 C13.5885417,17.0598958 14.2916667,17.171875 15,17.171875 C15.7083333,17.171875 16.4114583,17.0598958 17.109375,16.8359375 C17.8072917,16.6119792 18.3645833,16.3619792 18.78125,16.0859375 C19.1979167,15.8098958 19.578125,15.5598958 19.921875,15.3359375 C20.265625,15.1119792 20.4895833,15 20.59375,15 C21.2291667,15 21.8098958,15.1041667 22.3359375,15.3125 C22.8619792,15.5208333 23.3072917,15.7994792 23.671875,16.1484375 C24.0364583,16.4973958 24.359375,16.9192708 24.640625,17.4140625 C24.921875,17.9088542 25.1458333,18.4166667 25.3125,18.9375 C25.4791667,19.4583333 25.6171875,20.0234375 25.7265625,20.6328125 C25.8359375,21.2421875 25.9088542,21.8098958 25.9453125,22.3359375 C25.9817708,22.8619792 26,23.4010417 26,23.953125 Z M10,4 C10,5.10416667 9.609375,6.046875 8.828125,6.828125 C8.046875,7.609375 7.10416667,8 6,8 C4.89583333,8 3.953125,7.609375 3.171875,6.828125 C2.390625,6.046875 2,5.10416667 2,4 C2,2.89583333 2.390625,1.953125 3.171875,1.171875 C3.953125,0.390625 4.89583333,0 6,0 C7.10416667,0 8.046875,0.390625 8.828125,1.171875 C9.609375,1.953125 10,2.89583333 10,4 Z M21,10 C21,11.65625 20.4140625,13.0703125 19.2421875,14.2421875 C18.0703125,15.4140625 16.65625,16 15,16 C13.34375,16 11.9296875,15.4140625 10.7578125,14.2421875 C9.5859375,13.0703125 9,11.65625 9,10 C9,8.34375 9.5859375,6.9296875 10.7578125,5.7578125 C11.9296875,4.5859375 13.34375,4 15,4 C16.65625,4 18.0703125,4.5859375 19.2421875,5.7578125 C20.4140625,6.9296875 21,8.34375 21,10 Z M30,13.515625 C30,14.328125 29.7083333,14.9453125 29.125,15.3671875 C28.5416667,15.7890625 27.8229167,16 26.96875,16 L24.875,16 C23.8020833,14.71875 22.421875,14.0520833 20.734375,14 C21.578125,12.78125 22,11.4479167 22,10 C22,9.69791667 21.9739583,9.35416667 21.921875,8.96875 C22.609375,9.20833333 23.3020833,9.328125 24,9.328125 C24.6145833,9.328125 25.234375,9.21614583 25.859375,8.9921875 C26.484375,8.76822917 26.9921875,8.546875 27.3828125,8.328125 C27.7734375,8.109375 28,8 28.0625,8 C29.3541667,8 30,9.83854167 30,13.515625 Z M28,4 C28,5.10416667 27.609375,6.046875 26.828125,6.828125 C26.046875,7.609375 25.1041667,8 24,8 C22.8958333,8 21.953125,7.609375 21.171875,6.828125 C20.390625,6.046875 20,5.10416667 20,4 C20,2.89583333 20.390625,1.953125 21.171875,1.171875 C21.953125,0.390625 22.8958333,0 24,0 C25.1041667,0 26.046875,0.390625 26.828125,1.171875 C27.609375,1.953125 28,2.89583333 28,4 Z" id="Shape"></path>
                  </g>
              </g>
          </g>
      </g>
    </symbol>
    <symbol id="hiring-path-federal-employees" viewBox="0 0 48 48">
      <title>federal-employees</title>
      <g id="Symbols" stroke="none" stroke-width="1" fill="none" fill-rule="evenodd">
          <g id="federal-employees">
              <g id="Group" transform="translate(2.000000, 2.000000)">
                  <circle id="Oval-3" fill="#112E51" cx="22" cy="22" r="22"></circle>
                  <g id="institution" transform="translate(7.000000, 9.000000)" fill-rule="nonzero" fill="#FFFFFF">
                      <path d="M15,0 L30,5.625 L30,7.5 L28,7.5 C28,7.75390625 27.8932292,7.97363281 27.6796875,8.15917969 C27.4661458,8.34472656 27.2135417,8.4375 26.921875,8.4375 L3.078125,8.4375 C2.78645833,8.4375 2.53385417,8.34472656 2.3203125,8.15917969 C2.10677083,7.97363281 2,7.75390625 2,7.5 L0,7.5 L0,5.625 L15,0 Z M4,9.375 L8,9.375 L8,20.625 L10,20.625 L10,9.375 L14,9.375 L14,20.625 L16,20.625 L16,9.375 L20,9.375 L20,20.625 L22,20.625 L22,9.375 L26,9.375 L26,20.625 L26.921875,20.625 C27.2135417,20.625 27.4661458,20.7177734 27.6796875,20.9033203 C27.8932292,21.0888672 28,21.3085938 28,21.5625 L28,22.5 L2,22.5 L2,21.5625 C2,21.3085938 2.10677083,21.0888672 2.3203125,20.9033203 C2.53385417,20.7177734 2.78645833,20.625 3.078125,20.625 L4,20.625 L4,9.375 Z M28.921875,23.4375 C29.2135417,23.4375 29.4661458,23.5302734 29.6796875,23.7158203 C29.8932292,23.9013672 30,24.1210938 30,24.375 L30,26.25 L0,26.25 L0,24.375 C0,24.1210938 0.106770833,23.9013672 0.3203125,23.7158203 C0.533854167,23.5302734 0.786458333,23.4375 1.078125,23.4375 L28.921875,23.4375 Z" id="Shape"></path>
                  </g>
              </g>
          </g>
      </g>
    </symbol>
  </defs>
</svg>
