<?xml version="1.0" encoding="UTF-8"?>
<svg width="44px" height="44px" viewBox="0 0 44 44" version="1.1" xmlns="http://www.w3.org/2000/svg" xmlns:xlink="http://www.w3.org/1999/xlink">
    <!-- Generator: Sketch 47 (45396) - http://www.bohemiancoding.com/sketch -->
    <title>veterans</title>
    <desc>Created with Sketch.</desc>
    <defs></defs>
    <g id="Symbols" stroke="none" stroke-width="1" fill="none" fill-rule="evenodd">
        <g id="veterans">
            <path d="M44,22 C44,34.1506076 34.1502514,44 21.9992043,44 C9.84974862,44 0,34.1506076 0,22 C0,9.84939236 9.84974862,0 21.9992043,0 C34.1502514,0 44,9.84939236 44,22" id="Fill-1" fill="#008647"></path>
            <g id="shield" transform="translate(14.000000, 10.000000)" fill-rule="nonzero" fill="#FFFFFF">
                <path d="M14.45,12.8916667 L14.45,2.975 L8.5,2.975 L8.5,20.5925781 C9.55364583,19.9417969 10.4966146,19.2342014 11.3289062,18.4697917 C13.4096354,16.5690972 14.45,14.7097222 14.45,12.8916667 Z M17,0.991666667 L17,12.8916667 C17,13.7800347 16.8516927,14.6606554 16.5550781,15.5335286 C16.2584635,16.4064019 15.8910156,17.1811415 15.4527344,17.8577474 C15.0144531,18.5343533 14.4920573,19.1928819 13.8855469,19.8333333 C13.2790365,20.4737847 12.7190104,21.0057726 12.2054688,21.4292969 C11.6919271,21.8528212 11.15625,22.2531033 10.5984375,22.6301432 C10.040625,23.0071832 9.64440104,23.2628472 9.40976562,23.3971354 C9.17513021,23.5314236 8.98697917,23.6347222 8.8453125,23.7070312 C8.7390625,23.7690104 8.62395833,23.8 8.5,23.8 C8.37604167,23.8 8.2609375,23.7690104 8.1546875,23.7070312 C8.01302083,23.6347222 7.82486979,23.5314236 7.59023437,23.3971354 C7.35559896,23.2628472 6.959375,23.0071832 6.4015625,22.6301432 C5.84375,22.2531033 5.30807292,21.8528212 4.79453125,21.4292969 C4.28098958,21.0057726 3.72096354,20.4737847 3.11445312,19.8333333 C2.50794271,19.1928819 1.98554687,18.5343533 1.54726563,17.8577474 C1.10898437,17.1811415 0.741536458,16.4064019 0.444921875,15.5335286 C0.148307292,14.6606554 0,13.7800347 0,12.8916667 L0,0.991666667 C0,0.723090278 0.0841145833,0.490668403 0.25234375,0.294401042 C0.420572917,0.0981336806 0.619791667,0 0.85,0 L16.15,0 C16.3802083,0 16.5794271,0.0981336806 16.7476562,0.294401042 C16.9158854,0.490668403 17,0.723090278 17,0.991666667 Z" id="Shape"></path>
            </g>
        </g>
    </g>
</svg>