<svg xmlns="http://www.w3.org/2000/svg" style="display:none;">
  <symbol viewBox="0 0 18 28" id="angle-down">
    <title>angle-down</title>
    <path class="usajobs-icon__path" d="M16.797 11.5c0 0.125-0.063 0.266-0.156 0.359l-7.281 7.281c-0.094 0.094-0.234 0.156-0.359 0.156s-0.266-0.063-0.359-0.156l-7.281-7.281c-0.094-0.094-0.156-0.234-0.156-0.359s0.063-0.266 0.156-0.359l0.781-0.781c0.094-0.094 0.219-0.156 0.359-0.156 0.125 0 0.266 0.063 0.359 0.156l6.141 6.141 6.141-6.141c0.094-0.094 0.234-0.156 0.359-0.156s0.266 0.063 0.359 0.156l0.781 0.781c0.094 0.094 0.156 0.234 0.156 0.359z"
    /> </symbol>
  <symbol viewBox="0 0 11 28" id="angle-left">
    <title>angle-left</title>
    <path class="usajobs-icon__path" d="M9.797 8.5c0 0.125-0.063 0.266-0.156 0.359l-6.141 6.141 6.141 6.141c0.094 0.094 0.156 0.234 0.156 0.359s-0.063 0.266-0.156 0.359l-0.781 0.781c-0.094 0.094-0.234 0.156-0.359 0.156s-0.266-0.063-0.359-0.156l-7.281-7.281c-0.094-0.094-0.156-0.234-0.156-0.359s0.063-0.266 0.156-0.359l7.281-7.281c0.094-0.094 0.234-0.156 0.359-0.156s0.266 0.063 0.359 0.156l0.781 0.781c0.094 0.094 0.156 0.219 0.156 0.359z"
    /> </symbol>
  <symbol viewBox="0 0 9 28" id="angle-right">
    <title>angle-right</title>
    <path class="usajobs-icon__path" d="M9.297 15c0 0.125-0.063 0.266-0.156 0.359l-7.281 7.281c-0.094 0.094-0.234 0.156-0.359 0.156s-0.266-0.063-0.359-0.156l-0.781-0.781c-0.094-0.094-0.156-0.219-0.156-0.359 0-0.125 0.063-0.266 0.156-0.359l6.141-6.141-6.141-6.141c-0.094-0.094-0.156-0.234-0.156-0.359s0.063-0.266 0.156-0.359l0.781-0.781c0.094-0.094 0.234-0.156 0.359-0.156s0.266 0.063 0.359 0.156l7.281 7.281c0.094 0.094 0.156 0.234 0.156 0.359z"
    /> </symbol>
  <symbol viewBox="0 0 18 28" id="angle-up">
    <title>angle-up</title>
    <path class="usajobs-icon__path" d="M16.797 18.5c0 0.125-0.063 0.266-0.156 0.359l-0.781 0.781c-0.094 0.094-0.219 0.156-0.359 0.156-0.125 0-0.266-0.063-0.359-0.156l-6.141-6.141-6.141 6.141c-0.094 0.094-0.234 0.156-0.359 0.156s-0.266-0.063-0.359-0.156l-0.781-0.781c-0.094-0.094-0.156-0.234-0.156-0.359s0.063-0.266 0.156-0.359l7.281-7.281c0.094-0.094 0.234-0.156 0.359-0.156s0.266 0.063 0.359 0.156l7.281 7.281c0.094 0.094 0.156 0.234 0.156 0.359z"
    /> </symbol>
  <symbol viewBox="0 0 28 28" id="archive">
    <title>archive</title>
    <path class="usajobs-icon__path" d="M17 13c0-0.547-0.453-1-1-1h-4c-0.547 0-1 0.453-1 1s0.453 1 1 1h4c0.547 0 1-0.453 1-1zM26 10v15c0 0.547-0.453 1-1 1h-22c-0.547 0-1-0.453-1-1v-15c0-0.547 0.453-1 1-1h22c0.547 0 1 0.453 1 1zM27 3v4c0 0.547-0.453 1-1 1h-24c-0.547 0-1-0.453-1-1v-4c0-0.547 0.453-1 1-1h24c0.547 0 1 0.453 1 1z"
    /> </symbol>
  <symbol viewBox="0 0 444.8 444.8" id="arrow-down">
    <title>arrow-down</title>
    <path class="arrow-down-path" d="M248.1 352L434 165.9c7.2-6.9 10.8-15.4 10.8-25.7 0-10.3-3.6-18.8-10.8-25.7l-21.4-21.7c-7-7-15.6-10.6-25.7-10.6-9.9 0-18.6 3.5-26 10.6L222.4 231.5 83.7 92.8c-7-7-15.6-10.6-25.7-10.6-9.9 0-18.6 3.5-26 10.6l-21.4 21.7c-7 7-10.6 15.6-10.6 25.7s3.5 18.7 10.6 25.7L196.4 352c7.4 7 16.1 10.6 26 10.6 10.1 0 18.7-3.5 25.7-10.6z"
    />
  </symbol>
  <symbol viewBox="0 0 25 28" id="arrow-left">
    <title>arrow-left</title>
    <path class="usajobs-icon__path" d="M24 14v2c0 1.062-0.703 2-1.828 2h-11l4.578 4.594c0.375 0.359 0.594 0.875 0.594 1.406s-0.219 1.047-0.594 1.406l-1.172 1.188c-0.359 0.359-0.875 0.578-1.406 0.578s-1.047-0.219-1.422-0.578l-10.172-10.187c-0.359-0.359-0.578-0.875-0.578-1.406s0.219-1.047 0.578-1.422l10.172-10.156c0.375-0.375 0.891-0.594 1.422-0.594s1.031 0.219 1.406 0.594l1.172 1.156c0.375 0.375 0.594 0.891 0.594 1.422s-0.219 1.047-0.594 1.422l-4.578 4.578h11c1.125 0 1.828 0.938 1.828 2z"
    /> </symbol>
  <symbol viewBox="0 0 444.819 444.819" id="arrow-right">
    <title>arrow-right</title>
    <path class="usajobs-icon__path" d="M352.025 196.712L165.885 10.848C159.028 3.615 150.468 0 140.185 0s-18.84 3.62-25.696 10.848l-21.7 21.416c-7.045 7.043-10.567 15.604-10.567 25.692 0 9.897 3.52 18.56 10.566 25.98L231.544 222.41 92.785 361.168c-7.04 7.043-10.563 15.604-10.563 25.693 0 9.9 3.52 18.566 10.564 25.98l21.7 21.417c7.043 7.043 15.612 10.564 25.697 10.564 10.09 0 18.656-3.52 25.697-10.564L352.025 248.39c7.046-7.423 10.57-16.084 10.57-25.98.002-10.09-3.524-18.655-10.57-25.698z"
    />
  </symbol>
  <symbol viewBox="0 0 26 28" id="arrow-up">
    <title>arrow-up</title>
    <path class="usajobs-icon__path" d="M25.172 15.172c0 0.531-0.219 1.031-0.578 1.406l-1.172 1.172c-0.375 0.375-0.891 0.594-1.422 0.594s-1.047-0.219-1.406-0.594l-4.594-4.578v11c0 1.125-0.938 1.828-2 1.828h-2c-1.062 0-2-0.703-2-1.828v-11l-4.594 4.578c-0.359 0.375-0.875 0.594-1.406 0.594s-1.047-0.219-1.406-0.594l-1.172-1.172c-0.375-0.375-0.594-0.875-0.594-1.406s0.219-1.047 0.594-1.422l10.172-10.172c0.359-0.375 0.875-0.578 1.406-0.578s1.047 0.203 1.422 0.578l10.172 10.172c0.359 0.375 0.578 0.891 0.578 1.422z"
    /> </symbol>
  <symbol viewBox="0 0 26 28" id="asterisk">
    <title>asterisk</title>
    <path class="usajobs-icon__path" d="M23.156 16.406c0.953 0.547 1.281 1.781 0.734 2.734l-1 1.719c-0.547 0.953-1.781 1.281-2.734 0.734l-4.156-2.391v4.797c0 1.094-0.906 2-2 2h-2c-1.094 0-2-0.906-2-2v-4.797l-4.156 2.391c-0.953 0.547-2.187 0.219-2.734-0.734l-1-1.719c-0.547-0.953-0.219-2.188 0.734-2.734l4.156-2.406-4.156-2.406c-0.953-0.547-1.281-1.781-0.734-2.734l1-1.719c0.547-0.953 1.781-1.281 2.734-0.734l4.156 2.391v-4.797c0-1.094 0.906-2 2-2h2c1.094 0 2 0.906 2 2v4.797l4.156-2.391c0.953-0.547 2.188-0.219 2.734 0.734l1 1.719c0.547 0.953 0.219 2.188-0.734 2.734l-4.156 2.406z"
    /> </symbol>
  <symbol viewBox="0 0 30 28" id="bank">
    <title>bank</title>
    <path class="usajobs-icon__path" d="M15 0l15 6v2h-2c0 0.547-0.484 1-1.078 1h-23.844c-0.594 0-1.078-0.453-1.078-1h-2v-2zM4 10h4v12h2v-12h4v12h2v-12h4v12h2v-12h4v12h0.922c0.594 0 1.078 0.453 1.078 1v1h-26v-1c0-0.547 0.484-1 1.078-1h0.922v-12zM28.922 25c0.594 0 1.078 0.453 1.078 1v2h-30v-2c0-0.547 0.484-1 1.078-1h27.844z"
    /> </symbol>
  <symbol viewBox="0 0 26 28" id="book">
    <title>book</title>
    <path class="usajobs-icon__path" d="M25.609 7.469c0.391 0.562 0.5 1.297 0.281 2.016l-4.297 14.156c-0.391 1.328-1.766 2.359-3.109 2.359h-14.422c-1.594 0-3.297-1.266-3.875-2.891-0.25-0.703-0.25-1.391-0.031-1.984 0.031-0.313 0.094-0.625 0.109-1 0.016-0.25-0.125-0.453-0.094-0.641 0.063-0.375 0.391-0.641 0.641-1.062 0.469-0.781 1-2.047 1.172-2.859 0.078-0.297-0.078-0.641 0-0.906 0.078-0.297 0.375-0.516 0.531-0.797 0.422-0.719 0.969-2.109 1.047-2.844 0.031-0.328-0.125-0.688-0.031-0.938 0.109-0.359 0.453-0.516 0.688-0.828 0.375-0.516 1-2 1.094-2.828 0.031-0.266-0.125-0.531-0.078-0.812 0.063-0.297 0.438-0.609 0.688-0.969 0.656-0.969 0.781-3.109 2.766-2.547l-0.016 0.047c0.266-0.063 0.531-0.141 0.797-0.141h11.891c0.734 0 1.391 0.328 1.781 0.875 0.406 0.562 0.5 1.297 0.281 2.031l-4.281 14.156c-0.734 2.406-1.141 2.938-3.125 2.938h-13.578c-0.203 0-0.453 0.047-0.594 0.234-0.125 0.187-0.141 0.328-0.016 0.672 0.313 0.906 1.391 1.094 2.25 1.094h14.422c0.578 0 1.25-0.328 1.422-0.891l4.688-15.422c0.094-0.297 0.094-0.609 0.078-0.891 0.359 0.141 0.688 0.359 0.922 0.672zM8.984 7.5c-0.094 0.281 0.063 0.5 0.344 0.5h9.5c0.266 0 0.562-0.219 0.656-0.5l0.328-1c0.094-0.281-0.063-0.5-0.344-0.5h-9.5c-0.266 0-0.562 0.219-0.656 0.5zM7.688 11.5c-0.094 0.281 0.063 0.5 0.344 0.5h9.5c0.266 0 0.562-0.219 0.656-0.5l0.328-1c0.094-0.281-0.063-0.5-0.344-0.5h-9.5c-0.266 0-0.562 0.219-0.656 0.5z"
    /> </symbol>
  <symbol viewBox="0 0 20 28" id="bookmark-o">
    <title>bookmark-o</title>
    <path class="usajobs-icon__path" d="M18 4h-16v19.406l8-7.672 1.391 1.328 6.609 6.344v-19.406zM18.188 2c0.234 0 0.469 0.047 0.688 0.141 0.688 0.266 1.125 0.906 1.125 1.609v20.141c0 0.703-0.438 1.344-1.125 1.609-0.219 0.094-0.453 0.125-0.688 0.125-0.484 0-0.938-0.172-1.297-0.5l-6.891-6.625-6.891 6.625c-0.359 0.328-0.812 0.516-1.297 0.516-0.234 0-0.469-0.047-0.688-0.141-0.688-0.266-1.125-0.906-1.125-1.609v-20.141c0-0.703 0.438-1.344 1.125-1.609 0.219-0.094 0.453-0.141 0.688-0.141h16.375z"
    /> </symbol>
  <symbol viewBox="0 0 20 28" id="bookmark">
    <title>bookmark</title>
    <path class="usajobs-icon__path" d="M18.188 2c0.234 0 0.469 0.047 0.688 0.141 0.688 0.266 1.125 0.906 1.125 1.609v20.141c0 0.703-0.438 1.344-1.125 1.609-0.219 0.094-0.453 0.125-0.688 0.125-0.484 0-0.938-0.172-1.297-0.5l-6.891-6.625-6.891 6.625c-0.359 0.328-0.812 0.516-1.297 0.516-0.234 0-0.469-0.047-0.688-0.141-0.688-0.266-1.125-0.906-1.125-1.609v-20.141c0-0.703 0.438-1.344 1.125-1.609 0.219-0.094 0.453-0.141 0.688-0.141h16.375z"
    /> </symbol>
  <symbol viewBox="0 0 28 28" id="bullhorn">
    <title>bullhorn</title>
    <path class="usajobs-icon__path" d="M26 10c1.109 0 2 0.891 2 2s-0.891 2-2 2v6c0 1.094-0.906 2-2 2-2.781-2.312-7.266-5.484-12.688-5.938-1.859 0.625-2.5 2.797-1.281 4.047-1.094 1.797 0.313 3.063 1.969 4.359-0.969 1.906-5 1.937-6.438 0.609-0.906-2.781-2.25-5.563-1.156-9.078h-1.906c-1.375 0-2.5-1.125-2.5-2.5v-3c0-1.375 1.125-2.5 2.5-2.5h7.5c6 0 11-3.5 14-6 1.094 0 2 0.906 2 2v6zM24 19.437v-14.906c-4.078 3.125-8.031 4.922-12 5.359v4.219c3.969 0.438 7.922 2.203 12 5.328z"
    /> </symbol>
  <symbol viewBox="0 0 24 28" id="bullseye">
    <title>bullseye</title>
    <path class="usajobs-icon__path" d="M16 14c0 2.203-1.797 4-4 4s-4-1.797-4-4 1.797-4 4-4 4 1.797 4 4zM18 14c0-3.313-2.688-6-6-6s-6 2.688-6 6 2.688 6 6 6 6-2.688 6-6zM20 14c0 4.422-3.578 8-8 8s-8-3.578-8-8 3.578-8 8-8 8 3.578 8 8zM22 14c0-5.516-4.484-10-10-10s-10 4.484-10 10 4.484 10 10 10 10-4.484 10-10zM24 14c0 6.625-5.375 12-12 12s-12-5.375-12-12 5.375-12 12-12 12 5.375 12 12z"
    /> </symbol>
  <symbol viewBox="0 0 26 28" id="calendar-o">
    <title>calendar-o</title>
    <path class="usajobs-icon__path" d="M2 26h22v-16h-22v16zM8 7v-4.5c0-0.281-0.219-0.5-0.5-0.5h-1c-0.281 0-0.5 0.219-0.5 0.5v4.5c0 0.281 0.219 0.5 0.5 0.5h1c0.281 0 0.5-0.219 0.5-0.5zM20 7v-4.5c0-0.281-0.219-0.5-0.5-0.5h-1c-0.281 0-0.5 0.219-0.5 0.5v4.5c0 0.281 0.219 0.5 0.5 0.5h1c0.281 0 0.5-0.219 0.5-0.5zM26 6v20c0 1.094-0.906 2-2 2h-22c-1.094 0-2-0.906-2-2v-20c0-1.094 0.906-2 2-2h2v-1.5c0-1.375 1.125-2.5 2.5-2.5h1c1.375 0 2.5 1.125 2.5 2.5v1.5h6v-1.5c0-1.375 1.125-2.5 2.5-2.5h1c1.375 0 2.5 1.125 2.5 2.5v1.5h2c1.094 0 2 0.906 2 2z"
    /> </symbol>
  <symbol viewBox="0 0 26 28" id="calendar">
    <title>calendar</title>
    <path class="usajobs-icon__path" d="M2 26h4.5v-4.5h-4.5v4.5zM7.5 26h5v-4.5h-5v4.5zM2 20.5h4.5v-5h-4.5v5zM7.5 20.5h5v-5h-5v5zM2 14.5h4.5v-4.5h-4.5v4.5zM13.5 26h5v-4.5h-5v4.5zM7.5 14.5h5v-4.5h-5v4.5zM19.5 26h4.5v-4.5h-4.5v4.5zM13.5 20.5h5v-5h-5v5zM8 7v-4.5c0-0.266-0.234-0.5-0.5-0.5h-1c-0.266 0-0.5 0.234-0.5 0.5v4.5c0 0.266 0.234 0.5 0.5 0.5h1c0.266 0 0.5-0.234 0.5-0.5zM19.5 20.5h4.5v-5h-4.5v5zM13.5 14.5h5v-4.5h-5v4.5zM19.5 14.5h4.5v-4.5h-4.5v4.5zM20 7v-4.5c0-0.266-0.234-0.5-0.5-0.5h-1c-0.266 0-0.5 0.234-0.5 0.5v4.5c0 0.266 0.234 0.5 0.5 0.5h1c0.266 0 0.5-0.234 0.5-0.5zM26 6v20c0 1.094-0.906 2-2 2h-22c-1.094 0-2-0.906-2-2v-20c0-1.094 0.906-2 2-2h2v-1.5c0-1.375 1.125-2.5 2.5-2.5h1c1.375 0 2.5 1.125 2.5 2.5v1.5h6v-1.5c0-1.375 1.125-2.5 2.5-2.5h1c1.375 0 2.5 1.125 2.5 2.5v1.5h2c1.094 0 2 0.906 2 2z"
    /> </symbol>
  <symbol viewBox="0 0 16 28" id="caret-down">
    <title>caret-down</title>
    <path class="usajobs-icon__path" d="M16 11c0 0.266-0.109 0.516-0.297 0.703l-7 7c-0.187 0.187-0.438 0.297-0.703 0.297s-0.516-0.109-0.703-0.297l-7-7c-0.187-0.187-0.297-0.438-0.297-0.703 0-0.547 0.453-1 1-1h14c0.547 0 1 0.453 1 1z" /> </symbol>
  <symbol viewBox="0 0 11 28" id="caret-left">
    <title>caret-left</title>
    <path class="usajobs-icon__path" d="M10 7v14c0 0.547-0.453 1-1 1-0.266 0-0.516-0.109-0.703-0.297l-7-7c-0.187-0.187-0.297-0.438-0.297-0.703s0.109-0.516 0.297-0.703l7-7c0.187-0.187 0.438-0.297 0.703-0.297 0.547 0 1 0.453 1 1z" /> </symbol>
  <symbol viewBox="0 0 9 28" id="caret-right">
    <title>caret-right</title>
    <path class="usajobs-icon__path" d="M9 14c0 0.266-0.109 0.516-0.297 0.703l-7 7c-0.187 0.187-0.438 0.297-0.703 0.297-0.547 0-1-0.453-1-1v-14c0-0.547 0.453-1 1-1 0.266 0 0.516 0.109 0.703 0.297l7 7c0.187 0.187 0.297 0.438 0.297 0.703z" /> </symbol>
  <symbol viewBox="0 0 16 28" id="caret-up">
    <title>caret-up</title>
    <path class="usajobs-icon__path" d="M16 19c0 0.547-0.453 1-1 1h-14c-0.547 0-1-0.453-1-1 0-0.266 0.109-0.516 0.297-0.703l7-7c0.187-0.187 0.438-0.297 0.703-0.297s0.516 0.109 0.703 0.297l7 7c0.187 0.187 0.297 0.438 0.297 0.703z" /> </symbol>
  <symbol viewBox="0 0 24 28" id="certificate">
    <title>certificate</title>
    <path class="usajobs-icon__path" d="M21.5 14l2.156 2.109c0.297 0.281 0.406 0.703 0.313 1.094-0.109 0.391-0.422 0.703-0.812 0.797l-2.938 0.75 0.828 2.906c0.109 0.391 0 0.812-0.297 1.094-0.281 0.297-0.703 0.406-1.094 0.297l-2.906-0.828-0.75 2.938c-0.094 0.391-0.406 0.703-0.797 0.812-0.094 0.016-0.203 0.031-0.297 0.031-0.297 0-0.594-0.125-0.797-0.344l-2.109-2.156-2.109 2.156c-0.281 0.297-0.703 0.406-1.094 0.313-0.406-0.109-0.703-0.422-0.797-0.812l-0.75-2.938-2.906 0.828c-0.391 0.109-0.812 0-1.094-0.297-0.297-0.281-0.406-0.703-0.297-1.094l0.828-2.906-2.938-0.75c-0.391-0.094-0.703-0.406-0.812-0.797-0.094-0.391 0.016-0.812 0.313-1.094l2.156-2.109-2.156-2.109c-0.297-0.281-0.406-0.703-0.313-1.094 0.109-0.391 0.422-0.703 0.812-0.797l2.938-0.75-0.828-2.906c-0.109-0.391 0-0.812 0.297-1.094 0.281-0.297 0.703-0.406 1.094-0.297l2.906 0.828 0.75-2.938c0.094-0.391 0.406-0.703 0.797-0.797 0.391-0.109 0.812 0 1.094 0.297l2.109 2.172 2.109-2.172c0.281-0.297 0.688-0.406 1.094-0.297 0.391 0.094 0.703 0.406 0.797 0.797l0.75 2.938 2.906-0.828c0.391-0.109 0.812 0 1.094 0.297 0.297 0.281 0.406 0.703 0.297 1.094l-0.828 2.906 2.938 0.75c0.391 0.094 0.703 0.406 0.812 0.797 0.094 0.391-0.016 0.812-0.313 1.094z"
    /> </symbol>
  <symbol viewBox="0 0 24 28" id="check-circle">
    <title>check-circle</title>
    <path class="usajobs-icon__path" d="M20.062 11.469c0-0.266-0.094-0.531-0.281-0.719l-1.422-1.406c-0.187-0.187-0.438-0.297-0.703-0.297s-0.516 0.109-0.703 0.297l-6.375 6.359-3.531-3.531c-0.187-0.187-0.438-0.297-0.703-0.297s-0.516 0.109-0.703 0.297l-1.422 1.406c-0.187 0.187-0.281 0.453-0.281 0.719s0.094 0.516 0.281 0.703l5.656 5.656c0.187 0.187 0.453 0.297 0.703 0.297 0.266 0 0.531-0.109 0.719-0.297l8.484-8.484c0.187-0.187 0.281-0.438 0.281-0.703zM24 14c0 6.625-5.375 12-12 12s-12-5.375-12-12 5.375-12 12-12 12 5.375 12 12z"
    /> </symbol>
  <symbol viewBox="0 0 26 28" id="check-square-o">
    <title>check-square-o</title>
    <path class="usajobs-icon__path" d="M22 14.531v4.969c0 2.484-2.016 4.5-4.5 4.5h-13c-2.484 0-4.5-2.016-4.5-4.5v-13c0-2.484 2.016-4.5 4.5-4.5h13c0.625 0 1.25 0.125 1.828 0.391 0.141 0.063 0.25 0.203 0.281 0.359 0.031 0.172-0.016 0.328-0.141 0.453l-0.766 0.766c-0.094 0.094-0.234 0.156-0.359 0.156-0.047 0-0.094-0.016-0.141-0.031-0.234-0.063-0.469-0.094-0.703-0.094h-13c-1.375 0-2.5 1.125-2.5 2.5v13c0 1.375 1.125 2.5 2.5 2.5h13c1.375 0 2.5-1.125 2.5-2.5v-3.969c0-0.125 0.047-0.25 0.141-0.344l1-1c0.109-0.109 0.234-0.156 0.359-0.156 0.063 0 0.125 0.016 0.187 0.047 0.187 0.078 0.313 0.25 0.313 0.453zM25.609 6.891l-12.719 12.719c-0.5 0.5-1.281 0.5-1.781 0l-6.719-6.719c-0.5-0.5-0.5-1.281 0-1.781l1.719-1.719c0.5-0.5 1.281-0.5 1.781 0l4.109 4.109 10.109-10.109c0.5-0.5 1.281-0.5 1.781 0l1.719 1.719c0.5 0.5 0.5 1.281 0 1.781z"
    /> </symbol>
  <symbol viewBox="0 0 28 28" id="check">
    <title>check</title>
    <path class="usajobs-icon__path" d="M26.109 8.844c0 0.391-0.156 0.781-0.438 1.062l-13.438 13.438c-0.281 0.281-0.672 0.438-1.062 0.438s-0.781-0.156-1.062-0.438l-7.781-7.781c-0.281-0.281-0.438-0.672-0.438-1.062s0.156-0.781 0.438-1.062l2.125-2.125c0.281-0.281 0.672-0.438 1.062-0.438s0.781 0.156 1.062 0.438l4.594 4.609 10.25-10.266c0.281-0.281 0.672-0.438 1.062-0.438s0.781 0.156 1.062 0.438l2.125 2.125c0.281 0.281 0.438 0.672 0.438 1.062z"
    /> </symbol>
  <symbol viewBox="0 0 28 28" id="chevron-down">
    <title>chevron-down</title>
    <path class="usajobs-icon__path" d="M26.297 12.625l-11.594 11.578c-0.391 0.391-1.016 0.391-1.406 0l-11.594-11.578c-0.391-0.391-0.391-1.031 0-1.422l2.594-2.578c0.391-0.391 1.016-0.391 1.406 0l8.297 8.297 8.297-8.297c0.391-0.391 1.016-0.391 1.406 0l2.594 2.578c0.391 0.391 0.391 1.031 0 1.422z"
    /> </symbol>
  <symbol viewBox="0 0 21 28" id="chevron-left">
    <title>chevron-left</title>
    <path class="usajobs-icon__path" d="M18.297 4.703l-8.297 8.297 8.297 8.297c0.391 0.391 0.391 1.016 0 1.406l-2.594 2.594c-0.391 0.391-1.016 0.391-1.406 0l-11.594-11.594c-0.391-0.391-0.391-1.016 0-1.406l11.594-11.594c0.391-0.391 1.016-0.391 1.406 0l2.594 2.594c0.391 0.391 0.391 1.016 0 1.406z"
    /> </symbol>
  <symbol viewBox="0 0 19 28" id="chevron-right">
    <title>chevron-right</title>
    <path class="usajobs-icon__path" d="M17.297 13.703l-11.594 11.594c-0.391 0.391-1.016 0.391-1.406 0l-2.594-2.594c-0.391-0.391-0.391-1.016 0-1.406l8.297-8.297-8.297-8.297c-0.391-0.391-0.391-1.016 0-1.406l2.594-2.594c0.391-0.391 1.016-0.391 1.406 0l11.594 11.594c0.391 0.391 0.391 1.016 0 1.406z"
    /> </symbol>
  <symbol viewBox="0 0 28 28" id="chevron-up">
    <title>chevron-up</title>
    <path class="usajobs-icon__path" d="M26.297 20.797l-2.594 2.578c-0.391 0.391-1.016 0.391-1.406 0l-8.297-8.297-8.297 8.297c-0.391 0.391-1.016 0.391-1.406 0l-2.594-2.578c-0.391-0.391-0.391-1.031 0-1.422l11.594-11.578c0.391-0.391 1.016-0.391 1.406 0l11.594 11.578c0.391 0.391 0.391 1.031 0 1.422z"
    /> </symbol>
  <symbol viewBox="0 0 24 28" id="clock-o">
    <title>clock-o</title>
    <path class="usajobs-icon__path" d="M14 8.5v7c0 0.281-0.219 0.5-0.5 0.5h-5c-0.281 0-0.5-0.219-0.5-0.5v-1c0-0.281 0.219-0.5 0.5-0.5h3.5v-5.5c0-0.281 0.219-0.5 0.5-0.5h1c0.281 0 0.5 0.219 0.5 0.5zM20.5 14c0-4.688-3.813-8.5-8.5-8.5s-8.5 3.813-8.5 8.5 3.813 8.5 8.5 8.5 8.5-3.813 8.5-8.5zM24 14c0 6.625-5.375 12-12 12s-12-5.375-12-12 5.375-12 12-12 12 5.375 12 12z"
    /> </symbol>
  <symbol viewBox="0 0 22 28" id="close">
    <title>close</title>
    <path class="usajobs-icon__path" d="M20.281 20.656c0 0.391-0.156 0.781-0.438 1.062l-2.125 2.125c-0.281 0.281-0.672 0.438-1.062 0.438s-0.781-0.156-1.062-0.438l-4.594-4.594-4.594 4.594c-0.281 0.281-0.672 0.438-1.062 0.438s-0.781-0.156-1.062-0.438l-2.125-2.125c-0.281-0.281-0.438-0.672-0.438-1.062s0.156-0.781 0.438-1.062l4.594-4.594-4.594-4.594c-0.281-0.281-0.438-0.672-0.438-1.062s0.156-0.781 0.438-1.062l2.125-2.125c0.281-0.281 0.672-0.438 1.062-0.438s0.781 0.156 1.062 0.438l4.594 4.594 4.594-4.594c0.281-0.281 0.672-0.438 1.062-0.438s0.781 0.156 1.062 0.438l2.125 2.125c0.281 0.281 0.438 0.672 0.438 1.062s-0.156 0.781-0.438 1.062l-4.594 4.594 4.594 4.594c0.281 0.281 0.438 0.672 0.438 1.062z"
    /> </symbol>
  <symbol viewBox="0 0 24 28" id="cog">
    <title>cog</title>
    <path class="usajobs-icon__path" d="M16 14c0-2.203-1.797-4-4-4s-4 1.797-4 4 1.797 4 4 4 4-1.797 4-4zM24 12.297v3.469c0 0.234-0.187 0.516-0.438 0.562l-2.891 0.438c-0.172 0.5-0.359 0.969-0.609 1.422 0.531 0.766 1.094 1.453 1.672 2.156 0.094 0.109 0.156 0.25 0.156 0.391s-0.047 0.25-0.141 0.359c-0.375 0.5-2.484 2.797-3.016 2.797-0.141 0-0.281-0.063-0.406-0.141l-2.156-1.687c-0.453 0.234-0.938 0.438-1.422 0.594-0.109 0.953-0.203 1.969-0.453 2.906-0.063 0.25-0.281 0.438-0.562 0.438h-3.469c-0.281 0-0.531-0.203-0.562-0.469l-0.438-2.875c-0.484-0.156-0.953-0.344-1.406-0.578l-2.203 1.672c-0.109 0.094-0.25 0.141-0.391 0.141s-0.281-0.063-0.391-0.172c-0.828-0.75-1.922-1.719-2.578-2.625-0.078-0.109-0.109-0.234-0.109-0.359 0-0.141 0.047-0.25 0.125-0.359 0.531-0.719 1.109-1.406 1.641-2.141-0.266-0.5-0.484-1.016-0.641-1.547l-2.859-0.422c-0.266-0.047-0.453-0.297-0.453-0.562v-3.469c0-0.234 0.187-0.516 0.422-0.562l2.906-0.438c0.156-0.5 0.359-0.969 0.609-1.437-0.531-0.75-1.094-1.453-1.672-2.156-0.094-0.109-0.156-0.234-0.156-0.375s0.063-0.25 0.141-0.359c0.375-0.516 2.484-2.797 3.016-2.797 0.141 0 0.281 0.063 0.406 0.156l2.156 1.672c0.453-0.234 0.938-0.438 1.422-0.594 0.109-0.953 0.203-1.969 0.453-2.906 0.063-0.25 0.281-0.438 0.562-0.438h3.469c0.281 0 0.531 0.203 0.562 0.469l0.438 2.875c0.484 0.156 0.953 0.344 1.406 0.578l2.219-1.672c0.094-0.094 0.234-0.141 0.375-0.141s0.281 0.063 0.391 0.156c0.828 0.766 1.922 1.734 2.578 2.656 0.078 0.094 0.109 0.219 0.109 0.344 0 0.141-0.047 0.25-0.125 0.359-0.531 0.719-1.109 1.406-1.641 2.141 0.266 0.5 0.484 1.016 0.641 1.531l2.859 0.438c0.266 0.047 0.453 0.297 0.453 0.562z"
    /> </symbol>
  <symbol viewBox="0 0 28 28" id="comments">
    <title>comments</title>
    <path class="usajobs-icon__path" d="M22 12c0 4.422-4.922 8-11 8-0.953 0-1.875-0.094-2.75-0.25-1.297 0.922-2.766 1.594-4.344 2-0.422 0.109-0.875 0.187-1.344 0.25h-0.047c-0.234 0-0.453-0.187-0.5-0.453v0c-0.063-0.297 0.141-0.484 0.313-0.688 0.609-0.688 1.297-1.297 1.828-2.594-2.531-1.469-4.156-3.734-4.156-6.266 0-4.422 4.922-8 11-8s11 3.578 11 8zM28 16c0 2.547-1.625 4.797-4.156 6.266 0.531 1.297 1.219 1.906 1.828 2.594 0.172 0.203 0.375 0.391 0.313 0.688v0c-0.063 0.281-0.297 0.484-0.547 0.453-0.469-0.063-0.922-0.141-1.344-0.25-1.578-0.406-3.047-1.078-4.344-2-0.875 0.156-1.797 0.25-2.75 0.25-2.828 0-5.422-0.781-7.375-2.063 0.453 0.031 0.922 0.063 1.375 0.063 3.359 0 6.531-0.969 8.953-2.719 2.609-1.906 4.047-4.484 4.047-7.281 0-0.812-0.125-1.609-0.359-2.375 2.641 1.453 4.359 3.766 4.359 6.375z"
    /> </symbol>
  <symbol viewBox="0 0 28 28" id="copy">
    <title>copy</title>
    <path class="usajobs-icon__path" d="M26.5 6c0.828 0 1.5 0.672 1.5 1.5v19c0 0.828-0.672 1.5-1.5 1.5h-15c-0.828 0-1.5-0.672-1.5-1.5v-4.5h-8.5c-0.828 0-1.5-0.672-1.5-1.5v-10.5c0-0.828 0.484-1.984 1.062-2.562l6.375-6.375c0.578-0.578 1.734-1.062 2.562-1.062h6.5c0.828 0 1.5 0.672 1.5 1.5v5.125c0.609-0.359 1.391-0.625 2-0.625h6.5zM18 9.328l-4.672 4.672h4.672v-4.672zM8 3.328l-4.672 4.672h4.672v-4.672zM11.062 13.438l4.937-4.937v-6.5h-6v6.5c0 0.828-0.672 1.5-1.5 1.5h-6.5v10h8v-4c0-0.828 0.484-1.984 1.062-2.562zM26 26v-18h-6v6.5c0 0.828-0.672 1.5-1.5 1.5h-6.5v10h14z"
    /> </symbol>
  <symbol viewBox="0 0 28 28" id="dashboard">
    <title>dashboard</title>
    <path class="usajobs-icon__path" d="M6 18c0-1.109-0.891-2-2-2s-2 0.891-2 2 0.891 2 2 2 2-0.891 2-2zM9 11c0-1.109-0.891-2-2-2s-2 0.891-2 2 0.891 2 2 2 2-0.891 2-2zM15.687 18.516l1.578-5.969c0.125-0.531-0.187-1.078-0.719-1.219v0c-0.531-0.141-1.078 0.187-1.219 0.719l-1.578 5.969c-1.234 0.094-2.312 0.953-2.656 2.219-0.422 1.609 0.547 3.25 2.141 3.672 1.609 0.422 3.25-0.547 3.672-2.141 0.328-1.266-0.203-2.547-1.219-3.25zM26 18c0-1.109-0.891-2-2-2s-2 0.891-2 2 0.891 2 2 2 2-0.891 2-2zM16 8c0-1.109-0.891-2-2-2s-2 0.891-2 2 0.891 2 2 2 2-0.891 2-2zM23 11c0-1.109-0.891-2-2-2s-2 0.891-2 2 0.891 2 2 2 2-0.891 2-2zM28 18c0 2.688-0.766 5.281-2.203 7.547-0.187 0.281-0.5 0.453-0.844 0.453h-21.906c-0.344 0-0.656-0.172-0.844-0.453-1.437-2.25-2.203-4.859-2.203-7.547 0-7.719 6.281-14 14-14s14 6.281 14 14z"
    /> </symbol>
  <symbol viewBox="0 0 24 28" id="dot-circle-o">
    <title>dot-circle-o</title>
    <path class="usajobs-icon__path" d="M16 14c0 2.203-1.797 4-4 4s-4-1.797-4-4 1.797-4 4-4 4 1.797 4 4zM12 5.5c-4.688 0-8.5 3.813-8.5 8.5s3.813 8.5 8.5 8.5 8.5-3.813 8.5-8.5-3.813-8.5-8.5-8.5zM24 14c0 6.625-5.375 12-12 12s-12-5.375-12-12 5.375-12 12-12v0c6.625 0 12 5.375 12 12z"
    /> </symbol>
  <symbol viewBox="0 0 28 28" id="edit">
    <title>edit</title>
    <path class="usajobs-icon__path" d="M13.875 18.5l1.813-1.813-2.375-2.375-1.813 1.813v0.875h1.5v1.5h0.875zM20.75 7.25c-0.141-0.141-0.375-0.125-0.516 0.016l-5.469 5.469c-0.141 0.141-0.156 0.375-0.016 0.516s0.375 0.125 0.516-0.016l5.469-5.469c0.141-0.141 0.156-0.375 0.016-0.516zM22 16.531v2.969c0 2.484-2.016 4.5-4.5 4.5h-13c-2.484 0-4.5-2.016-4.5-4.5v-13c0-2.484 2.016-4.5 4.5-4.5h13c0.625 0 1.25 0.125 1.828 0.391 0.141 0.063 0.25 0.203 0.281 0.359 0.031 0.172-0.016 0.328-0.141 0.453l-0.766 0.766c-0.141 0.141-0.328 0.187-0.5 0.125-0.234-0.063-0.469-0.094-0.703-0.094h-13c-1.375 0-2.5 1.125-2.5 2.5v13c0 1.375 1.125 2.5 2.5 2.5h13c1.375 0 2.5-1.125 2.5-2.5v-1.969c0-0.125 0.047-0.25 0.141-0.344l1-1c0.156-0.156 0.359-0.187 0.547-0.109s0.313 0.25 0.313 0.453zM20.5 5l4.5 4.5-10.5 10.5h-4.5v-4.5zM27.438 7.063l-1.437 1.437-4.5-4.5 1.437-1.437c0.578-0.578 1.547-0.578 2.125 0l2.375 2.375c0.578 0.578 0.578 1.547 0 2.125z"
    /> </symbol>
  <symbol viewBox="0 0 6 28" id="ellipsis-v">
    <title>ellipsis-v</title>
    <path class="usajobs-icon__path" d="M6 19.5v3c0 0.828-0.672 1.5-1.5 1.5h-3c-0.828 0-1.5-0.672-1.5-1.5v-3c0-0.828 0.672-1.5 1.5-1.5h3c0.828 0 1.5 0.672 1.5 1.5zM6 11.5v3c0 0.828-0.672 1.5-1.5 1.5h-3c-0.828 0-1.5-0.672-1.5-1.5v-3c0-0.828 0.672-1.5 1.5-1.5h3c0.828 0 1.5 0.672 1.5 1.5zM6 3.5v3c0 0.828-0.672 1.5-1.5 1.5h-3c-0.828 0-1.5-0.672-1.5-1.5v-3c0-0.828 0.672-1.5 1.5-1.5h3c0.828 0 1.5 0.672 1.5 1.5z"
    /> </symbol>
  <symbol viewBox="0 0 28 28" id="envelope-o">
    <title>envelope-o</title>
    <path class="usajobs-icon__path" d="M26 23.5v-12c-0.328 0.375-0.688 0.719-1.078 1.031-2.234 1.719-4.484 3.469-6.656 5.281-1.172 0.984-2.625 2.188-4.25 2.188h-0.031c-1.625 0-3.078-1.203-4.25-2.188-2.172-1.813-4.422-3.563-6.656-5.281-0.391-0.313-0.75-0.656-1.078-1.031v12c0 0.266 0.234 0.5 0.5 0.5h23c0.266 0 0.5-0.234 0.5-0.5zM26 7.078c0-0.391 0.094-1.078-0.5-1.078h-23c-0.266 0-0.5 0.234-0.5 0.5 0 1.781 0.891 3.328 2.297 4.438 2.094 1.641 4.188 3.297 6.266 4.953 0.828 0.672 2.328 2.109 3.422 2.109h0.031c1.094 0 2.594-1.437 3.422-2.109 2.078-1.656 4.172-3.313 6.266-4.953 1.016-0.797 2.297-2.531 2.297-3.859zM28 6.5v17c0 1.375-1.125 2.5-2.5 2.5h-23c-1.375 0-2.5-1.125-2.5-2.5v-17c0-1.375 1.125-2.5 2.5-2.5h23c1.375 0 2.5 1.125 2.5 2.5z"
    /> </symbol>
  <symbol viewBox="0 0 28 28" id="envelope">
    <title>envelope</title>
    <path class="usajobs-icon__path" d="M28 11.094v12.406c0 1.375-1.125 2.5-2.5 2.5h-23c-1.375 0-2.5-1.125-2.5-2.5v-12.406c0.469 0.516 1 0.969 1.578 1.359 2.594 1.766 5.219 3.531 7.766 5.391 1.313 0.969 2.938 2.156 4.641 2.156h0.031c1.703 0 3.328-1.188 4.641-2.156 2.547-1.844 5.172-3.625 7.781-5.391 0.562-0.391 1.094-0.844 1.563-1.359zM28 6.5c0 1.75-1.297 3.328-2.672 4.281-2.438 1.687-4.891 3.375-7.313 5.078-1.016 0.703-2.734 2.141-4 2.141h-0.031c-1.266 0-2.984-1.437-4-2.141-2.422-1.703-4.875-3.391-7.297-5.078-1.109-0.75-2.688-2.516-2.688-3.938 0-1.531 0.828-2.844 2.5-2.844h23c1.359 0 2.5 1.125 2.5 2.5z"
    /> </symbol>
  <symbol viewBox="0 0 28 28" id="exchange">
    <title>exchange</title>
    <path class="usajobs-icon__path" d="M28 18.5v3c0 0.266-0.234 0.5-0.5 0.5h-21.5v3c0 0.266-0.219 0.5-0.5 0.5-0.141 0-0.266-0.063-0.375-0.156l-4.984-5c-0.094-0.094-0.141-0.219-0.141-0.344 0-0.141 0.047-0.266 0.141-0.359l5-5c0.094-0.094 0.234-0.141 0.359-0.141 0.266 0 0.5 0.219 0.5 0.5v3h21.5c0.266 0 0.5 0.219 0.5 0.5zM28 10c0 0.125-0.047 0.266-0.141 0.359l-5 5c-0.094 0.094-0.234 0.141-0.359 0.141-0.266 0-0.5-0.234-0.5-0.5v-3h-21.5c-0.266 0-0.5-0.234-0.5-0.5v-3c0-0.266 0.234-0.5 0.5-0.5h21.5v-3c0-0.281 0.219-0.5 0.5-0.5 0.141 0 0.266 0.063 0.375 0.156l4.984 4.984c0.094 0.094 0.141 0.234 0.141 0.359z"
    /> </symbol>
  <symbol viewBox="0 0 24 28" id="exclamation-circle">
    <title>exclamation-circle</title>
    <path class="usajobs-icon__path" d="M12 2c6.625 0 12 5.375 12 12s-5.375 12-12 12-12-5.375-12-12 5.375-12 12-12zM14 21.484v-2.969c0-0.281-0.219-0.516-0.484-0.516h-3c-0.281 0-0.516 0.234-0.516 0.516v2.969c0 0.281 0.234 0.516 0.516 0.516h3c0.266 0 0.484-0.234 0.484-0.516zM13.969 16.109l0.281-9.703c0-0.109-0.047-0.219-0.156-0.281-0.094-0.078-0.234-0.125-0.375-0.125h-3.437c-0.141 0-0.281 0.047-0.375 0.125-0.109 0.063-0.156 0.172-0.156 0.281l0.266 9.703c0 0.219 0.234 0.391 0.531 0.391h2.891c0.281 0 0.516-0.172 0.531-0.391z"
    /> </symbol>
  <symbol viewBox="0 0 28 28" id="exclamation-triangle">
    <title>exclamation-triangle</title>
    <path class="usajobs-icon__path" d="M16 21.484v-2.969c0-0.281-0.219-0.516-0.5-0.516h-3c-0.281 0-0.5 0.234-0.5 0.516v2.969c0 0.281 0.219 0.516 0.5 0.516h3c0.281 0 0.5-0.234 0.5-0.516zM15.969 15.641l0.281-7.172c0-0.094-0.047-0.219-0.156-0.297-0.094-0.078-0.234-0.172-0.375-0.172h-3.437c-0.141 0-0.281 0.094-0.375 0.172-0.109 0.078-0.156 0.234-0.156 0.328l0.266 7.141c0 0.203 0.234 0.359 0.531 0.359h2.891c0.281 0 0.516-0.156 0.531-0.359zM15.75 1.047l12 22c0.344 0.609 0.328 1.359-0.031 1.969s-1.016 0.984-1.719 0.984h-24c-0.703 0-1.359-0.375-1.719-0.984s-0.375-1.359-0.031-1.969l12-22c0.344-0.641 1.016-1.047 1.75-1.047s1.406 0.406 1.75 1.047z"
    /> </symbol>
  <symbol viewBox="0 0 16 28" id="facebook">
    <title>facebook</title>
    <path class="usajobs-icon__path" d="M14.984 0.187v4.125h-2.453c-1.922 0-2.281 0.922-2.281 2.25v2.953h4.578l-0.609 4.625h-3.969v11.859h-4.781v-11.859h-3.984v-4.625h3.984v-3.406c0-3.953 2.422-6.109 5.953-6.109 1.687 0 3.141 0.125 3.563 0.187z"
    /> </symbol>
  <symbol viewBox="0 0 24 28" id="file-image-o">
    <title>file-image-o</title>
    <path class="usajobs-icon__path" d="M22.937 5.938c0.578 0.578 1.062 1.734 1.062 2.562v18c0 0.828-0.672 1.5-1.5 1.5h-21c-0.828 0-1.5-0.672-1.5-1.5v-25c0-0.828 0.672-1.5 1.5-1.5h14c0.828 0 1.984 0.484 2.562 1.062zM16 2.125v5.875h5.875c-0.094-0.266-0.234-0.531-0.344-0.641l-4.891-4.891c-0.109-0.109-0.375-0.25-0.641-0.344zM22 26v-16h-6.5c-0.828 0-1.5-0.672-1.5-1.5v-6.5h-12v24h20zM20 19v5h-16v-3l3-3 2 2 6-6zM7 16c-1.656 0-3-1.344-3-3s1.344-3 3-3 3 1.344 3 3-1.344 3-3 3z"
    /> </symbol>
  <symbol viewBox="0 0 24 28" id="file-o">
    <title>file-o</title>
    <path class="usajobs-icon__path" d="M22.937 5.938c0.578 0.578 1.062 1.734 1.062 2.562v18c0 0.828-0.672 1.5-1.5 1.5h-21c-0.828 0-1.5-0.672-1.5-1.5v-25c0-0.828 0.672-1.5 1.5-1.5h14c0.828 0 1.984 0.484 2.562 1.062zM16 2.125v5.875h5.875c-0.094-0.266-0.234-0.531-0.344-0.641l-4.891-4.891c-0.109-0.109-0.375-0.25-0.641-0.344zM22 26v-16h-6.5c-0.828 0-1.5-0.672-1.5-1.5v-6.5h-12v24h20z"
    /> </symbol>
  <symbol viewBox="0 0 24 28" id="file-pdf-o">
    <title>file-pdf-o</title>
    <path class="usajobs-icon__path" d="M22.937 5.938c0.578 0.578 1.062 1.734 1.062 2.562v18c0 0.828-0.672 1.5-1.5 1.5h-21c-0.828 0-1.5-0.672-1.5-1.5v-25c0-0.828 0.672-1.5 1.5-1.5h14c0.828 0 1.984 0.484 2.562 1.062zM16 2.125v5.875h5.875c-0.094-0.266-0.234-0.531-0.344-0.641l-4.891-4.891c-0.109-0.109-0.375-0.25-0.641-0.344zM22 26v-16h-6.5c-0.828 0-1.5-0.672-1.5-1.5v-6.5h-12v24h20zM13.969 16.734c0.391 0.313 0.828 0.594 1.312 0.875 0.656-0.078 1.266-0.109 1.828-0.109 1.047 0 2.375 0.125 2.766 0.766 0.109 0.156 0.203 0.438 0.031 0.812-0.016 0.016-0.031 0.047-0.047 0.063v0.016c-0.047 0.281-0.281 0.594-1.109 0.594-1 0-2.516-0.453-3.828-1.141-2.172 0.234-4.453 0.719-6.125 1.297-1.609 2.75-2.844 4.094-3.781 4.094-0.156 0-0.297-0.031-0.438-0.109l-0.375-0.187c-0.047-0.016-0.063-0.047-0.094-0.078-0.078-0.078-0.141-0.25-0.094-0.562 0.156-0.719 1-1.922 2.938-2.938 0.125-0.078 0.281-0.031 0.359 0.094 0.016 0.016 0.031 0.047 0.031 0.063 0.484-0.797 1.047-1.813 1.672-3.078 0.703-1.406 1.25-2.781 1.625-4.094-0.5-1.703-0.656-3.453-0.375-4.484 0.109-0.391 0.344-0.625 0.656-0.625h0.344c0.234 0 0.422 0.078 0.547 0.234 0.187 0.219 0.234 0.562 0.141 1.062-0.016 0.047-0.031 0.094-0.063 0.125 0.016 0.047 0.016 0.078 0.016 0.125v0.469c-0.016 0.984-0.031 1.922-0.219 3 0.547 1.641 1.359 2.969 2.281 3.719zM4.969 23.156c0.469-0.219 1.141-0.891 2.141-2.469-1.172 0.906-1.906 1.937-2.141 2.469zM11.188 8.781c-0.156 0.438-0.156 1.188-0.031 2.063 0.047-0.25 0.078-0.484 0.109-0.688 0.031-0.266 0.078-0.484 0.109-0.672 0.016-0.047 0.031-0.078 0.063-0.125-0.016-0.016-0.016-0.047-0.031-0.078-0.016-0.281-0.109-0.453-0.203-0.562 0 0.031-0.016 0.047-0.016 0.063zM9.25 19.109c1.375-0.547 2.906-0.984 4.438-1.266-0.156-0.125-0.313-0.234-0.453-0.359-0.766-0.672-1.453-1.609-1.984-2.75-0.297 0.953-0.734 1.969-1.297 3.078-0.234 0.438-0.469 0.875-0.703 1.297zM19.344 18.859c-0.078-0.078-0.484-0.375-2.188-0.375 0.766 0.281 1.469 0.438 1.937 0.438 0.141 0 0.219 0 0.281-0.016 0-0.016-0.016-0.031-0.031-0.047z"
    /> </symbol>
  <symbol viewBox="0 0 24 28" id="file-text-o">
    <title>file-text-o</title>
    <path class="usajobs-icon__path" d="M22.937 5.938c0.578 0.578 1.062 1.734 1.062 2.562v18c0 0.828-0.672 1.5-1.5 1.5h-21c-0.828 0-1.5-0.672-1.5-1.5v-25c0-0.828 0.672-1.5 1.5-1.5h14c0.828 0 1.984 0.484 2.562 1.062zM16 2.125v5.875h5.875c-0.094-0.266-0.234-0.531-0.344-0.641l-4.891-4.891c-0.109-0.109-0.375-0.25-0.641-0.344zM22 26v-16h-6.5c-0.828 0-1.5-0.672-1.5-1.5v-6.5h-12v24h20zM6 12.5c0-0.281 0.219-0.5 0.5-0.5h11c0.281 0 0.5 0.219 0.5 0.5v1c0 0.281-0.219 0.5-0.5 0.5h-11c-0.281 0-0.5-0.219-0.5-0.5v-1zM17.5 16c0.281 0 0.5 0.219 0.5 0.5v1c0 0.281-0.219 0.5-0.5 0.5h-11c-0.281 0-0.5-0.219-0.5-0.5v-1c0-0.281 0.219-0.5 0.5-0.5h11zM17.5 20c0.281 0 0.5 0.219 0.5 0.5v1c0 0.281-0.219 0.5-0.5 0.5h-11c-0.281 0-0.5-0.219-0.5-0.5v-1c0-0.281 0.219-0.5 0.5-0.5h11z"
    /> </symbol>
  <symbol viewBox="0 0 24 28" id="file-word-o">
    <title>file-word-o</title>
    <path class="usajobs-icon__path" d="M22.937 5.938c0.578 0.578 1.062 1.734 1.062 2.562v18c0 0.828-0.672 1.5-1.5 1.5h-21c-0.828 0-1.5-0.672-1.5-1.5v-25c0-0.828 0.672-1.5 1.5-1.5h14c0.828 0 1.984 0.484 2.562 1.062zM16 2.125v5.875h5.875c-0.094-0.266-0.234-0.531-0.344-0.641l-4.891-4.891c-0.109-0.109-0.375-0.25-0.641-0.344zM22 26v-16h-6.5c-0.828 0-1.5-0.672-1.5-1.5v-6.5h-12v24h20zM3.641 12v1.672h1.094l2.562 10.328h2.484l2-7.578c0.078-0.234 0.125-0.469 0.156-0.719 0.016-0.125 0.031-0.25 0.031-0.375h0.063l0.047 0.375c0.047 0.219 0.063 0.469 0.141 0.719l2 7.578h2.484l2.562-10.328h1.094v-1.672h-4.688v1.672h1.406l-1.547 6.844c-0.063 0.25-0.094 0.516-0.109 0.719l-0.031 0.328h-0.063c0-0.094-0.031-0.219-0.047-0.328-0.047-0.203-0.078-0.469-0.141-0.719l-2.25-8.516h-1.781l-2.25 8.516c-0.063 0.25-0.078 0.516-0.125 0.719l-0.063 0.328h-0.063l-0.031-0.328c-0.016-0.203-0.047-0.469-0.109-0.719l-1.547-6.844h1.406v-1.672h-4.688z"
    /> </symbol>
  <symbol viewBox="0 0 22 28" id="filter">
    <title>filter</title>
    <path class="usajobs-icon__path" d="M21.922 4.609c0.156 0.375 0.078 0.812-0.219 1.094l-7.703 7.703v11.594c0 0.406-0.25 0.766-0.609 0.922-0.125 0.047-0.266 0.078-0.391 0.078-0.266 0-0.516-0.094-0.703-0.297l-4-4c-0.187-0.187-0.297-0.438-0.297-0.703v-7.594l-7.703-7.703c-0.297-0.281-0.375-0.719-0.219-1.094 0.156-0.359 0.516-0.609 0.922-0.609h20c0.406 0 0.766 0.25 0.922 0.609z"
    /> </symbol>
  <symbol viewBox="0 0 29 28" id="flag-o">
    <title>flag-o</title>
    <path class="usajobs-icon__path" d="M26 16.328v-9.625c-1.25 0.672-3 1.422-4.781 1.422v0c-0.828 0-1.594-0.156-2.266-0.5-1.672-0.828-3.484-1.625-5.656-1.625-2.016 0-4.484 0.984-6.297 1.984v9.359c2.063-0.953 4.688-1.766 6.766-1.766 2.406 0 3.969 0.797 5.641 1.625l0.438 0.219c0.438 0.219 0.969 0.344 1.578 0.344 1.734 0 3.609-0.922 4.578-1.437zM5 4c0 0.734-0.406 1.375-1 1.719v19.781c0 0.281-0.219 0.5-0.5 0.5h-1c-0.281 0-0.5-0.219-0.5-0.5v-19.781c-0.594-0.344-1-0.984-1-1.719 0-1.109 0.891-2 2-2s2 0.891 2 2zM28 5v11.922c0 0.375-0.219 0.719-0.547 0.891-0.063 0.031-0.156 0.078-0.266 0.141-1 0.531-3.359 1.813-5.766 1.813-0.922 0-1.75-0.187-2.469-0.547l-0.438-0.219c-1.578-0.797-2.828-1.422-4.75-1.422-2.25 0-5.422 1.172-7.25 2.281-0.156 0.094-0.344 0.141-0.516 0.141s-0.344-0.047-0.5-0.125c-0.313-0.187-0.5-0.516-0.5-0.875v-11.594c0-0.344 0.187-0.672 0.484-0.859 1-0.594 4.531-2.547 7.812-2.547 2.609 0 4.734 0.953 6.531 1.828 0.406 0.203 0.875 0.297 1.391 0.297 1.844 0 3.875-1.172 4.844-1.75 0.203-0.109 0.375-0.203 0.484-0.266 0.313-0.156 0.672-0.141 0.969 0.031 0.297 0.187 0.484 0.516 0.484 0.859z"
    /> </symbol>
  <symbol viewBox="0 0 29 28" id="flag">
    <title>flag</title>
    <path class="usajobs-icon__path" d="M5 4c0 0.719-0.391 1.359-1 1.719v19.781c0 0.266-0.234 0.5-0.5 0.5h-1c-0.266 0-0.5-0.234-0.5-0.5v-19.781c-0.609-0.359-1-1-1-1.719 0-1.109 0.891-2 2-2s2 0.891 2 2zM28 5v11.922c0 0.578-0.359 0.797-0.812 1.031-1.766 0.953-3.719 1.813-5.766 1.813-2.875 0-4.25-2.188-7.656-2.188-2.484 0-5.094 1.125-7.25 2.281-0.172 0.094-0.328 0.141-0.516 0.141-0.547 0-1-0.453-1-1v-11.594c0-0.375 0.187-0.641 0.484-0.859 0.375-0.25 0.828-0.469 1.234-0.672 1.969-1 4.359-1.875 6.578-1.875 2.453 0 4.375 0.812 6.547 1.828 0.438 0.219 0.891 0.297 1.375 0.297 2.453 0 5.094-2.125 5.781-2.125 0.547 0 1 0.453 1 1z"
    /> </symbol>
  <symbol viewBox="0 0 26 28" id="folder-o">
    <title>folder-o</title>
    <path class="usajobs-icon__path" d="M24 20.5v-11c0-0.828-0.672-1.5-1.5-1.5h-11c-0.828 0-1.5-0.672-1.5-1.5v-1c0-0.828-0.672-1.5-1.5-1.5h-5c-0.828 0-1.5 0.672-1.5 1.5v15c0 0.828 0.672 1.5 1.5 1.5h19c0.828 0 1.5-0.672 1.5-1.5zM26 9.5v11c0 1.922-1.578 3.5-3.5 3.5h-19c-1.922 0-3.5-1.578-3.5-3.5v-15c0-1.922 1.578-3.5 3.5-3.5h5c1.922 0 3.5 1.578 3.5 3.5v0.5h10.5c1.922 0 3.5 1.578 3.5 3.5z"
    /> </symbol>
  <symbol viewBox="0 0 30 28" id="folder-open-o">
    <title>folder-open-o</title>
    <path class="usajobs-icon__path" d="M27.828 14.547c0-0.438-0.484-0.547-0.828-0.547h-17c-0.828 0-1.922 0.516-2.453 1.156l-4.594 5.672c-0.141 0.187-0.281 0.391-0.281 0.625 0 0.438 0.484 0.547 0.828 0.547h17c0.828 0 1.922-0.516 2.453-1.172l4.594-5.672c0.141-0.172 0.281-0.375 0.281-0.609zM10 12h12v-2.5c0-0.828-0.672-1.5-1.5-1.5h-9c-0.828 0-1.5-0.672-1.5-1.5v-1c0-0.828-0.672-1.5-1.5-1.5h-5c-0.828 0-1.5 0.672-1.5 1.5v13.328l4-4.922c0.906-1.109 2.578-1.906 4-1.906zM29.828 14.547c0 0.688-0.297 1.344-0.719 1.875l-4.609 5.672c-0.891 1.094-2.594 1.906-4 1.906h-17c-1.922 0-3.5-1.578-3.5-3.5v-15c0-1.922 1.578-3.5 3.5-3.5h5c1.922 0 3.5 1.578 3.5 3.5v0.5h8.5c1.922 0 3.5 1.578 3.5 3.5v2.5h3c1.062 0 2.125 0.484 2.594 1.484 0.156 0.328 0.234 0.688 0.234 1.062z"
    /> </symbol>
  <symbol viewBox="0 0 29 28" id="folder-open">
    <title>folder-open</title>
    <path class="usajobs-icon__path" d="M29.359 14.875c0 0.375-0.234 0.75-0.484 1.031l-5.25 6.188c-0.906 1.062-2.75 1.906-4.125 1.906h-17c-0.562 0-1.359-0.172-1.359-0.875 0-0.375 0.234-0.75 0.484-1.031l5.25-6.188c0.906-1.062 2.75-1.906 4.125-1.906h17c0.562 0 1.359 0.172 1.359 0.875zM24 9.5v2.5h-13c-1.953 0-4.375 1.109-5.641 2.609l-5.344 6.281c0-0.125-0.016-0.266-0.016-0.391v-15c0-1.922 1.578-3.5 3.5-3.5h5c1.922 0 3.5 1.578 3.5 3.5v0.5h8.5c1.922 0 3.5 1.578 3.5 3.5z"
    /> </symbol>
  <symbol viewBox="0 0 24 28" id="github">
    <title>github</title>
    <path class="usajobs-icon__path" d="M12 2c6.625 0 12 5.375 12 12 0 5.297-3.437 9.797-8.203 11.391-0.609 0.109-0.828-0.266-0.828-0.578 0-0.391 0.016-1.687 0.016-3.297 0-1.125-0.375-1.844-0.812-2.219 2.672-0.297 5.484-1.313 5.484-5.922 0-1.313-0.469-2.375-1.234-3.219 0.125-0.313 0.531-1.531-0.125-3.187-1-0.313-3.297 1.234-3.297 1.234-0.953-0.266-1.984-0.406-3-0.406s-2.047 0.141-3 0.406c0 0-2.297-1.547-3.297-1.234-0.656 1.656-0.25 2.875-0.125 3.187-0.766 0.844-1.234 1.906-1.234 3.219 0 4.594 2.797 5.625 5.469 5.922-0.344 0.313-0.656 0.844-0.766 1.609-0.688 0.313-2.438 0.844-3.484-1-0.656-1.141-1.844-1.234-1.844-1.234-1.172-0.016-0.078 0.734-0.078 0.734 0.781 0.359 1.328 1.75 1.328 1.75 0.703 2.141 4.047 1.422 4.047 1.422 0 1 0.016 1.937 0.016 2.234 0 0.313-0.219 0.688-0.828 0.578-4.766-1.594-8.203-6.094-8.203-11.391 0-6.625 5.375-12 12-12zM4.547 19.234c0.031-0.063-0.016-0.141-0.109-0.187-0.094-0.031-0.172-0.016-0.203 0.031-0.031 0.063 0.016 0.141 0.109 0.187 0.078 0.047 0.172 0.031 0.203-0.031zM5.031 19.766c0.063-0.047 0.047-0.156-0.031-0.25-0.078-0.078-0.187-0.109-0.25-0.047-0.063 0.047-0.047 0.156 0.031 0.25 0.078 0.078 0.187 0.109 0.25 0.047zM5.5 20.469c0.078-0.063 0.078-0.187 0-0.297-0.063-0.109-0.187-0.156-0.266-0.094-0.078 0.047-0.078 0.172 0 0.281s0.203 0.156 0.266 0.109zM6.156 21.125c0.063-0.063 0.031-0.203-0.063-0.297-0.109-0.109-0.25-0.125-0.313-0.047-0.078 0.063-0.047 0.203 0.063 0.297 0.109 0.109 0.25 0.125 0.313 0.047zM7.047 21.516c0.031-0.094-0.063-0.203-0.203-0.25-0.125-0.031-0.266 0.016-0.297 0.109s0.063 0.203 0.203 0.234c0.125 0.047 0.266 0 0.297-0.094zM8.031 21.594c0-0.109-0.125-0.187-0.266-0.172-0.141 0-0.25 0.078-0.25 0.172 0 0.109 0.109 0.187 0.266 0.172 0.141 0 0.25-0.078 0.25-0.172zM8.937 21.438c-0.016-0.094-0.141-0.156-0.281-0.141-0.141 0.031-0.234 0.125-0.219 0.234 0.016 0.094 0.141 0.156 0.281 0.125s0.234-0.125 0.219-0.219z"
    /> </symbol>
  <symbol viewBox="0 0 36 28" id="google-plus">
    <title>google-plus</title>
    <path class="usajobs-icon__path" d="M22.453 14.266c0 6.547-4.391 11.188-11 11.188-6.328 0-11.453-5.125-11.453-11.453s5.125-11.453 11.453-11.453c3.094 0 5.672 1.125 7.672 3l-3.109 2.984c-0.844-0.812-2.328-1.766-4.562-1.766-3.906 0-7.094 3.234-7.094 7.234s3.187 7.234 7.094 7.234c4.531 0 6.234-3.266 6.5-4.937h-6.5v-3.938h10.813c0.109 0.578 0.187 1.156 0.187 1.906zM36 12.359v3.281h-3.266v3.266h-3.281v-3.266h-3.266v-3.281h3.266v-3.266h3.281v3.266h3.266z"
    /> </symbol>
  <symbol viewBox="0 0 36 28" id="graduation-cap">
    <title>graduation-cap</title>
    <path class="usajobs-icon__path" d="M27.719 13.062l0.281 4.937c0.125 2.203-4.484 4-10 4s-10.125-1.797-10-4l0.281-4.937 8.969 2.828c0.25 0.078 0.5 0.109 0.75 0.109s0.5-0.031 0.75-0.109zM36 8c0 0.219-0.141 0.406-0.344 0.484l-17.5 5.5c-0.063 0.016-0.109 0.016-0.156 0.016s-0.094 0-0.156-0.016l-10.187-3.219c-0.891 0.703-1.516 2.422-1.641 4.531 0.594 0.344 0.984 0.969 0.984 1.703 0 0.703-0.359 1.313-0.906 1.672l0.906 6.766c0.016 0.141-0.031 0.281-0.125 0.391s-0.234 0.172-0.375 0.172h-3c-0.141 0-0.281-0.063-0.375-0.172s-0.141-0.25-0.125-0.391l0.906-6.766c-0.547-0.359-0.906-0.969-0.906-1.672 0-0.75 0.422-1.391 1.016-1.734 0.094-1.828 0.562-3.797 1.531-5.156l-5.203-1.625c-0.203-0.078-0.344-0.266-0.344-0.484s0.141-0.406 0.344-0.484l17.5-5.5c0.063-0.016 0.109-0.016 0.156-0.016s0.094 0 0.156 0.016l17.5 5.5c0.203 0.078 0.344 0.266 0.344 0.484z"
    /> </symbol>
  <symbol viewBox="0 0 30 28" id="group">
    <title>group</title>
    <path class="usajobs-icon__path" d="M9.266 14c-1.625 0.047-3.094 0.75-4.141 2h-2.094c-1.563 0-3.031-0.75-3.031-2.484 0-1.266-0.047-5.516 1.937-5.516 0.328 0 1.953 1.328 4.062 1.328 0.719 0 1.406-0.125 2.078-0.359-0.047 0.344-0.078 0.688-0.078 1.031 0 1.422 0.453 2.828 1.266 4zM26 23.953c0 2.531-1.672 4.047-4.172 4.047h-13.656c-2.5 0-4.172-1.516-4.172-4.047 0-3.531 0.828-8.953 5.406-8.953 0.531 0 2.469 2.172 5.594 2.172s5.063-2.172 5.594-2.172c4.578 0 5.406 5.422 5.406 8.953zM10 4c0 2.203-1.797 4-4 4s-4-1.797-4-4 1.797-4 4-4 4 1.797 4 4zM21 10c0 3.313-2.688 6-6 6s-6-2.688-6-6 2.688-6 6-6 6 2.688 6 6zM30 13.516c0 1.734-1.469 2.484-3.031 2.484h-2.094c-1.047-1.25-2.516-1.953-4.141-2 0.812-1.172 1.266-2.578 1.266-4 0-0.344-0.031-0.688-0.078-1.031 0.672 0.234 1.359 0.359 2.078 0.359 2.109 0 3.734-1.328 4.062-1.328 1.984 0 1.937 4.25 1.937 5.516zM28 4c0 2.203-1.797 4-4 4s-4-1.797-4-4 1.797-4 4-4 4 1.797 4 4z"
    /> </symbol>
  <symbol viewBox="0 0 26 28" id="home">
    <title>home</title>
    <path class="usajobs-icon__path" d="M22 15.5v7.5c0 0.547-0.453 1-1 1h-6v-6h-4v6h-6c-0.547 0-1-0.453-1-1v-7.5c0-0.031 0.016-0.063 0.016-0.094l8.984-7.406 8.984 7.406c0.016 0.031 0.016 0.063 0.016 0.094zM25.484 14.422l-0.969 1.156c-0.078 0.094-0.203 0.156-0.328 0.172h-0.047c-0.125 0-0.234-0.031-0.328-0.109l-10.813-9.016-10.813 9.016c-0.109 0.078-0.234 0.125-0.375 0.109-0.125-0.016-0.25-0.078-0.328-0.172l-0.969-1.156c-0.172-0.203-0.141-0.531 0.063-0.703l11.234-9.359c0.656-0.547 1.719-0.547 2.375 0l3.813 3.187v-3.047c0-0.281 0.219-0.5 0.5-0.5h3c0.281 0 0.5 0.219 0.5 0.5v6.375l3.422 2.844c0.203 0.172 0.234 0.5 0.063 0.703z"
    /> </symbol>
  <symbol viewBox="0 0 24 28" id="info-circle">
    <title>info-circle</title>
    <path class="usajobs-icon__path" d="M16 21.5v-2.5c0-0.281-0.219-0.5-0.5-0.5h-1.5v-8c0-0.281-0.219-0.5-0.5-0.5h-5c-0.281 0-0.5 0.219-0.5 0.5v2.5c0 0.281 0.219 0.5 0.5 0.5h1.5v5h-1.5c-0.281 0-0.5 0.219-0.5 0.5v2.5c0 0.281 0.219 0.5 0.5 0.5h7c0.281 0 0.5-0.219 0.5-0.5zM14 7.5v-2.5c0-0.281-0.219-0.5-0.5-0.5h-3c-0.281 0-0.5 0.219-0.5 0.5v2.5c0 0.281 0.219 0.5 0.5 0.5h3c0.281 0 0.5-0.219 0.5-0.5zM24 14c0 6.625-5.375 12-12 12s-12-5.375-12-12 5.375-12 12-12 12 5.375 12 12z"
    /> </symbol>
  <symbol viewBox="0 0 10 28" id="info">
    <title>info</title>
    <path class="usajobs-icon__path" d="M10 21v2c0 0.547-0.453 1-1 1h-8c-0.547 0-1-0.453-1-1v-2c0-0.547 0.453-1 1-1h1v-6h-1c-0.547 0-1-0.453-1-1v-2c0-0.547 0.453-1 1-1h6c0.547 0 1 0.453 1 1v9h1c0.547 0 1 0.453 1 1zM8 3v3c0 0.547-0.453 1-1 1h-4c-0.547 0-1-0.453-1-1v-3c0-0.547 0.453-1 1-1h4c0.547 0 1 0.453 1 1z"
    /> </symbol>
  <symbol viewBox="0 0 16 28" id="lightbulb-o">
    <title>lightbulb-o</title>
    <path class="usajobs-icon__path" d="M11.5 9c0 0.266-0.234 0.5-0.5 0.5s-0.5-0.234-0.5-0.5c0-1.078-1.672-1.5-2.5-1.5-0.266 0-0.5-0.234-0.5-0.5s0.234-0.5 0.5-0.5c1.453 0 3.5 0.766 3.5 2.5zM14 9c0-3.125-3.172-5-6-5s-6 1.875-6 5c0 1 0.406 2.047 1.062 2.812 0.297 0.344 0.641 0.672 0.953 1.031 1.109 1.328 2.047 2.891 2.203 4.656h3.563c0.156-1.766 1.094-3.328 2.203-4.656 0.313-0.359 0.656-0.688 0.953-1.031 0.656-0.766 1.062-1.813 1.062-2.812zM16 9c0 1.609-0.531 3-1.609 4.188s-2.5 2.859-2.625 4.531c0.453 0.266 0.734 0.766 0.734 1.281 0 0.375-0.141 0.734-0.391 1 0.25 0.266 0.391 0.625 0.391 1 0 0.516-0.266 0.984-0.703 1.266 0.125 0.219 0.203 0.484 0.203 0.734 0 1.016-0.797 1.5-1.703 1.5-0.406 0.906-1.313 1.5-2.297 1.5s-1.891-0.594-2.297-1.5c-0.906 0-1.703-0.484-1.703-1.5 0-0.25 0.078-0.516 0.203-0.734-0.438-0.281-0.703-0.75-0.703-1.266 0-0.375 0.141-0.734 0.391-1-0.25-0.266-0.391-0.625-0.391-1 0-0.516 0.281-1.016 0.734-1.281-0.125-1.672-1.547-3.344-2.625-4.531s-1.609-2.578-1.609-4.188c0-4.25 4.047-7 8-7s8 2.75 8 7z"
    /> </symbol>
  <symbol viewBox="0 0 24 28" id="linkedin">
    <title>linkedin</title>
    <path class="usajobs-icon__path" d="M5.453 9.766v15.484h-5.156v-15.484h5.156zM5.781 4.984c0.016 1.484-1.109 2.672-2.906 2.672v0h-0.031c-1.734 0-2.844-1.188-2.844-2.672 0-1.516 1.156-2.672 2.906-2.672 1.766 0 2.859 1.156 2.875 2.672zM24 16.375v8.875h-5.141v-8.281c0-2.078-0.75-3.5-2.609-3.5-1.422 0-2.266 0.953-2.641 1.875-0.125 0.344-0.172 0.797-0.172 1.266v8.641h-5.141c0.063-14.031 0-15.484 0-15.484h5.141v2.25h-0.031c0.672-1.062 1.891-2.609 4.672-2.609 3.391 0 5.922 2.219 5.922 6.969z"
    /> </symbol>
  <symbol viewBox="0 0 18 28" id="lock">
    <title>lock</title>
    <path class="usajobs-icon__path" d="M5 12h8v-3c0-2.203-1.797-4-4-4s-4 1.797-4 4v3zM18 13.5v9c0 0.828-0.672 1.5-1.5 1.5h-15c-0.828 0-1.5-0.672-1.5-1.5v-9c0-0.828 0.672-1.5 1.5-1.5h0.5v-3c0-3.844 3.156-7 7-7s7 3.156 7 7v3h0.5c0.828 0 1.5 0.672 1.5 1.5z"
    /> </symbol>
  <symbol viewBox="0 0 28 28" id="mail-forward">
    <title>mail-forward</title>
    <path class="usajobs-icon__path" d="M28 10c0 0.266-0.109 0.516-0.297 0.703l-8 8c-0.187 0.187-0.438 0.297-0.703 0.297-0.547 0-1-0.453-1-1v-4h-3.5c-6.734 0-11.156 1.297-11.156 8.75 0 0.641 0.031 1.281 0.078 1.922 0.016 0.25 0.078 0.531 0.078 0.781 0 0.297-0.187 0.547-0.5 0.547-0.219 0-0.328-0.109-0.438-0.266-0.234-0.328-0.406-0.828-0.578-1.188-0.891-2-1.984-4.859-1.984-7.047 0-1.75 0.172-3.547 0.828-5.203 2.172-5.391 8.547-6.297 13.672-6.297h3.5v-4c0-0.547 0.453-1 1-1 0.266 0 0.516 0.109 0.703 0.297l8 8c0.187 0.187 0.297 0.438 0.297 0.703z"
    /> </symbol>
  <symbol viewBox="0 0 16 28" id="map-marker">
    <title>map-marker</title>
    <path class="usajobs-icon__path" d="M12 10c0-2.203-1.797-4-4-4s-4 1.797-4 4 1.797 4 4 4 4-1.797 4-4zM16 10c0 0.953-0.109 1.937-0.516 2.797l-5.688 12.094c-0.328 0.688-1.047 1.109-1.797 1.109s-1.469-0.422-1.781-1.109l-5.703-12.094c-0.406-0.859-0.516-1.844-0.516-2.797 0-4.422 3.578-8 8-8s8 3.578 8 8z"
    /> </symbol>
  <symbol viewBox="0 0 32 28" id="map-o">
    <title>map-o</title>
    <path class="usajobs-icon__path" d="M31.563 0.172c0.266 0.187 0.438 0.5 0.438 0.828v22c0 0.406-0.25 0.781-0.625 0.922l-10 4c-0.25 0.109-0.5 0.109-0.75 0l-9.625-3.844-9.625 3.844c-0.125 0.063-0.25 0.078-0.375 0.078-0.203 0-0.391-0.063-0.562-0.172-0.266-0.187-0.438-0.5-0.438-0.828v-22c0-0.406 0.25-0.781 0.625-0.922l10-4c0.25-0.109 0.5-0.109 0.75 0l9.625 3.844 9.625-3.844c0.313-0.125 0.656-0.094 0.938 0.094zM11.5 2.281v19.844l9 3.594v-19.844zM2 5.672v19.844l8.5-3.391v-19.844zM30 22.328v-19.844l-8.5 3.391v19.844z"
    /> </symbol>
  <symbol viewBox="0 0 28 28" id="map">
    <title>map</title>
    <path class="usajobs-icon__path" d="M8 0c0.266 0 0.5 0.234 0.5 0.5v23c0 0.187-0.109 0.359-0.266 0.438l-7.5 4c-0.078 0.047-0.156 0.063-0.234 0.063-0.266 0-0.5-0.234-0.5-0.5v-23c0-0.187 0.109-0.359 0.266-0.438l7.5-4c0.078-0.047 0.156-0.063 0.234-0.063zM27.5 0c0.266 0 0.5 0.234 0.5 0.5v23c0 0.187-0.109 0.359-0.266 0.438l-7.5 4c-0.078 0.047-0.156 0.063-0.234 0.063-0.266 0-0.5-0.234-0.5-0.5v-23c0-0.187 0.109-0.359 0.266-0.438l7.5-4c0.078-0.047 0.156-0.063 0.234-0.063zM10 0c0.078 0 0.156 0.016 0.219 0.047l8 4c0.172 0.094 0.281 0.266 0.281 0.453v23c0 0.266-0.234 0.5-0.5 0.5-0.078 0-0.156-0.016-0.219-0.047l-8-4c-0.172-0.094-0.281-0.266-0.281-0.453v-23c0-0.266 0.234-0.5 0.5-0.5z"
    /> </symbol>
  <symbol viewBox="0 0 24 28" id="minus-circle">
    <title>minus-circle</title>
    <path class="usajobs-icon__path" d="M19 15v-2c0-0.547-0.453-1-1-1h-12c-0.547 0-1 0.453-1 1v2c0 0.547 0.453 1 1 1h12c0.547 0 1-0.453 1-1zM24 14c0 6.625-5.375 12-12 12s-12-5.375-12-12 5.375-12 12-12 12 5.375 12 12z" /> </symbol>
  <symbol viewBox="0 0 22 28" id="minus">
    <title>minus</title>
    <path class="usajobs-icon__path" d="M22 11.5v3c0 0.828-0.672 1.5-1.5 1.5h-19c-0.828 0-1.5-0.672-1.5-1.5v-3c0-0.828 0.672-1.5 1.5-1.5h19c0.828 0 1.5 0.672 1.5 1.5z" /> </symbol>
  <symbol viewBox="0 0 28 28" id="paper-plane-o">
    <title>paper-plane-o</title>
    <path class="usajobs-icon__path" d="M27.563 0.172c0.328 0.234 0.484 0.609 0.422 1l-4 24c-0.047 0.297-0.234 0.547-0.5 0.703-0.141 0.078-0.313 0.125-0.484 0.125-0.125 0-0.25-0.031-0.375-0.078l-8.234-3.359-4.656 5.109c-0.187 0.219-0.453 0.328-0.734 0.328-0.125 0-0.25-0.016-0.359-0.063-0.391-0.156-0.641-0.531-0.641-0.938v-7.063l-7.375-3.016c-0.359-0.141-0.594-0.469-0.625-0.859-0.031-0.375 0.172-0.734 0.5-0.922l26-15c0.328-0.203 0.75-0.187 1.062 0.031zM22.219 23.594l3.453-20.672-22.406 12.922 5.25 2.141 13.484-9.984-7.469 12.453z"
    /> </symbol>
  <symbol viewBox="0 0 28 28" id="paper-plane">
    <title>paper-plane</title>
    <path class="usajobs-icon__path" d="M27.563 0.172c0.328 0.234 0.484 0.609 0.422 1l-4 24c-0.047 0.297-0.234 0.547-0.5 0.703-0.141 0.078-0.313 0.125-0.484 0.125-0.125 0-0.25-0.031-0.375-0.078l-7.078-2.891-3.781 4.609c-0.187 0.234-0.469 0.359-0.766 0.359-0.109 0-0.234-0.016-0.344-0.063-0.391-0.141-0.656-0.516-0.656-0.938v-5.453l13.5-16.547-16.703 14.453-6.172-2.531c-0.359-0.141-0.594-0.469-0.625-0.859-0.016-0.375 0.172-0.734 0.5-0.922l26-15c0.156-0.094 0.328-0.141 0.5-0.141 0.203 0 0.406 0.063 0.562 0.172z"
    /> </symbol>
  <symbol viewBox="0 0 22 28" id="plane">
    <title>plane</title>
    <path class="usajobs-icon__path" d="M21.5 2.5c1 1 0 3.5-1.5 5l-2.516 2.516 2.5 10.875c0.047 0.187-0.031 0.391-0.187 0.516l-2 1.5c-0.078 0.063-0.187 0.094-0.297 0.094-0.031 0-0.063 0-0.109-0.016-0.141-0.031-0.266-0.109-0.328-0.25l-4.359-7.938-4.047 4.047 0.828 3.031c0.047 0.172 0 0.344-0.125 0.484l-1.5 1.5c-0.094 0.094-0.234 0.141-0.359 0.141h-0.031c-0.156-0.016-0.281-0.078-0.375-0.203l-2.953-3.938-3.938-2.953c-0.125-0.078-0.187-0.219-0.203-0.359s0.047-0.281 0.141-0.391l1.5-1.516c0.094-0.094 0.234-0.141 0.359-0.141 0.047 0 0.094 0 0.125 0.016l3.031 0.828 4.047-4.047-7.938-4.359c-0.141-0.078-0.234-0.219-0.266-0.375-0.016-0.141 0.031-0.313 0.141-0.422l2-2c0.125-0.109 0.313-0.172 0.469-0.125l10.391 2.484 2.5-2.5c1.5-1.5 4-2.5 5-1.5z"
    /> </symbol>
  <symbol viewBox="0 0 24 28" id="plus-circle">
    <title>plus-circle</title>
    <path class="usajobs-icon__path" d="M19 15v-2c0-0.547-0.453-1-1-1h-4v-4c0-0.547-0.453-1-1-1h-2c-0.547 0-1 0.453-1 1v4h-4c-0.547 0-1 0.453-1 1v2c0 0.547 0.453 1 1 1h4v4c0 0.547 0.453 1 1 1h2c0.547 0 1-0.453 1-1v-4h4c0.547 0 1-0.453 1-1zM24 14c0 6.625-5.375 12-12 12s-12-5.375-12-12 5.375-12 12-12 12 5.375 12 12z"
    /> </symbol>
  <symbol viewBox="0 0 22 28" id="plus">
    <title>plus</title>
    <path class="usajobs-icon__path" d="M22 11.5v3c0 0.828-0.672 1.5-1.5 1.5h-6.5v6.5c0 0.828-0.672 1.5-1.5 1.5h-3c-0.828 0-1.5-0.672-1.5-1.5v-6.5h-6.5c-0.828 0-1.5-0.672-1.5-1.5v-3c0-0.828 0.672-1.5 1.5-1.5h6.5v-6.5c0-0.828 0.672-1.5 1.5-1.5h3c0.828 0 1.5 0.672 1.5 1.5v6.5h6.5c0.828 0 1.5 0.672 1.5 1.5z"
    /> </symbol>
  <symbol viewBox="0 0 26 28" id="print">
    <title>print</title>
    <path class="usajobs-icon__path" d="M6 24h14v-4h-14v4zM6 14h14v-6h-2.5c-0.828 0-1.5-0.672-1.5-1.5v-2.5h-10v10zM24 15c0-0.547-0.453-1-1-1s-1 0.453-1 1 0.453 1 1 1 1-0.453 1-1zM26 15v6.5c0 0.266-0.234 0.5-0.5 0.5h-3.5v2.5c0 0.828-0.672 1.5-1.5 1.5h-15c-0.828 0-1.5-0.672-1.5-1.5v-2.5h-3.5c-0.266 0-0.5-0.234-0.5-0.5v-6.5c0-1.641 1.359-3 3-3h1v-8.5c0-0.828 0.672-1.5 1.5-1.5h10.5c0.828 0 1.969 0.469 2.562 1.062l2.375 2.375c0.594 0.594 1.062 1.734 1.062 2.562v4h1c1.641 0 3 1.359 3 3z"
    /> </symbol>
  <symbol viewBox="0 0 24 28" id="question-circle">
    <title>question-circle</title>
    <path class="usajobs-icon__path" d="M14 21.5v-3c0-0.281-0.219-0.5-0.5-0.5h-3c-0.281 0-0.5 0.219-0.5 0.5v3c0 0.281 0.219 0.5 0.5 0.5h3c0.281 0 0.5-0.219 0.5-0.5zM18 11c0-2.859-3-5-5.688-5-2.547 0-4.453 1.094-5.797 3.328-0.141 0.219-0.078 0.5 0.125 0.656l2.063 1.563c0.078 0.063 0.187 0.094 0.297 0.094 0.141 0 0.297-0.063 0.391-0.187 0.734-0.938 1.047-1.219 1.344-1.437 0.266-0.187 0.781-0.375 1.344-0.375 1 0 1.922 0.641 1.922 1.328 0 0.812-0.422 1.219-1.375 1.656-1.109 0.5-2.625 1.797-2.625 3.313v0.562c0 0.281 0.219 0.5 0.5 0.5h3c0.281 0 0.5-0.219 0.5-0.5v0c0-0.359 0.453-1.125 1.188-1.547 1.188-0.672 2.812-1.578 2.812-3.953zM24 14c0 6.625-5.375 12-12 12s-12-5.375-12-12 5.375-12 12-12 12 5.375 12 12z"
    /> </symbol>
  <symbol viewBox="0 0 17 28" id="question">
    <title>question</title>
    <path class="usajobs-icon__path" d="M11 19.625v3.75c0 0.344-0.281 0.625-0.625 0.625h-3.75c-0.344 0-0.625-0.281-0.625-0.625v-3.75c0-0.344 0.281-0.625 0.625-0.625h3.75c0.344 0 0.625 0.281 0.625 0.625zM15.937 10.25c0 2.969-2.016 4.109-3.5 4.937-0.922 0.531-1.5 1.609-1.5 2.063v0c0 0.344-0.266 0.75-0.625 0.75h-3.75c-0.344 0-0.562-0.531-0.562-0.875v-0.703c0-1.891 1.875-3.516 3.25-4.141 1.203-0.547 1.703-1.062 1.703-2.063 0-0.875-1.141-1.656-2.406-1.656-0.703 0-1.344 0.219-1.687 0.453-0.375 0.266-0.75 0.641-1.672 1.797-0.125 0.156-0.313 0.25-0.484 0.25-0.141 0-0.266-0.047-0.391-0.125l-2.562-1.953c-0.266-0.203-0.328-0.547-0.156-0.828 1.687-2.797 4.062-4.156 7.25-4.156 3.344 0 7.094 2.672 7.094 6.25z"
    /> </symbol>
  <symbol viewBox="0 0 28 28" id="random">
    <title>random</title>
    <path class="usajobs-icon__path" d="M10.406 7.516c-0.875 1.344-1.516 2.797-2.141 4.266-0.906-1.891-1.906-3.781-4.266-3.781h-3.5c-0.281 0-0.5-0.219-0.5-0.5v-3c0-0.281 0.219-0.5 0.5-0.5h3.5c2.781 0 4.828 1.297 6.406 3.516zM28 20c0 0.125-0.047 0.266-0.141 0.359l-5 5c-0.094 0.094-0.234 0.141-0.359 0.141-0.266 0-0.5-0.234-0.5-0.5v-3c-4.641 0-7.5 0.547-10.391-3.516 0.859-1.344 1.5-2.797 2.125-4.266 0.906 1.891 1.906 3.781 4.266 3.781h4v-3c0-0.281 0.219-0.5 0.5-0.5 0.141 0 0.266 0.063 0.375 0.156l4.984 4.984c0.094 0.094 0.141 0.234 0.141 0.359zM28 6c0 0.125-0.047 0.266-0.141 0.359l-5 5c-0.094 0.094-0.234 0.141-0.359 0.141-0.266 0-0.5-0.219-0.5-0.5v-3h-4c-2.078 0-3.063 1.422-3.938 3.109-0.453 0.875-0.844 1.781-1.219 2.672-1.734 4.031-3.766 8.219-8.844 8.219h-3.5c-0.281 0-0.5-0.219-0.5-0.5v-3c0-0.281 0.219-0.5 0.5-0.5h3.5c2.078 0 3.063-1.422 3.938-3.109 0.453-0.875 0.844-1.781 1.219-2.672 1.734-4.031 3.766-8.219 8.844-8.219h4v-3c0-0.281 0.219-0.5 0.5-0.5 0.141 0 0.266 0.063 0.375 0.156l4.984 4.984c0.094 0.094 0.141 0.234 0.141 0.359z"
    /> </symbol>
  <symbol viewBox="0 0 24 28" id="rotate-left">
    <title>rotate-left</title>
    <path class="usajobs-icon__path" d="M24 14c0 6.609-5.391 12-12 12-3.578 0-6.953-1.578-9.234-4.328-0.156-0.203-0.141-0.5 0.031-0.672l2.141-2.156c0.109-0.094 0.25-0.141 0.391-0.141 0.141 0.016 0.281 0.078 0.359 0.187 1.531 1.984 3.828 3.109 6.312 3.109 4.406 0 8-3.594 8-8s-3.594-8-8-8c-2.047 0-3.984 0.781-5.437 2.141l2.141 2.156c0.297 0.281 0.375 0.719 0.219 1.078-0.156 0.375-0.516 0.625-0.922 0.625h-7c-0.547 0-1-0.453-1-1v-7c0-0.406 0.25-0.766 0.625-0.922 0.359-0.156 0.797-0.078 1.078 0.219l2.031 2.016c2.203-2.078 5.187-3.313 8.266-3.313 6.609 0 12 5.391 12 12z"
    /> </symbol>
  <symbol viewBox="0 0 26 28" id="search">
    <title>search</title>
    <path class="usajobs-icon__path" d="M18 13c0-3.859-3.141-7-7-7s-7 3.141-7 7 3.141 7 7 7 7-3.141 7-7zM26 26c0 1.094-0.906 2-2 2-0.531 0-1.047-0.219-1.406-0.594l-5.359-5.344c-1.828 1.266-4.016 1.937-6.234 1.937-6.078 0-11-4.922-11-11s4.922-11 11-11 11 4.922 11 11c0 2.219-0.672 4.406-1.937 6.234l5.359 5.359c0.359 0.359 0.578 0.875 0.578 1.406z"
    /> </symbol>
  <symbol viewBox="0 0 24 28" id="share-alt">
    <title>share-alt</title>
    <path class="usajobs-icon__path" d="M19 16c2.766 0 5 2.234 5 5s-2.234 5-5 5-5-2.234-5-5c0-0.172 0.016-0.359 0.031-0.531l-5.625-2.812c-0.891 0.828-2.094 1.344-3.406 1.344-2.766 0-5-2.234-5-5s2.234-5 5-5c1.313 0 2.516 0.516 3.406 1.344l5.625-2.812c-0.016-0.172-0.031-0.359-0.031-0.531 0-2.766 2.234-5 5-5s5 2.234 5 5-2.234 5-5 5c-1.313 0-2.516-0.516-3.406-1.344l-5.625 2.812c0.016 0.172 0.031 0.359 0.031 0.531s-0.016 0.359-0.031 0.531l5.625 2.812c0.891-0.828 2.094-1.344 3.406-1.344z"
    /> </symbol>
  <symbol viewBox="0 0 26 28" id="share-square-o">
    <title>share-square-o</title>
    <path class="usajobs-icon__path" d="M22 15.453v4.047c0 2.484-2.016 4.5-4.5 4.5h-13c-2.484 0-4.5-2.016-4.5-4.5v-13c0-2.484 2.016-4.5 4.5-4.5h3.984c0.266 0 0.5 0.219 0.5 0.5 0 0.25-0.172 0.453-0.406 0.5-0.781 0.266-1.484 0.578-2.078 0.938-0.078 0.031-0.156 0.063-0.25 0.063h-1.75c-1.375 0-2.5 1.125-2.5 2.5v13c0 1.375 1.125 2.5 2.5 2.5h13c1.375 0 2.5-1.125 2.5-2.5v-3.344c0-0.187 0.109-0.359 0.281-0.453 0.313-0.141 0.594-0.344 0.844-0.578 0.141-0.141 0.359-0.203 0.547-0.125s0.328 0.25 0.328 0.453zM25.703 7.703l-6 6c-0.187 0.203-0.438 0.297-0.703 0.297-0.125 0-0.266-0.031-0.391-0.078-0.359-0.156-0.609-0.516-0.609-0.922v-3h-2.5c-3.437 0-5.625 0.656-6.844 2.047-1.266 1.453-1.641 3.797-1.156 7.391 0.031 0.219-0.109 0.438-0.313 0.531-0.063 0.016-0.125 0.031-0.187 0.031-0.156 0-0.313-0.078-0.406-0.203-0.109-0.156-2.594-3.672-2.594-6.797 0-4.188 1.313-9 11.5-9h2.5v-3c0-0.406 0.25-0.766 0.609-0.922 0.125-0.047 0.266-0.078 0.391-0.078 0.266 0 0.516 0.109 0.703 0.297l6 6c0.391 0.391 0.391 1.016 0 1.406z"
    /> </symbol>
  <symbol viewBox="0 0 20 28" id="shield">
    <title>shield</title>
    <path class="usajobs-icon__path" d="M17 15v-10h-7v17.766c0.797-0.422 2.078-1.156 3.328-2.141 1.672-1.313 3.672-3.359 3.672-5.625zM20 3v12c0 6.578-9.203 10.734-9.594 10.906-0.125 0.063-0.266 0.094-0.406 0.094s-0.281-0.031-0.406-0.094c-0.391-0.172-9.594-4.328-9.594-10.906v-12c0-0.547 0.453-1 1-1h18c0.547 0 1 0.453 1 1z"
    /> </symbol>
  <symbol viewBox="0 0 24 28" id="sign-in">
    <title>sign-in</title>
    <path class="usajobs-icon__path" d="M18.5 14c0 0.266-0.109 0.516-0.297 0.703l-8.5 8.5c-0.187 0.187-0.438 0.297-0.703 0.297-0.547 0-1-0.453-1-1v-4.5h-7c-0.547 0-1-0.453-1-1v-6c0-0.547 0.453-1 1-1h7v-4.5c0-0.547 0.453-1 1-1 0.266 0 0.516 0.109 0.703 0.297l8.5 8.5c0.187 0.187 0.297 0.438 0.297 0.703zM24 8.5v11c0 2.484-2.016 4.5-4.5 4.5h-5c-0.266 0-0.5-0.234-0.5-0.5 0-0.438-0.203-1.5 0.5-1.5h5c1.375 0 2.5-1.125 2.5-2.5v-11c0-1.375-1.125-2.5-2.5-2.5h-4.5c-0.391 0-1 0.078-1-0.5 0-0.438-0.203-1.5 0.5-1.5h5c2.484 0 4.5 2.016 4.5 4.5z"
    /> </symbol>
  <symbol viewBox="0 0 25 28" id="sign-out">
    <title>sign-out</title>
    <path class="usajobs-icon__path" d="M10 22.5c0 0.438 0.203 1.5-0.5 1.5h-5c-2.484 0-4.5-2.016-4.5-4.5v-11c0-2.484 2.016-4.5 4.5-4.5h5c0.266 0 0.5 0.234 0.5 0.5 0 0.438 0.203 1.5-0.5 1.5h-5c-1.375 0-2.5 1.125-2.5 2.5v11c0 1.375 1.125 2.5 2.5 2.5h4.5c0.391 0 1-0.078 1 0.5zM24.5 14c0 0.266-0.109 0.516-0.297 0.703l-8.5 8.5c-0.187 0.187-0.438 0.297-0.703 0.297-0.547 0-1-0.453-1-1v-4.5h-7c-0.547 0-1-0.453-1-1v-6c0-0.547 0.453-1 1-1h7v-4.5c0-0.547 0.453-1 1-1 0.266 0 0.516 0.109 0.703 0.297l8.5 8.5c0.187 0.187 0.297 0.438 0.297 0.703z"
    /> </symbol>
  <symbol viewBox="0 0 24 28" id="sliders">
    <title>sliders</title>
    <path class="usajobs-icon__path" d="M5.5 22v2h-5.5v-2h5.5zM11 20c0.547 0 1 0.453 1 1v4c0 0.547-0.453 1-1 1h-4c-0.547 0-1-0.453-1-1v-4c0-0.547 0.453-1 1-1h4zM13.5 14v2h-13.5v-2h13.5zM3.5 6v2h-3.5v-2h3.5zM24 22v2h-11.5v-2h11.5zM9 4c0.547 0 1 0.453 1 1v4c0 0.547-0.453 1-1 1h-4c-0.547 0-1-0.453-1-1v-4c0-0.547 0.453-1 1-1h4zM19 12c0.547 0 1 0.453 1 1v4c0 0.547-0.453 1-1 1h-4c-0.547 0-1-0.453-1-1v-4c0-0.547 0.453-1 1-1h4zM24 14v2h-3.5v-2h3.5zM24 6v2h-13.5v-2h13.5z"
    /> </symbol>
  <symbol viewBox="0 0 16 28" id="sort-asc">
    <title>sort-asc</title>
    <path class="usajobs-icon__path" d="M16 11c0 0.547-0.453 1-1 1h-14c-0.547 0-1-0.453-1-1 0-0.266 0.109-0.516 0.297-0.703l7-7c0.187-0.187 0.438-0.297 0.703-0.297s0.516 0.109 0.703 0.297l7 7c0.187 0.187 0.297 0.438 0.297 0.703z" /> </symbol>
  <symbol viewBox="0 0 16 28" id="sort-desc">
    <title>sort-desc</title>
    <path class="usajobs-icon__path" d="M16 17c0 0.266-0.109 0.516-0.297 0.703l-7 7c-0.187 0.187-0.438 0.297-0.703 0.297s-0.516-0.109-0.703-0.297l-7-7c-0.187-0.187-0.297-0.438-0.297-0.703 0-0.547 0.453-1 1-1h14c0.547 0 1 0.453 1 1z" /> </symbol>
  <symbol viewBox="0 0 16 28" id="sort">
    <title>sort</title>
    <path class="usajobs-icon__path" d="M16 17c0 0.266-0.109 0.516-0.297 0.703l-7 7c-0.187 0.187-0.438 0.297-0.703 0.297s-0.516-0.109-0.703-0.297l-7-7c-0.187-0.187-0.297-0.438-0.297-0.703 0-0.547 0.453-1 1-1h14c0.547 0 1 0.453 1 1zM16 11c0 0.547-0.453 1-1 1h-14c-0.547 0-1-0.453-1-1 0-0.266 0.109-0.516 0.297-0.703l7-7c0.187-0.187 0.438-0.297 0.703-0.297s0.516 0.109 0.703 0.297l7 7c0.187 0.187 0.297 0.438 0.297 0.703z"
    /> </symbol>
  <symbol viewBox="0 0 28 28" id="spinner">
    <title>spinner</title>
    <path class="usajobs-icon__path" d="M8.219 21.781c0 1.094-0.891 2-2 2-1.094 0-2-0.906-2-2 0-1.109 0.906-2 2-2 1.109 0 2 0.891 2 2zM16 25c0 1.109-0.891 2-2 2s-2-0.891-2-2 0.891-2 2-2 2 0.891 2 2zM5 14c0 1.109-0.891 2-2 2s-2-0.891-2-2 0.891-2 2-2 2 0.891 2 2zM23.781 21.781c0 1.094-0.906 2-2 2-1.109 0-2-0.906-2-2 0-1.109 0.891-2 2-2 1.094 0 2 0.891 2 2zM8.719 6.219c0 1.375-1.125 2.5-2.5 2.5s-2.5-1.125-2.5-2.5 1.125-2.5 2.5-2.5 2.5 1.125 2.5 2.5zM27 14c0 1.109-0.891 2-2 2s-2-0.891-2-2 0.891-2 2-2 2 0.891 2 2zM17 3c0 1.656-1.344 3-3 3s-3-1.344-3-3 1.344-3 3-3 3 1.344 3 3zM25.281 6.219c0 1.937-1.578 3.5-3.5 3.5-1.937 0-3.5-1.563-3.5-3.5 0-1.922 1.563-3.5 3.5-3.5 1.922 0 3.5 1.578 3.5 3.5z"
    /> </symbol>
  <symbol viewBox="0 0 26 28" id="star-o">
    <title>star-o</title>
    <path class="usajobs-icon__path" d="M17.766 15.687l4.781-4.641-6.594-0.969-2.953-5.969-2.953 5.969-6.594 0.969 4.781 4.641-1.141 6.578 5.906-3.109 5.891 3.109zM26 10.109c0 0.281-0.203 0.547-0.406 0.75l-5.672 5.531 1.344 7.812c0.016 0.109 0.016 0.203 0.016 0.313 0 0.422-0.187 0.781-0.641 0.781-0.219 0-0.438-0.078-0.625-0.187l-7.016-3.687-7.016 3.687c-0.203 0.109-0.406 0.187-0.625 0.187-0.453 0-0.656-0.375-0.656-0.781 0-0.109 0.016-0.203 0.031-0.313l1.344-7.812-5.688-5.531c-0.187-0.203-0.391-0.469-0.391-0.75 0-0.469 0.484-0.656 0.875-0.719l7.844-1.141 3.516-7.109c0.141-0.297 0.406-0.641 0.766-0.641s0.625 0.344 0.766 0.641l3.516 7.109 7.844 1.141c0.375 0.063 0.875 0.25 0.875 0.719z"
    /> </symbol>
  <symbol viewBox="0 0 26 28" id="star">
    <title>star</title>
    <path class="usajobs-icon__path" d="M26 10.109c0 0.281-0.203 0.547-0.406 0.75l-5.672 5.531 1.344 7.812c0.016 0.109 0.016 0.203 0.016 0.313 0 0.406-0.187 0.781-0.641 0.781-0.219 0-0.438-0.078-0.625-0.187l-7.016-3.687-7.016 3.687c-0.203 0.109-0.406 0.187-0.625 0.187-0.453 0-0.656-0.375-0.656-0.781 0-0.109 0.016-0.203 0.031-0.313l1.344-7.812-5.688-5.531c-0.187-0.203-0.391-0.469-0.391-0.75 0-0.469 0.484-0.656 0.875-0.719l7.844-1.141 3.516-7.109c0.141-0.297 0.406-0.641 0.766-0.641s0.625 0.344 0.766 0.641l3.516 7.109 7.844 1.141c0.375 0.063 0.875 0.25 0.875 0.719z"
    /> </symbol>
  <symbol viewBox="0 0 28 28" id="suitcase">
    <title>suitcase</title>
    <path class="usajobs-icon__path" d="M10 6h8v-2h-8v2zM4.5 6v20h-1c-1.922 0-3.5-1.578-3.5-3.5v-13c0-1.922 1.578-3.5 3.5-3.5h1zM22 6v20h-16v-20h2v-2.5c0-0.828 0.672-1.5 1.5-1.5h9c0.828 0 1.5 0.672 1.5 1.5v2.5h2zM28 9.5v13c0 1.922-1.578 3.5-3.5 3.5h-1v-20h1c1.922 0 3.5 1.578 3.5 3.5z"
    /> </symbol>
  <symbol viewBox="0 0 28 28" id="sun-o">
    <title>sun-o</title>
    <path class="usajobs-icon__path" d="M23 14c0-4.969-4.031-9-9-9s-9 4.031-9 9 4.031 9 9 9 9-4.031 9-9zM27.312 18.328c-0.047 0.156-0.172 0.266-0.313 0.313l-4.562 1.5v4.781c0 0.156-0.078 0.313-0.203 0.406-0.141 0.094-0.297 0.125-0.453 0.063l-4.562-1.469-2.812 3.875c-0.094 0.125-0.25 0.203-0.406 0.203s-0.313-0.078-0.406-0.203l-2.812-3.875-4.562 1.469c-0.156 0.063-0.313 0.031-0.453-0.063-0.125-0.094-0.203-0.25-0.203-0.406v-4.781l-4.562-1.5c-0.141-0.047-0.266-0.156-0.313-0.313s-0.031-0.328 0.063-0.453l2.812-3.875-2.812-3.875c-0.094-0.141-0.109-0.297-0.063-0.453s0.172-0.266 0.313-0.313l4.562-1.5v-4.781c0-0.156 0.078-0.313 0.203-0.406 0.141-0.094 0.297-0.125 0.453-0.063l4.562 1.469 2.812-3.875c0.187-0.25 0.625-0.25 0.812 0l2.812 3.875 4.562-1.469c0.156-0.063 0.313-0.031 0.453 0.063 0.125 0.094 0.203 0.25 0.203 0.406v4.781l4.562 1.5c0.141 0.047 0.266 0.156 0.313 0.313s0.031 0.313-0.063 0.453l-2.812 3.875 2.812 3.875c0.094 0.125 0.109 0.297 0.063 0.453z"
    /> </symbol>
  <symbol viewBox="0 0 24 28" id="times-circle">
    <title>times-circle</title>
    <path class="usajobs-icon__path" d="M17.953 17.531c0-0.266-0.109-0.516-0.297-0.703l-2.828-2.828 2.828-2.828c0.187-0.187 0.297-0.438 0.297-0.703s-0.109-0.531-0.297-0.719l-1.406-1.406c-0.187-0.187-0.453-0.297-0.719-0.297s-0.516 0.109-0.703 0.297l-2.828 2.828-2.828-2.828c-0.187-0.187-0.438-0.297-0.703-0.297s-0.531 0.109-0.719 0.297l-1.406 1.406c-0.187 0.187-0.297 0.453-0.297 0.719s0.109 0.516 0.297 0.703l2.828 2.828-2.828 2.828c-0.187 0.187-0.297 0.438-0.297 0.703s0.109 0.531 0.297 0.719l1.406 1.406c0.187 0.187 0.453 0.297 0.719 0.297s0.516-0.109 0.703-0.297l2.828-2.828 2.828 2.828c0.187 0.187 0.438 0.297 0.703 0.297s0.531-0.109 0.719-0.297l1.406-1.406c0.187-0.187 0.297-0.453 0.297-0.719zM24 14c0 6.625-5.375 12-12 12s-12-5.375-12-12 5.375-12 12-12 12 5.375 12 12z"
    /> </symbol>
  <symbol viewBox="0 0 10 10" id="times">
    <title>times</title>
    <path class="usajobs-icon__path__path" d="M10,8.04713805 C10,8.27160494 9.92143659,8.4624018 9.76430976,8.61952862 L8.61952862,9.76430976 C8.4624018,9.92143659 8.27160494,10 8.04713805,10 C7.82267116,10 7.6318743,9.92143659 7.47474747,9.76430976 L5,7.28956229 L2.52525253,9.76430976 C2.3681257,9.92143659 2.17732884,10 1.95286195,10 C1.72839506,10 1.5375982,9.92143659 1.38047138,9.76430976 L0.235690236,8.61952862 C0.0785634119,8.4624018 0,8.27160494 0,8.04713805 C0,7.82267116 0.0785634119,7.6318743 0.235690236,7.47474747 L2.71043771,5 L0.235690236,2.52525253 C0.0785634119,2.3681257 0,2.17732884 0,1.95286195 C0,1.72839506 0.0785634119,1.5375982 0.235690236,1.38047138 L1.38047138,0.235690236 C1.5375982,0.0785634119 1.72839506,0 1.95286195,0 C2.17732884,0 2.3681257,0.0785634119 2.52525253,0.235690236 L5,2.71043771 L7.47474747,0.235690236 C7.6318743,0.0785634119 7.82267116,0 8.04713805,0 C8.27160494,0 8.4624018,0.0785634119 8.61952862,0.235690236 L9.76430976,1.38047138 C9.92143659,1.5375982 10,1.72839506 10,1.95286195 C10,2.17732884 9.92143659,2.3681257 9.76430976,2.52525253 L7.28956229,5 L9.76430976,7.47474747 C9.92143659,7.6318743 10,7.82267116 10,8.04713805 Z"
          />
  </symbol>
  <symbol viewBox="0 0 32 28" id="toggle-off">
    <title>toggle-off</title>
    <path class="usajobs-icon__path" d="M18 14c0-4.406-3.594-8-8-8s-8 3.594-8 8 3.594 8 8 8 8-3.594 8-8zM30 14c0-4.406-3.594-8-8-8h-6.031c2.438 1.828 4.031 4.734 4.031 8s-1.594 6.172-4.031 8h6.031c4.406 0 8-3.594 8-8zM32 14c0 5.516-4.484 10-10 10h-12c-5.516 0-10-4.484-10-10s4.484-10 10-10h12c5.516 0 10 4.484 10 10z"
    /> </symbol>
  <symbol viewBox="0 0 32 28" id="toggle-on">
    <title>toggle-on</title>
    <path class="usajobs-icon__path" d="M0 14c0-5.516 4.484-10 10-10h12c5.516 0 10 4.484 10 10s-4.484 10-10 10h-12c-5.516 0-10-4.484-10-10zM22 22c4.406 0 8-3.594 8-8s-3.594-8-8-8-8 3.594-8 8 3.594 8 8 8z" /> </symbol>
  <symbol viewBox="0 0 24 28" id="tree">
    <title>tree</title>
    <path class="usajobs-icon__path" d="M23.5 23c0 0.547-0.453 1-1 1h-7.219c0.047 1 0.172 2.047 0.172 3.063 0 0.516-0.422 0.938-0.953 0.938h-5c-0.531 0-0.953-0.422-0.953-0.938 0-1.016 0.125-2.063 0.172-3.063h-7.219c-0.547 0-1-0.453-1-1 0-0.266 0.109-0.516 0.297-0.703l6.281-6.297h-3.578c-0.547 0-1-0.453-1-1 0-0.266 0.109-0.516 0.297-0.703l6.281-6.297h-3.078c-0.547 0-1-0.453-1-1 0-0.266 0.109-0.516 0.297-0.703l6-6c0.187-0.187 0.438-0.297 0.703-0.297s0.516 0.109 0.703 0.297l6 6c0.187 0.187 0.297 0.438 0.297 0.703 0 0.547-0.453 1-1 1h-3.078l6.281 6.297c0.187 0.187 0.297 0.438 0.297 0.703 0 0.547-0.453 1-1 1h-3.578l6.281 6.297c0.187 0.187 0.297 0.438 0.297 0.703z"
    /> </symbol>
  <symbol viewBox="0 0 26 28" id="twitter">
    <title>twitter</title>
    <path class="usajobs-icon__path" d="M25.312 6.375c-0.688 1-1.547 1.891-2.531 2.609 0.016 0.219 0.016 0.438 0.016 0.656 0 6.672-5.078 14.359-14.359 14.359-2.859 0-5.516-0.828-7.75-2.266 0.406 0.047 0.797 0.063 1.219 0.063 2.359 0 4.531-0.797 6.266-2.156-2.219-0.047-4.078-1.5-4.719-3.5 0.313 0.047 0.625 0.078 0.953 0.078 0.453 0 0.906-0.063 1.328-0.172-2.312-0.469-4.047-2.5-4.047-4.953v-0.063c0.672 0.375 1.453 0.609 2.281 0.641-1.359-0.906-2.25-2.453-2.25-4.203 0-0.938 0.25-1.797 0.688-2.547 2.484 3.062 6.219 5.063 10.406 5.281-0.078-0.375-0.125-0.766-0.125-1.156 0-2.781 2.25-5.047 5.047-5.047 1.453 0 2.766 0.609 3.687 1.594 1.141-0.219 2.234-0.641 3.203-1.219-0.375 1.172-1.172 2.156-2.219 2.781 1.016-0.109 2-0.391 2.906-0.781z"
    /> </symbol>
  <symbol viewBox="0 0 32 28" id="user-plus">
    <title>user-plus</title>
    <path class="usajobs-icon__path" d="M11 14c-3.313 0-6-2.688-6-6s2.688-6 6-6 6 2.688 6 6-2.688 6-6 6zM26 16h5.5c0.266 0 0.5 0.234 0.5 0.5v3c0 0.266-0.234 0.5-0.5 0.5h-5.5v5.5c0 0.266-0.234 0.5-0.5 0.5h-3c-0.266 0-0.5-0.234-0.5-0.5v-5.5h-5.5c-0.266 0-0.5-0.234-0.5-0.5v-3c0-0.266 0.234-0.5 0.5-0.5h5.5v-5.5c0-0.266 0.234-0.5 0.5-0.5h3c0.266 0 0.5 0.234 0.5 0.5v5.5zM14.5 19.5c0 1.094 0.906 2 2 2h4v3.719c-0.766 0.562-1.734 0.781-2.672 0.781h-13.656c-2.5 0-4.172-1.5-4.172-4.047 0-3.531 0.828-8.953 5.406-8.953 0.25 0 0.422 0.109 0.609 0.266 1.531 1.172 3.016 1.906 4.984 1.906s3.453-0.734 4.984-1.906c0.187-0.156 0.359-0.266 0.609-0.266 1.328 0 2.5 0.5 3.391 1.5h-3.484c-1.094 0-2 0.906-2 2v3z"
    /> </symbol>
  <symbol viewBox="0 0 20 28" id="user">
    <title>user</title>
    <path class="usajobs-icon__path" d="M20 21.859c0 2.281-1.5 4.141-3.328 4.141h-13.344c-1.828 0-3.328-1.859-3.328-4.141 0-4.109 1.016-8.859 5.109-8.859 1.266 1.234 2.984 2 4.891 2s3.625-0.766 4.891-2c4.094 0 5.109 4.75 5.109 8.859zM16 8c0 3.313-2.688 6-6 6s-6-2.688-6-6 2.688-6 6-6 6 2.688 6 6z"
    /> </symbol>
  <symbol viewBox="0 0 24 28" id="wheelchair-alt">
    <title>wheelchair-alt</title>
    <path class="usajobs-icon__path" d="M22.469 12.703c0.328 0.344 0.5 0.812 0.453 1.281l-0.688 8.609c-0.078 0.875-0.797 1.531-1.656 1.531-0.047 0-0.094 0-0.141-0.016-0.922-0.063-1.594-0.875-1.531-1.781l0.547-6.703-2.234 0.125c0.547 1.125 0.859 2.406 0.859 3.75 0 2.25-0.875 4.297-2.312 5.812l-2.141-2.141c0.875-0.969 1.422-2.266 1.422-3.672 0-3.031-2.453-5.484-5.469-5.484-1.422 0-2.703 0.547-3.687 1.437l-2.141-2.156c1.203-1.141 2.734-1.922 4.438-2.203l4.125-4.688-2.328-1.359-2.828 2.516c-0.688 0.625-1.734 0.562-2.344-0.125s-0.547-1.734 0.125-2.344l3.734-3.328c0.531-0.484 1.313-0.562 1.937-0.187 7.609 4.422 7.625 4.422 7.625 4.422 0.406 0.234 0.641 0.641 0.75 1.062 0.156 0.609 0.047 1.297-0.406 1.828l-3.203 3.625 5.797-0.313c0.484-0.031 0.953 0.141 1.297 0.5zM19.375 5.563c-1.531 0-2.781-1.234-2.781-2.781 0-1.531 1.25-2.781 2.781-2.781 1.547 0 2.797 1.25 2.797 2.781 0 1.547-1.25 2.781-2.797 2.781zM9.578 24.969c1.125 0 2.188-0.359 3.063-0.953l2.172 2.172c-1.437 1.141-3.266 1.813-5.234 1.813-4.703 0-8.516-3.813-8.516-8.5 0-1.984 0.672-3.797 1.813-5.25l2.172 2.172c-0.594 0.875-0.938 1.937-0.938 3.078 0 3.016 2.453 5.469 5.469 5.469z"
    /> </symbol>
  <symbol viewBox="0 0 28 28" id="youtube-play">
    <title>youtube-play</title>
    <path class="usajobs-icon__path" d="M11.109 17.625l7.562-3.906-7.562-3.953v7.859zM14 4.156c5.891 0 9.797 0.281 9.797 0.281 0.547 0.063 1.75 0.063 2.812 1.188 0 0 0.859 0.844 1.109 2.781 0.297 2.266 0.281 4.531 0.281 4.531v2.125s0.016 2.266-0.281 4.531c-0.25 1.922-1.109 2.781-1.109 2.781-1.062 1.109-2.266 1.109-2.812 1.172 0 0-3.906 0.297-9.797 0.297v0c-7.281-0.063-9.516-0.281-9.516-0.281-0.625-0.109-2.031-0.078-3.094-1.188 0 0-0.859-0.859-1.109-2.781-0.297-2.266-0.281-4.531-0.281-4.531v-2.125s-0.016-2.266 0.281-4.531c0.25-1.937 1.109-2.781 1.109-2.781 1.062-1.125 2.266-1.125 2.812-1.188 0 0 3.906-0.281 9.797-0.281v0z"
    /> </symbol>
</svg>
