<svg xmlns="http://www.w3.org/2000/svg">
  <symbol viewBox="0 0 46 46" id="family-of-overseas-employees">
    <title>family-of-overseas-employees</title>
    <desc>Created with Sketch.</desc>
    <!-- Generator: Sketch 47 (45396) - http://www.bohemiancoding.com/sketch -->
    <g id="family-of-overseas-employees-Symbols" stroke="none" stroke-width="1" fill="none" fill-rule="evenodd">
      <g id="family-of-overseas-employees-family-of-overseas-employees">
        <path d="M22.9992043,45 C10.8497486,45 1,35.1506076 1,23 C1,10.8493924 10.8497486,1 22.9992043,1 C35.1502514,1 45,10.8493924 45,23 C45,35.1506076 35.1502514,45 22.9992043,45 Z" id="family-of-overseas-employees-Fill-1-Copy-3" fill="#046B99" />
        <g id="family-of-overseas-employees-plane" transform="translate(10.000000, 11.000000)" fill-rule="nonzero" fill="#FFFFFF">
          <path d="M25.5681818,0.568181818 C26.7045455,1.70454545 25.5681818,4.54545455 23.8636364,6.25 L21.0045455,9.10909091 L23.8454545,21.4670455 C23.8988636,21.6795455 23.8102273,21.9113636 23.6329545,22.0534091 L21.3602273,23.7579545 C21.2715909,23.8295455 21.1477273,23.8647727 21.0227273,23.8647727 C20.9875,23.8647727 20.9511364,23.8647727 20.8988636,23.8465909 C20.7386364,23.8113636 20.5965909,23.7227273 20.5261364,23.5625 L15.5727273,14.5420455 L10.9738636,19.1409091 L11.9147727,22.5852273 C11.9681818,22.7806818 11.9147727,22.9761364 11.7727273,23.1352273 L10.0681818,24.8397727 C9.96136364,24.9465909 9.80227273,25 9.66022727,25 L9.625,25 C9.44772727,24.9818182 9.30568182,24.9113636 9.19886364,24.7693182 L5.84318182,20.2943182 L1.36818182,16.9386364 C1.22613636,16.85 1.15568182,16.6897727 1.1375,16.5306818 C1.11931818,16.3715909 1.19090909,16.2113636 1.29772727,16.0863636 L3.00227273,14.3636364 C3.10909091,14.2568182 3.26818182,14.2034091 3.41022727,14.2034091 C3.46363636,14.2034091 3.51704545,14.2034091 3.55227273,14.2215909 L6.99659091,15.1625 L11.5954545,10.5636364 L2.575,5.61022727 C2.41477273,5.52159091 2.30909091,5.36136364 2.27272727,5.18409091 C2.25454545,5.02386364 2.30795455,4.82840909 2.43295455,4.70454545 L4.70568182,2.43181818 C4.84772727,2.30795455 5.06136364,2.23636364 5.23863636,2.28977273 L17.0465909,5.1125 L19.8875,2.27159091 C21.5920455,0.567045455 24.4329545,-0.569318182 25.5693182,0.567045455 L25.5681818,0.568181818 Z"
          id="family-of-overseas-employees-Shape" /> </g>
      </g>
    </g>
  </symbol>
  <symbol viewBox="0 0 46 46" id="federal-employees">
    <title>federal-employees</title>
    <desc>Created with Sketch.</desc>
    <!-- Generator: Sketch 47 (45396) - http://www.bohemiancoding.com/sketch -->
    <g id="federal-employees-Symbols" stroke="none" stroke-width="1" fill="none" fill-rule="evenodd">
      <g id="federal-employees-federal-employees">
        <g id="federal-employees-Group" transform="translate(1.000000, 1.000000)">
          <circle id="federal-employees-Oval-3" fill="#112E51" cx="22" cy="22" r="22" />
          <g id="federal-employees-institution" transform="translate(7.000000, 8.000000)" fill-rule="nonzero" fill="#FFFFFF">
            <path d="M15,0 L30,5.625 L30,7.5 L28,7.5 C28,7.75390625 27.8932292,7.97363281 27.6796875,8.15917969 C27.4661458,8.34472656 27.2135417,8.4375 26.921875,8.4375 L3.078125,8.4375 C2.78645833,8.4375 2.53385417,8.34472656 2.3203125,8.15917969 C2.10677083,7.97363281 2,7.75390625 2,7.5 L0,7.5 L0,5.625 L15,0 Z M4,9.375 L8,9.375 L8,20.625 L10,20.625 L10,9.375 L14,9.375 L14,20.625 L16,20.625 L16,9.375 L20,9.375 L20,20.625 L22,20.625 L22,9.375 L26,9.375 L26,20.625 L26.921875,20.625 C27.2135417,20.625 27.4661458,20.7177734 27.6796875,20.9033203 C27.8932292,21.0888672 28,21.3085938 28,21.5625 L28,22.5 L2,22.5 L2,21.5625 C2,21.3085938 2.10677083,21.0888672 2.3203125,20.9033203 C2.53385417,20.7177734 2.78645833,20.625 3.078125,20.625 L4,20.625 L4,9.375 Z M28.921875,23.4375 C29.2135417,23.4375 29.4661458,23.5302734 29.6796875,23.7158203 C29.8932292,23.9013672 30,24.1210938 30,24.375 L30,26.25 L0,26.25 L0,24.375 C0,24.1210938 0.106770833,23.9013672 0.3203125,23.7158203 C0.533854167,23.5302734 0.786458333,23.4375 1.078125,23.4375 L28.921875,23.4375 Z"
            id="federal-employees-Shape" /> </g>
        </g>
      </g>
    </g>
  </symbol>
  <symbol viewBox="0 0 46 46" id="individuals-with-disabilities">
    <title>individuals-with-disabilities</title>
    <desc>Created with Sketch.</desc>
    <!-- Generator: Sketch 47 (45396) - http://www.bohemiancoding.com/sketch -->
    <g id="individuals-with-disabilities-Symbols" stroke="none" stroke-width="1" fill="none" fill-rule="evenodd">
      <g id="individuals-with-disabilities-individuals-with-disabilities">
        <path d="M45,23 C45,35.1506076 35.1502514,45 22.9992043,45 C10.8497486,45 1,35.1506076 1,23 C1,10.8493924 10.8497486,1 22.9992043,1 C35.1502514,1 45,10.8493924 45,23" id="individuals-with-disabilities-Fill-1-Copy-2" fill="#205493" />
        <g id="individuals-with-disabilities-wheelchair-alt" transform="translate(13.000000, 10.000000)" fill-rule="nonzero" fill="#FFFFFF">
          <path d="M19.248069,11.3888966 C19.5421379,11.6973103 19.6963448,12.1168966 19.6542069,12.5373793 L19.0373793,20.2557931 C18.9674483,21.0402759 18.3228276,21.6284138 17.5526897,21.6284138 C17.5105517,21.6284138 17.4684138,21.6284138 17.4262759,21.614069 C16.5996552,21.5575862 15.9971724,20.8295862 16.0536552,20.0173103 L16.544069,14.0077241 L14.5411724,14.1197931 C15.0315862,15.1284138 15.3113103,16.2768966 15.3113103,17.4818621 C15.3113103,19.4991034 14.5268276,21.3343448 13.2384828,22.6926207 L11.3189655,20.7731034 C12.1034483,19.9043448 12.5938621,18.7415172 12.5938621,17.4809655 C12.5938621,14.7635172 10.3946207,12.5642759 7.69062069,12.5642759 C6.41572414,12.5642759 5.26724138,13.0546897 4.38503448,13.8526207 L2.46551724,11.9196552 C3.54406897,10.8966897 4.91668966,10.1964828 6.44441379,9.94455172 L10.1426897,5.74151724 L8.05551724,4.52310345 L5.52006897,6.77882759 C4.90324138,7.33917241 3.96544828,7.28268966 3.41855172,6.66675862 C2.87165517,6.05082759 2.92813793,5.11213793 3.53062069,4.56524138 L6.87834483,1.58151724 C7.35441379,1.14758621 8.05551724,1.07765517 8.61496552,1.41386207 C15.4368276,5.37841379 15.4511724,5.37841379 15.4511724,5.37841379 C15.8151724,5.5882069 16.0258621,5.95310345 16.1235862,6.33055172 C16.2634483,6.87655172 16.1657241,7.49337931 15.7595862,7.96944828 L12.887931,11.2194483 L18.0852414,10.9388276 C18.5191724,10.9110345 18.9396552,11.0652414 19.248069,11.3871034 L19.248069,11.3888966 Z M16.4741379,4.98751724 C15.1015172,4.98751724 13.9808276,3.88117241 13.9808276,2.4942069 C13.9808276,1.12158621 15.1015172,0.000896551724 16.4741379,0.000896551724 C17.8611034,0.000896551724 18.9817931,1.12158621 18.9817931,2.4942069 C18.9817931,3.88117241 17.8611034,4.98751724 16.4741379,4.98751724 Z M7.69062069,22.386 C8.69924138,22.386 9.65227586,22.0641379 10.4367586,21.5315862 L12.384069,23.4788966 C11.0957241,24.5018621 9.45593103,25.1043448 7.69151724,25.1043448 C3.47503448,25.1043448 0.0564827586,21.6857931 0.0564827586,17.4836552 C0.0564827586,15.7048966 0.658965517,14.0794483 1.68193103,12.7767586 L3.62924138,14.724069 C3.09668966,15.5085517 2.78827586,16.4606897 2.78827586,17.4836552 C2.78827586,20.1876552 4.98751724,22.3868966 7.69151724,22.3868966 L7.69062069,22.386 Z"
          id="individuals-with-disabilities-Shape" /> </g>
      </g>
    </g>
  </symbol>
  <symbol viewBox="0 0 46 46" id="internal-to-an-agency">
    <title>internal-to-an-agency</title>
    <desc>Created with Sketch.</desc>
    <!-- Generator: Sketch 47 (45396) - http://www.bohemiancoding.com/sketch -->
    <g id="internal-to-an-agency-Symbols" stroke="none" stroke-width="1" fill="none" fill-rule="evenodd">
      <g id="internal-to-an-agency-internal-to-an-agency">
        <g id="internal-to-an-agency-Group-2" transform="translate(1.000000, 1.000000)">
          <g id="internal-to-an-agency-Group" fill="#112E51">
            <circle id="internal-to-an-agency-Oval-3" cx="22" cy="22" r="22" /> </g>
          <g id="internal-to-an-agency-bullseye" transform="translate(9.000000, 9.000000)" fill-rule="nonzero" fill="#FFFFFF">
            <path d="M17.3333333,13 C17.3333333,15.3865833 15.3865833,17.3333333 13,17.3333333 C10.6134167,17.3333333 8.66666667,15.3865833 8.66666667,13 C8.66666667,10.6134167 10.6134167,8.66666667 13,8.66666667 C15.3865833,8.66666667 17.3333333,10.6134167 17.3333333,13 Z M19.5,13 C19.5,9.41091667 16.588,6.5 13,6.5 C9.412,6.5 6.5,9.412 6.5,13 C6.5,16.588 9.412,19.5 13,19.5 C16.588,19.5 19.5,16.588 19.5,13 Z M21.6666667,13 C21.6666667,17.7905 17.7905,21.6666667 13,21.6666667 C8.2095,21.6666667 4.33333333,17.7905 4.33333333,13 C4.33333333,8.2095 8.2095,4.33333333 13,4.33333333 C17.7905,4.33333333 21.6666667,8.2095 21.6666667,13 Z M23.8333333,13 C23.8333333,7.02433333 18.9756667,2.16666667 13,2.16666667 C7.02433333,2.16666667 2.16666667,7.02433333 2.16666667,13 C2.16666667,18.9756667 7.02433333,23.8333333 13,23.8333333 C18.9756667,23.8333333 23.8333333,18.9756667 23.8333333,13 Z M26,13 C26,20.1770833 20.1770833,26 13,26 C5.82291667,26 0,20.1770833 0,13 C0,5.82291667 5.82291667,0 13,0 C20.1770833,0 26,5.82291667 26,13 Z"
            id="internal-to-an-agency-Shape" /> </g>
        </g>
      </g>
    </g>
  </symbol>
  <symbol viewBox="0 0 46 46" id="land-mgmt">
    <title>land-mgmt</title>
    <desc>Created with Sketch.</desc>
    <!-- Generator: Sketch 47 (45396) - http://www.bohemiancoding.com/sketch -->
    <g id="land-mgmt-Symbols" stroke="none" stroke-width="1" fill="none" fill-rule="evenodd">
      <g id="land-mgmt-land-mgmt">
        <g id="land-mgmt-Group" transform="translate(1.000000, 1.000000)">
          <path d="M44,22 C44,34.1506076 34.1502514,44 21.9992043,44 C9.84974862,44 0,34.1506076 0,22 C0,9.84939236 9.84974862,0 21.9992043,0 C34.1502514,0 44,9.84939236 44,22" id="land-mgmt-Fill-1-Copy-9" fill="#494440" />
          <g id="land-mgmt-tree" transform="translate(10.000000, 8.000000)" fill-rule="nonzero" fill="#FFFFFF">
            <path d="M23.5,23 C23.5,23.547 23.047,24 22.5,24 L15.281,24 C15.328,25 15.453,26.047 15.453,27.063 C15.453,27.579 15.031,28.001 14.5,28.001 L9.5,28.001 C8.969,28.001 8.547,27.579 8.547,27.063 C8.547,26.047 8.672,25 8.719,24 L1.5,24 C0.953,24 0.5,23.547 0.5,23 C0.5,22.734 0.609,22.484 0.797,22.297 L7.078,16 L3.5,16 C2.953,16 2.5,15.547 2.5,15 C2.5,14.734 2.609,14.484 2.797,14.297 L9.078,8 L6,8 C5.453,8 5,7.547 5,7 C5,6.734 5.109,6.484 5.297,6.297 L11.297,0.297 C11.484,0.11 11.735,0 12,0 C12.265,0 12.516,0.109 12.703,0.297 L18.703,6.297 C18.89,6.484 19,6.735 19,7 C19,7.547 18.547,8 18,8 L14.922,8 L21.203,14.297 C21.39,14.484 21.5,14.735 21.5,15 C21.5,15.547 21.047,16 20.5,16 L16.922,16 L23.203,22.297 C23.39,22.484 23.5,22.735 23.5,23 Z"
            id="land-mgmt-Shape" /> </g>
        </g>
      </g>
    </g>
  </symbol>
  <symbol viewBox="0 0 46 46" id="military-spouses">
    <title>military-spouses</title>
    <desc>Created with Sketch.</desc>
    <!-- Generator: Sketch 47 (45396) - http://www.bohemiancoding.com/sketch -->
    <g id="military-spouses-Symbols" stroke="none" stroke-width="1" fill="none" fill-rule="evenodd">
      <g id="military-spouses-military-spouses">
        <path d="M46,23 C46,35.1506076 36.1502514,45 23.9992043,45 C11.8497486,45 2,35.1506076 2,23 C2,10.8493924 11.8497486,1 23.9992043,1 C36.1502514,1 46,10.8493924 46,23" id="military-spouses-Fill-1-Copy-4" fill="#2E8540" />
        <g id="military-spouses-Group" transform="translate(8.000000, 10.000000)" fill-rule="nonzero" fill="#FFFFFF">
          <g id="military-spouses-circle-o" transform="translate(10.400000, 3.466667)">
            <path d="M11.2666667,3.28611111 C9.81921296,3.28611111 8.48423032,3.64308449 7.26171875,4.35703125 C6.03920718,5.07097801 5.07097801,6.03920718 4.35703125,7.26171875 C3.64308449,8.48423032 3.28611111,9.81921296 3.28611111,11.2666667 C3.28611111,12.7141204 3.64308449,14.049103 4.35703125,15.2716146 C5.07097801,16.4941262 6.03920718,17.4623553 7.26171875,18.1763021 C8.48423032,18.8902488 9.81921296,19.2472222 11.2666667,19.2472222 C12.7141204,19.2472222 14.049103,18.8902488 15.2716146,18.1763021 C16.4941262,17.4623553 17.4623553,16.4941262 18.1763021,15.2716146 C18.8902488,14.049103 19.2472222,12.7141204 19.2472222,11.2666667 C19.2472222,9.81921296 18.8902488,8.48423032 18.1763021,7.26171875 C17.4623553,6.03920718 16.4941262,5.07097801 15.2716146,4.35703125 C14.049103,3.64308449 12.7141204,3.28611111 11.2666667,3.28611111 Z M22.5333333,11.2666667 C22.5333333,13.310706 22.0296586,15.1958189 21.022309,16.9220052 C20.0149595,18.6481916 18.6481916,20.0149595 16.9220052,21.022309 C15.1958189,22.0296586 13.310706,22.5333333 11.2666667,22.5333333 C9.22262731,22.5333333 7.33751447,22.0296586 5.61132812,21.022309 C3.88514178,20.0149595 2.51837384,18.6481916 1.51102431,16.9220052 C0.503674769,15.1958189 0,13.310706 0,11.2666667 C0,9.22262731 0.503674769,7.33751447 1.51102431,5.61132812 C2.51837384,3.88514178 3.88514178,2.51837384 5.61132812,1.51102431 C7.33751447,0.503674769 9.22262731,0 11.2666667,0 C13.310706,0 15.1958189,0.503674769 16.9220052,1.51102431 C18.6481916,2.51837384 20.0149595,3.88514178 21.022309,5.61132812 C22.0296586,7.33751447 22.5333333,9.22262731 22.5333333,11.2666667 Z"
            id="military-spouses-Shape" /> </g>
          <g id="military-spouses-circle-o-copy" opacity="0.8">
            <path d="M11.2666667,3.28611111 C9.81921296,3.28611111 8.48423032,3.64308449 7.26171875,4.35703125 C6.03920718,5.07097801 5.07097801,6.03920718 4.35703125,7.26171875 C3.64308449,8.48423032 3.28611111,9.81921296 3.28611111,11.2666667 C3.28611111,12.7141204 3.64308449,14.049103 4.35703125,15.2716146 C5.07097801,16.4941262 6.03920718,17.4623553 7.26171875,18.1763021 C8.48423032,18.8902488 9.81921296,19.2472222 11.2666667,19.2472222 C12.7141204,19.2472222 14.049103,18.8902488 15.2716146,18.1763021 C16.4941262,17.4623553 17.4623553,16.4941262 18.1763021,15.2716146 C18.8902488,14.049103 19.2472222,12.7141204 19.2472222,11.2666667 C19.2472222,9.81921296 18.8902488,8.48423032 18.1763021,7.26171875 C17.4623553,6.03920718 16.4941262,5.07097801 15.2716146,4.35703125 C14.049103,3.64308449 12.7141204,3.28611111 11.2666667,3.28611111 Z M22.5333333,11.2666667 C22.5333333,13.310706 22.0296586,15.1958189 21.022309,16.9220052 C20.0149595,18.6481916 18.6481916,20.0149595 16.9220052,21.022309 C15.1958189,22.0296586 13.310706,22.5333333 11.2666667,22.5333333 C9.22262731,22.5333333 7.33751447,22.0296586 5.61132812,21.022309 C3.88514178,20.0149595 2.51837384,18.6481916 1.51102431,16.9220052 C0.503674769,15.1958189 0,13.310706 0,11.2666667 C0,9.22262731 0.503674769,7.33751447 1.51102431,5.61132812 C2.51837384,3.88514178 3.88514178,2.51837384 5.61132812,1.51102431 C7.33751447,0.503674769 9.22262731,0 11.2666667,0 C13.310706,0 15.1958189,0.503674769 16.9220052,1.51102431 C18.6481916,2.51837384 20.0149595,3.88514178 21.022309,5.61132812 C22.0296586,7.33751447 22.5333333,9.22262731 22.5333333,11.2666667 Z"
            id="military-spouses-Shape" /> </g>
        </g>
      </g>
    </g>
  </symbol>
  <symbol viewBox="0 0 46 46" id="national-guard">
    <title>national-guard</title>
    <desc>Created with Sketch.</desc>
    <!-- Generator: Sketch 47 (45396) - http://www.bohemiancoding.com/sketch -->
    <g id="national-guard-Symbols" stroke="none" stroke-width="1" fill="none" fill-rule="evenodd">
      <g id="national-guard-national-guard">
        <g id="national-guard-Group" transform="translate(1.000000, 1.000000)">
          <path d="M44,22 C44,34.1506076 34.1502514,44 21.9992043,44 C9.84974862,44 0,34.1506076 0,22 C0,9.84939236 9.84974862,0 21.9992043,0 C34.1502514,0 44,9.84939236 44,22" id="national-guard-Fill-1-Copy-5" fill="#E31C3D" />
          <g id="national-guard-flag" transform="translate(9.000000, 10.000000)" fill-rule="nonzero" fill="#FFFFFF">
            <path d="M4,2 C4,2.719 3.609,3.359 3,3.719 L3,23.5 C3,23.766 2.766,24 2.5,24 L1.5,24 C1.234,24 1,23.766 1,23.5 L1,3.719 C0.391,3.36 0,2.719 0,2 C0,0.891 0.891,0 2,0 C3.109,0 4,0.891 4,2 Z M27,3 L27,14.922 C27,15.5 26.641,15.719 26.188,15.953 C24.422,16.906 22.469,17.766 20.422,17.766 C17.547,17.766 16.172,15.578 12.766,15.578 C10.282,15.578 7.672,16.703 5.516,17.859 C5.344,17.953 5.188,18 5,18 C4.453,18 4,17.547 4,17 L4,5.406 C4,5.031 4.187,4.765 4.484,4.547 C4.859,4.297 5.312,4.078 5.718,3.875 C7.687,2.875 10.077,2 12.296,2 C14.749,2 16.671,2.812 18.843,3.828 C19.281,4.047 19.734,4.125 20.218,4.125 C22.671,4.125 25.312,2 25.999,2 C26.546,2 26.999,2.453 26.999,3 L27,3 Z"
            id="national-guard-Shape" /> </g>
        </g>
      </g>
    </g>
  </symbol>
  <symbol viewBox="0 0 46 46" id="native-americans">
    <title>native-americans</title>
    <desc>Created with Sketch.</desc>
    <!-- Generator: Sketch 47 (45396) - http://www.bohemiancoding.com/sketch -->
    <g id="native-americans-Symbols" stroke="none" stroke-width="1" fill="none" fill-rule="evenodd">
      <g id="native-americans-native-americans">
        <g id="native-americans-Group" transform="translate(1.000000, 1.000000)">
          <path d="M44,22 C44,34.1506076 34.1502514,44 21.9992043,44 C9.84974862,44 0,34.1506076 0,22 C0,9.84939236 9.84974862,0 21.9992043,0 C34.1502514,0 44,9.84939236 44,22" id="native-americans-Fill-1-Copy-6" fill="#5B616B" />
          <g id="native-americans-sun-o" transform="translate(8.000000, 8.000000)" fill-rule="nonzero" fill="#FFFFFF">
            <path d="M23,14 C23,9.031 18.969,5 14,5 C9.031,5 5,9.031 5,14 C5,18.969 9.031,23 14,23 C18.969,23 23,18.969 23,14 Z M27.312,18.328 C27.265,18.484 27.14,18.594 26.999,18.641 L22.437,20.141 L22.437,24.922 C22.437,25.078 22.359,25.235 22.234,25.328 C22.093,25.422 21.937,25.453 21.781,25.391 L17.219,23.922 L14.407,27.797 C14.313,27.922 14.157,28 14.001,28 C13.845,28 13.688,27.922 13.595,27.797 L10.783,23.922 L6.221,25.391 C6.065,25.454 5.908,25.422 5.768,25.328 C5.643,25.234 5.565,25.078 5.565,24.922 L5.565,20.141 L1.003,18.641 C0.862,18.594 0.737,18.485 0.69,18.328 C0.643,18.171 0.659,18 0.753,17.875 L3.565,14 L0.753,10.125 C0.659,9.984 0.644,9.828 0.69,9.672 C0.736,9.516 0.862,9.406 1.003,9.359 L5.565,7.859 L5.565,3.078 C5.565,2.922 5.643,2.765 5.768,2.672 C5.909,2.578 6.065,2.547 6.221,2.609 L10.783,4.078 L13.595,0.203 C13.782,-0.047 14.22,-0.047 14.407,0.203 L17.219,4.078 L21.781,2.609 C21.937,2.546 22.094,2.578 22.234,2.672 C22.359,2.766 22.437,2.922 22.437,3.078 L22.437,7.859 L26.999,9.359 C27.14,9.406 27.265,9.515 27.312,9.672 C27.359,9.829 27.343,9.985 27.249,10.125 L24.437,14 L27.249,17.875 C27.343,18 27.358,18.172 27.312,18.328 Z"
            id="native-americans-Shape" /> </g>
        </g>
      </g>
    </g>
  </symbol>
  <symbol viewBox="0 0 46 46" id="peace-corps">
    <title>peace-corps</title>
    <desc>Created with Sketch.</desc>
    <!-- Generator: Sketch 47 (45396) - http://www.bohemiancoding.com/sketch -->
    <g id="peace-corps-Symbols" stroke="none" stroke-width="1" fill="none" fill-rule="evenodd">
      <g id="peace-corps-peace-corps">
        <g id="peace-corps-Group" transform="translate(1.000000, 1.000000)">
          <path d="M44,22 C44,34.1506076 34.1502514,44 21.9992043,44 C9.84974862,44 0,34.1506076 0,22 C0,9.84939236 9.84974862,0 21.9992043,0 C34.1502514,0 44,9.84939236 44,22" id="peace-corps-Fill-1-Copy-7" fill="#4C2C92" />
          <g id="peace-corps-globe" transform="translate(9.000000, 9.000000)" fill-rule="nonzero" fill="#FFFFFF">
            <path d="M13,0 C15.3585069,0 17.5336372,0.581163194 19.5253906,1.74348958 C21.5171441,2.90581597 23.094184,4.4828559 24.2565104,6.47460938 C25.4188368,8.46636285 26,10.6414931 26,13 C26,15.3585069 25.4188368,17.5336372 24.2565104,19.5253906 C23.094184,21.5171441 21.5171441,23.094184 19.5253906,24.2565104 C17.5336372,25.4188368 15.3585069,26 13,26 C10.6414931,26 8.46636285,25.4188368 6.47460938,24.2565104 C4.4828559,23.094184 2.90581597,21.5171441 1.74348958,19.5253906 C0.581163194,17.5336372 0,15.3585069 0,13 C0,10.6414931 0.581163194,8.46636285 1.74348958,6.47460938 C2.90581597,4.4828559 4.4828559,2.90581597 6.47460938,1.74348958 C8.46636285,0.581163194 10.6414931,0 13,0 Z M17.6380208,8.81901042 C17.6154514,8.83029514 17.561849,8.88389757 17.4772135,8.97981771 C17.3925781,9.07573785 17.3164062,9.12934028 17.2486979,9.140625 C17.2712674,9.140625 17.296658,9.11241319 17.3248698,9.05598958 C17.3530816,8.99956597 17.3812934,8.9375 17.4095052,8.86979167 C17.437717,8.80208333 17.4574653,8.76258681 17.46875,8.75130208 C17.5364583,8.67230903 17.6605903,8.58767361 17.8411458,8.49739583 C17.9991319,8.4296875 18.2925347,8.36197917 18.7213542,8.29427083 C19.1050347,8.20399306 19.3927951,8.26605903 19.5846354,8.48046875 C19.562066,8.45789931 19.6156684,8.38454861 19.7454427,8.26041667 C19.875217,8.13628472 19.9570312,8.06857639 19.9908854,8.05729167 C20.0247396,8.03472222 20.109375,8.0093316 20.2447917,7.98111979 C20.3802083,7.95290799 20.4648437,7.91059028 20.4986979,7.85416667 L20.5325521,7.48177083 C20.3971354,7.49305556 20.2983941,7.45355903 20.2363281,7.36328125 C20.1742622,7.27300347 20.1375868,7.15451389 20.1263021,7.0078125 C20.1263021,7.03038194 20.0924479,7.07552083 20.0247396,7.14322917 C20.0247396,7.06423611 19.999349,7.01909722 19.9485677,7.0078125 C19.8977865,6.99652778 19.8328993,7.00217014 19.7539062,7.02473958 C19.6749132,7.04730903 19.6241319,7.05295139 19.6015625,7.04166667 C19.4887153,7.0078125 19.4040799,6.96549479 19.3476562,6.91471354 C19.2912326,6.86393229 19.2460937,6.77083333 19.2122396,6.63541667 C19.1783854,6.5 19.155816,6.41536458 19.1445312,6.38151042 C19.1219618,6.32508681 19.0683594,6.26302083 18.983724,6.1953125 C18.8990885,6.12760417 18.8454861,6.07118056 18.8229167,6.02604167 C18.8116319,6.00347222 18.797526,5.97243924 18.780599,5.93294271 C18.7636719,5.89344618 18.7467448,5.85677083 18.7298177,5.82291667 C18.7128906,5.7890625 18.6903212,5.75802951 18.6621094,5.72981771 C18.6338976,5.7016059 18.6028646,5.6875 18.5690104,5.6875 C18.5351562,5.6875 18.4956597,5.71571181 18.4505208,5.77213542 C18.4053819,5.82855903 18.3630642,5.88498264 18.3235677,5.94140625 C18.2840712,5.99782986 18.2586806,6.02604167 18.2473958,6.02604167 C18.2135417,6.00347222 18.1796875,5.99500868 18.1458333,6.00065104 C18.1119792,6.0062934 18.0865885,6.01193576 18.0696615,6.01757812 C18.0527344,6.02322049 18.0273437,6.04014757 17.9934896,6.06835938 C17.9596354,6.09657118 17.9314236,6.11631944 17.9088542,6.12760417 C17.875,6.15017361 17.8270399,6.16710069 17.764974,6.17838542 C17.702908,6.18967014 17.6549479,6.20095486 17.6210937,6.21223958 C17.7903646,6.15581597 17.7847222,6.09375 17.6041667,6.02604167 C17.4913194,5.98090278 17.4010417,5.96397569 17.3333333,5.97526042 C17.4348958,5.93012153 17.4772135,5.86241319 17.4602865,5.77213542 C17.4433594,5.68185764 17.3953993,5.60286458 17.3164062,5.53515625 L17.4010417,5.53515625 C17.3897569,5.49001736 17.3417969,5.44205729 17.2571615,5.39127604 C17.172526,5.34049479 17.0737847,5.29253472 16.9609375,5.24739583 C16.8480903,5.20225694 16.7747396,5.16840278 16.7408854,5.14583333 C16.6506076,5.08940972 16.4587674,5.03580729 16.1653646,4.98502604 C15.8719618,4.93424479 15.6857639,4.93142361 15.6067708,4.9765625 C15.5503472,5.04427083 15.5249566,5.10351562 15.530599,5.15429688 C15.5362413,5.20507812 15.5588108,5.28407118 15.5983073,5.39127604 C15.6378038,5.4984809 15.6575521,5.56901042 15.6575521,5.60286458 C15.6688368,5.67057292 15.6378038,5.74392361 15.5644531,5.82291667 C15.4911024,5.90190972 15.4544271,5.96961806 15.4544271,6.02604167 C15.4544271,6.10503472 15.5334201,6.19249132 15.6914062,6.28841146 C15.8493924,6.3843316 15.905816,6.50564236 15.8606771,6.65234375 C15.8268229,6.74262153 15.7365451,6.83289931 15.5898437,6.92317708 C15.4431424,7.01345486 15.3528646,7.08116319 15.3190104,7.12630208 C15.2625868,7.21657986 15.2541233,7.32096354 15.2936198,7.43945312 C15.3331163,7.55794271 15.3923611,7.65104167 15.4713542,7.71875 C15.4939236,7.74131944 15.5023872,7.76388889 15.4967448,7.78645833 C15.4911024,7.80902778 15.4713542,7.8344184 15.4375,7.86263021 C15.4036458,7.89084201 15.3726128,7.91341146 15.344401,7.93033854 C15.3161892,7.94726562 15.2795139,7.96701389 15.234375,7.98958333 L15.1835937,8.0234375 C15.0594618,8.07986111 14.9437934,8.04600694 14.8365885,7.921875 C14.7293837,7.79774306 14.6532118,7.65104167 14.6080729,7.48177083 C14.5290799,7.19965278 14.4388021,7.03038194 14.3372396,6.97395833 C14.077691,6.88368056 13.9140625,6.88932292 13.8463542,6.99088542 C13.7899306,6.84418403 13.5585937,6.69748264 13.1523437,6.55078125 C12.8702257,6.44921875 12.5429687,6.42664931 12.1705729,6.48307292 C12.2382812,6.47178819 12.2382812,6.38715278 12.1705729,6.22916667 C12.0915799,6.05989583 11.984375,5.9921875 11.8489583,6.02604167 C11.8828125,5.95833333 11.9053819,5.85959201 11.9166667,5.72981771 C11.9279514,5.6000434 11.9335937,5.52387153 11.9335937,5.50130208 C11.9674479,5.35460069 12.0351562,5.22482639 12.1367187,5.11197917 C12.1480035,5.10069444 12.1875,5.05273438 12.2552083,4.96809896 C12.3229167,4.88346354 12.3765191,4.80729167 12.4160156,4.73958333 C12.4555122,4.671875 12.4583333,4.63802083 12.4244792,4.63802083 C12.8194444,4.68315972 13.1015625,4.62109375 13.2708333,4.45182292 C13.3272569,4.39539931 13.3921441,4.29947917 13.4654948,4.1640625 C13.5388455,4.02864583 13.5980903,3.93272569 13.6432292,3.87630208 C13.7447917,3.80859375 13.8237847,3.77756076 13.8802083,3.78320312 C13.9366319,3.78884549 14.0184462,3.81987847 14.125651,3.87630208 C14.2328559,3.93272569 14.3146701,3.9609375 14.3710937,3.9609375 C14.5290799,3.97222222 14.6165365,3.91015625 14.6334635,3.77473958 C14.6503906,3.63932292 14.6080729,3.52647569 14.5065104,3.43619792 C14.6419271,3.44748264 14.6588542,3.3515625 14.5572917,3.1484375 C14.5121528,3.06944444 14.4670139,3.01866319 14.421875,2.99609375 C14.2864583,2.95095486 14.1341146,2.97916667 13.9648437,3.08072917 C13.874566,3.12586806 13.8858507,3.17100694 13.9986979,3.21614583 C13.9874132,3.20486111 13.9338108,3.2641059 13.8378906,3.39388021 C13.7419705,3.52365451 13.6488715,3.62239583 13.5585937,3.69010417 C13.468316,3.7578125 13.3780382,3.72960069 13.2877604,3.60546875 C13.2764757,3.59418403 13.2454427,3.51801215 13.1946615,3.37695312 C13.1438802,3.2358941 13.0902778,3.15972222 13.0338542,3.1484375 C12.9435764,3.1484375 12.8532986,3.23307292 12.7630208,3.40234375 C12.796875,3.31206597 12.734809,3.22743056 12.5768229,3.1484375 C12.4188368,3.06944444 12.2834201,3.02430556 12.1705729,3.01302083 C12.3849826,2.87760417 12.3398437,2.72526042 12.0351562,2.55598958 C11.9561632,2.51085069 11.8404948,2.48263889 11.688151,2.47135417 C11.5358073,2.46006944 11.4257812,2.48263889 11.3580729,2.5390625 C11.3016493,2.61805556 11.2706163,2.68294271 11.264974,2.73372396 C11.2593316,2.78450521 11.2875434,2.8296441 11.3496094,2.86914062 C11.4116753,2.90863715 11.4709201,2.93967014 11.5273437,2.96223958 C11.5837674,2.98480903 11.6486545,3.00737847 11.7220052,3.02994792 C11.7953559,3.05251736 11.843316,3.06944444 11.8658854,3.08072917 C12.0238715,3.19357639 12.0690104,3.27256944 12.0013021,3.31770833 C11.9787326,3.32899306 11.9307726,3.34874132 11.8574219,3.37695312 C11.7840712,3.40516493 11.719184,3.43055556 11.6627604,3.453125 C11.6063368,3.47569444 11.5724826,3.49826389 11.5611979,3.52083333 C11.5273437,3.56597222 11.5273437,3.64496528 11.5611979,3.7578125 C11.5950521,3.87065972 11.5837674,3.94965278 11.5273437,3.99479167 C11.4709201,3.93836806 11.4201389,3.83962674 11.375,3.69856771 C11.3298611,3.55750868 11.2903646,3.46440972 11.2565104,3.41927083 C11.3355035,3.52083333 11.1944444,3.5546875 10.8333333,3.52083333 L10.6640625,3.50390625 C10.6189236,3.50390625 10.5286458,3.51519097 10.3932292,3.53776042 C10.2578125,3.56032986 10.1421441,3.56597222 10.046224,3.5546875 C9.95030382,3.54340278 9.87413194,3.49826389 9.81770833,3.41927083 C9.77256944,3.32899306 9.77256944,3.21614583 9.81770833,3.08072917 C9.82899306,3.03559028 9.8515625,3.02430556 9.88541667,3.046875 C9.84027778,3.01302083 9.77821181,2.9594184 9.69921875,2.88606771 C9.62022569,2.81271701 9.56380208,2.76475694 9.52994792,2.7421875 C9.01085069,2.91145833 8.48046875,3.14279514 7.93880208,3.43619792 C8.00651042,3.44748264 8.07421875,3.44184028 8.14192708,3.41927083 C8.19835069,3.39670139 8.27170139,3.36002604 8.36197917,3.30924479 C8.45225694,3.25846354 8.50868056,3.22743056 8.53125,3.21614583 C8.91493056,3.05815972 9.15190972,3.01866319 9.2421875,3.09765625 L9.32682292,3.01302083 C9.48480903,3.19357639 9.59765625,3.33463542 9.66536458,3.43619792 C9.58637153,3.39105903 9.41710069,3.38541667 9.15755208,3.41927083 C8.93185764,3.48697917 8.80772569,3.5546875 8.78515625,3.62239583 C8.86414931,3.7578125 8.89236111,3.859375 8.86979167,3.92708333 C8.82465278,3.89322917 8.75976562,3.83680556 8.67513021,3.7578125 C8.59049479,3.67881944 8.50868056,3.61675347 8.4296875,3.57161458 C8.35069444,3.52647569 8.26605903,3.49826389 8.17578125,3.48697917 C7.99522569,3.48697917 7.87109375,3.49262153 7.80338542,3.50390625 C6.15581597,4.40668403 4.82986111,5.65928819 3.82552083,7.26171875 C3.90451389,7.34071181 3.97222222,7.38585069 4.02864583,7.39713542 C4.07378472,7.40842014 4.10199653,7.45920139 4.11328125,7.54947917 C4.12456597,7.63975694 4.13867187,7.70182292 4.15559896,7.73567708 C4.17252604,7.76953125 4.23741319,7.75260417 4.35026042,7.68489583 C4.45182292,7.77517361 4.46875,7.88237847 4.40104167,8.00651042 C4.41232639,7.99522569 4.66059028,8.14756944 5.14583333,8.46354167 C5.36024306,8.65538194 5.47873264,8.77387153 5.50130208,8.81901042 C5.53515625,8.94314236 5.47873264,9.04470486 5.33203125,9.12369792 C5.32074653,9.10112847 5.26996528,9.05034722 5.1796875,8.97135417 C5.08940972,8.89236111 5.03862847,8.86979167 5.02734375,8.90364583 C4.99348958,8.96006944 4.99631076,9.06445312 5.03580729,9.21679688 C5.07530382,9.36914062 5.13454861,9.43967014 5.21354167,9.42838542 C5.13454861,9.42838542 5.08094618,9.51866319 5.05273437,9.69921875 C5.02452257,9.87977431 5.01041667,10.0800781 5.01041667,10.3001302 C5.01041667,10.5201823 5.00477431,10.6527778 4.99348958,10.6979167 L5.02734375,10.7148437 C4.99348958,10.8502604 5.02452257,11.0449219 5.12044271,11.2988281 C5.21636285,11.5527344 5.33767361,11.6627604 5.484375,11.6289062 C5.33767361,11.6627604 5.45052083,11.9053819 5.82291667,12.3567708 C5.890625,12.4470486 5.93576389,12.4978299 5.95833333,12.5091146 C5.9921875,12.531684 6.05989583,12.5740017 6.16145833,12.6360677 C6.26302083,12.6981337 6.34765625,12.7545573 6.41536458,12.8053385 C6.48307292,12.8561198 6.53949653,12.9153646 6.58463542,12.9830729 C6.62977431,13.0394965 6.68619792,13.1664497 6.75390625,13.3639323 C6.82161458,13.5614149 6.90060764,13.6940104 6.99088542,13.7617188 C6.96831597,13.8294271 7.0219184,13.9422743 7.15169271,14.1002604 C7.28146701,14.2582465 7.34071181,14.3880208 7.32942708,14.4895833 C7.31814236,14.4895833 7.30403646,14.4952257 7.28710937,14.5065104 C7.27018229,14.5177951 7.25607639,14.5234375 7.24479167,14.5234375 C7.27864583,14.6024306 7.36610243,14.6814236 7.50716146,14.7604167 C7.64822049,14.8394097 7.73567708,14.9127604 7.76953125,14.9804688 C7.78081597,15.0143229 7.79210069,15.0707465 7.80338542,15.1497396 C7.81467014,15.2287326 7.83159722,15.2907986 7.85416667,15.3359375 C7.87673611,15.3810764 7.921875,15.3923611 7.98958333,15.3697917 C8.01215278,15.1440972 7.87673611,14.7942708 7.58333333,14.3203125 C7.4140625,14.0381944 7.31814236,13.874566 7.29557292,13.8294271 C7.26171875,13.7730035 7.23068576,13.6855469 7.20247396,13.5670573 C7.17426215,13.4485677 7.14887153,13.3667535 7.12630208,13.3216146 C7.14887153,13.3216146 7.18272569,13.3300781 7.22786458,13.3470052 C7.27300347,13.3639323 7.32096354,13.3836806 7.37174479,13.40625 C7.42252604,13.4288194 7.46484375,13.4513889 7.49869792,13.4739583 C7.53255208,13.4965278 7.54383681,13.5134549 7.53255208,13.5247396 C7.49869792,13.6037326 7.50998264,13.702474 7.56640625,13.8209635 C7.62282986,13.9394531 7.69053819,14.0438368 7.76953125,14.1341146 C7.84852431,14.2243924 7.94444444,14.3315972 8.05729167,14.4557292 C8.17013889,14.5798611 8.23784722,14.6532118 8.26041667,14.6757812 C8.328125,14.7434896 8.40711806,14.8535156 8.49739583,15.0058594 C8.58767361,15.1582031 8.58767361,15.234375 8.49739583,15.234375 C8.59895833,15.234375 8.71180556,15.2936198 8.8359375,15.4121094 C8.96006944,15.530599 9.05598958,15.640625 9.12369792,15.7421875 C9.18012153,15.8324653 9.22526042,15.9791667 9.25911458,16.1822917 C9.29296875,16.3854167 9.32118056,16.5208333 9.34375,16.5885417 C9.36631944,16.6675347 9.41427951,16.7437066 9.48763021,16.8170573 C9.5609809,16.890408 9.63151042,16.9440104 9.69921875,16.9778646 L9.97005208,17.1132812 L10.1901042,17.2317708 C10.2465278,17.2543403 10.3509115,17.3135851 10.5032552,17.4095052 C10.655599,17.5054253 10.7769097,17.5703125 10.8671875,17.6041667 C10.9800347,17.6493056 11.0703125,17.671875 11.1380208,17.671875 C11.2057292,17.671875 11.2875434,17.6577691 11.3834635,17.6295573 C11.4793837,17.6013455 11.5555556,17.5815972 11.6119792,17.5703125 C11.78125,17.5477431 11.9448785,17.6323785 12.1028646,17.8242188 C12.2608507,18.016059 12.3793403,18.1345486 12.4583333,18.1796875 C12.8645833,18.3940972 13.1749132,18.4561632 13.3893229,18.3658854 C13.3667535,18.3771701 13.3695747,18.4194878 13.3977865,18.4928385 C13.4259983,18.5661892 13.4711372,18.6536458 13.5332031,18.7552083 C13.5952691,18.8567708 13.6460503,18.9385851 13.6855469,19.000651 C13.7250434,19.062717 13.7560764,19.1106771 13.7786458,19.1445312 C13.8350694,19.2122396 13.9366319,19.296875 14.0833333,19.3984375 C14.2300347,19.5 14.3315972,19.5846354 14.3880208,19.6523438 C14.4557292,19.6072049 14.4952257,19.5564236 14.5065104,19.5 C14.4726562,19.5902778 14.5121528,19.703125 14.625,19.8385417 C14.7378472,19.9739583 14.8394097,20.0303819 14.9296875,20.0078125 C15.0876736,19.9739583 15.1666667,19.7934028 15.1666667,19.4661458 C14.8168403,19.6354167 14.5403646,19.5338542 14.3372396,19.1614583 C14.3372396,19.1501736 14.3231337,19.1191406 14.2949219,19.0683594 C14.2667101,19.0175781 14.2441406,18.9696181 14.2272135,18.9244792 C14.2102865,18.8793403 14.1961806,18.8313802 14.1848958,18.780599 C14.1736111,18.7298177 14.1736111,18.6875 14.1848958,18.6536458 C14.1961806,18.6197917 14.2243924,18.6028646 14.2695312,18.6028646 C14.3710937,18.6028646 14.4275174,18.5831163 14.4388021,18.5436198 C14.4500868,18.5041233 14.4388021,18.4335938 14.4049479,18.3320312 C14.3710937,18.2304688 14.3485243,18.1571181 14.3372396,18.1119792 C14.3259549,18.0217014 14.2638889,17.9088542 14.1510417,17.7734375 C14.0381944,17.6380208 13.9704861,17.5533854 13.9479167,17.5195312 C13.8914931,17.6210938 13.8012153,17.6662326 13.6770833,17.6549479 C13.5529514,17.6436632 13.4626736,17.5928819 13.40625,17.5026042 C13.40625,17.5138889 13.3977865,17.5449219 13.3808594,17.5957031 C13.3639323,17.6464844 13.3554687,17.6831597 13.3554687,17.7057292 C13.2087674,17.7057292 13.1241319,17.7000868 13.1015625,17.6888021 C13.1128472,17.6549479 13.1269531,17.5562066 13.1438802,17.3925781 C13.1608073,17.2289497 13.1805556,17.1019965 13.203125,17.0117188 C13.2144097,16.9665799 13.2454427,16.8988715 13.296224,16.8085938 C13.3470052,16.718316 13.3893229,16.6365017 13.4231771,16.563151 C13.4570312,16.4898003 13.4796007,16.4192708 13.4908854,16.3515625 C13.5021701,16.2838542 13.4767795,16.2302517 13.4147135,16.1907552 C13.3526476,16.1512587 13.2539062,16.1371528 13.1184896,16.1484375 C12.9040799,16.1597222 12.7573785,16.2725694 12.6783854,16.4869792 C12.6671007,16.5208333 12.6501736,16.5800781 12.6276042,16.6647135 C12.6050347,16.749349 12.5768229,16.8142361 12.5429687,16.859375 C12.5091146,16.9045139 12.4583333,16.9440104 12.390625,16.9778646 C12.3116319,17.0117188 12.1762153,17.0230035 11.984375,17.0117188 C11.7925347,17.000434 11.6571181,16.9722222 11.578125,16.9270833 C11.4314236,16.8368056 11.3044705,16.6731771 11.1972656,16.4361979 C11.0900608,16.1992188 11.0364583,15.9904514 11.0364583,15.8098958 C11.0364583,15.6970486 11.0505642,15.547526 11.078776,15.3613281 C11.1069878,15.1751302 11.1239149,15.0340712 11.1295573,14.938151 C11.1351997,14.8422309 11.1041667,14.7039931 11.0364583,14.5234375 C11.0703125,14.5008681 11.1210937,14.4472656 11.1888021,14.3626302 C11.2565104,14.2779948 11.312934,14.21875 11.3580729,14.1848958 C11.3806424,14.1736111 11.406033,14.1651476 11.4342448,14.1595052 C11.4624566,14.1538628 11.4878472,14.1538628 11.5104167,14.1595052 C11.5329861,14.1651476 11.5555556,14.156684 11.578125,14.1341146 C11.6006944,14.1115451 11.6176215,14.077691 11.6289062,14.0325521 C11.6176215,14.0212674 11.5950521,14.0043403 11.5611979,13.9817708 C11.5273437,13.9479167 11.5047743,13.9309896 11.4934896,13.9309896 C11.5724826,13.9648437 11.7332899,13.9563802 11.9759115,13.905599 C12.218533,13.8548177 12.3736979,13.8632812 12.4414062,13.9309896 C12.6106771,14.0551215 12.734809,14.0438368 12.8138021,13.8971354 C12.8138021,13.8858507 12.7996962,13.8322483 12.7714844,13.7363281 C12.7432726,13.640408 12.7404514,13.5642361 12.7630208,13.5078125 C12.8194444,13.8125 12.9830729,13.8632812 13.2539062,13.6601562 C13.2877604,13.6940104 13.375217,13.7222222 13.516276,13.7447917 C13.6573351,13.7673611 13.7560764,13.7955729 13.8125,13.8294271 C13.8463542,13.8519965 13.8858507,13.8830295 13.9309896,13.922526 C13.9761285,13.9620226 14.0071615,13.9874132 14.0240885,13.9986979 C14.0410156,14.0099826 14.0692274,14.0071615 14.108724,13.9902344 C14.1482205,13.9733073 14.1961806,13.9366319 14.2526042,13.8802083 C14.3654514,14.0381944 14.4331597,14.1736111 14.4557292,14.2864583 C14.5798611,14.7378472 14.687066,14.9861111 14.7773437,15.03125 C14.8563368,15.0651042 14.9184028,15.0763889 14.9635417,15.0651042 C15.0086806,15.0538194 15.0340712,15.000217 15.0397135,14.9042969 C15.0453559,14.8083767 15.0453559,14.7293837 15.0397135,14.6673177 C15.0340712,14.6052517 15.0256076,14.5347222 15.0143229,14.4557292 L14.9973958,14.3203125 L14.9973958,14.015625 L14.9804687,13.8802083 C14.8111979,13.8463542 14.7068142,13.7786458 14.6673177,13.6770833 C14.6278212,13.5755208 14.6362847,13.4711372 14.6927083,13.3639323 C14.7491319,13.2567274 14.8337674,13.1523438 14.9466146,13.0507812 C14.9578993,13.0394965 15.0030382,13.0197483 15.0820312,12.9915365 C15.1610243,12.9633247 15.2484809,12.9266493 15.344401,12.8815104 C15.4403212,12.8363715 15.5108507,12.7912326 15.5559896,12.7460937 C15.7929687,12.531684 15.8776042,12.3342014 15.8098958,12.1536458 C15.8888889,12.1536458 15.9509549,12.1028646 15.9960937,12.0013021 C15.984809,12.0013021 15.9565972,11.984375 15.9114583,11.9505208 C15.8663194,11.9166667 15.8240017,11.8884549 15.7845052,11.8658854 C15.7450087,11.843316 15.7196181,11.8320312 15.7083333,11.8320312 C15.8098958,11.7756076 15.8211806,11.6853299 15.7421875,11.5611979 C15.7986111,11.5273438 15.8409288,11.4652778 15.8691406,11.375 C15.8973524,11.2847222 15.9396701,11.2282986 15.9960937,11.2057292 C16.0976562,11.3411458 16.2161458,11.3524306 16.3515625,11.2395833 C16.4418403,11.1493056 16.4474826,11.0590278 16.3684896,10.96875 C16.4249132,10.8897569 16.5405816,10.8305122 16.7154948,10.7910156 C16.890408,10.7515191 16.9947917,10.6979167 17.0286458,10.6302083 C17.1076389,10.6527778 17.1527778,10.6414931 17.1640625,10.5963542 C17.1753472,10.5512153 17.1809896,10.4835069 17.1809896,10.3932292 C17.1809896,10.3029514 17.1979167,10.2352431 17.2317708,10.1901042 C17.2769097,10.1336806 17.3615451,10.0828993 17.4856771,10.0377604 C17.609809,9.99262153 17.6831597,9.96440972 17.7057292,9.953125 L17.9934896,9.76692708 C18.0273437,9.72178819 18.0273437,9.69921875 17.9934896,9.69921875 C18.1966146,9.72178819 18.3715278,9.65972222 18.5182292,9.51302083 C18.6310764,9.38888889 18.5972222,9.27604167 18.4166667,9.17447917 C18.4505208,9.10677083 18.4335937,9.0531684 18.3658854,9.01367188 C18.2981771,8.97417535 18.2135417,8.94314236 18.1119792,8.92057292 C18.1458333,8.90928819 18.2107205,8.90646701 18.3066406,8.91210937 C18.4025608,8.91775174 18.4618056,8.90928819 18.484375,8.88671875 C18.6536458,8.77387153 18.6141493,8.68359375 18.3658854,8.61588542 C18.1740451,8.55946181 17.9314236,8.62717014 17.6380208,8.81901042 Z M14.8789062,23.6640625 C17.203559,23.2578125 19.1840278,22.1914062 20.8203125,20.4648437 C20.7864583,20.4309896 20.7159288,20.405599 20.608724,20.3886719 C20.5015191,20.3717448 20.4309896,20.3519965 20.3971354,20.3294271 C20.1940104,20.250434 20.0585938,20.2052951 19.9908854,20.1940104 C20.0021701,20.1150174 19.9880642,20.0416667 19.9485677,19.9739583 C19.9090712,19.90625 19.8639323,19.8554687 19.813151,19.8216146 C19.7623698,19.7877604 19.6918403,19.7426215 19.6015625,19.6861979 C19.5112847,19.6297743 19.4492188,19.5902778 19.4153646,19.5677083 C19.3927951,19.5451389 19.3532986,19.5112847 19.296875,19.4661458 C19.2404514,19.4210069 19.2009549,19.389974 19.1783854,19.3730469 C19.155816,19.3561198 19.1134983,19.3307292 19.0514323,19.296875 C18.9893663,19.2630208 18.9414062,19.2517361 18.9075521,19.2630208 C18.8736979,19.2743056 18.8172743,19.2799479 18.7382812,19.2799479 L18.6875,19.296875 C18.6536458,19.3081597 18.6226128,19.3222656 18.594401,19.3391927 C18.5661892,19.3561198 18.5351562,19.3730469 18.5013021,19.389974 C18.4674479,19.406901 18.4448785,19.4238281 18.4335938,19.4407552 C18.422309,19.4576823 18.422309,19.4717882 18.4335938,19.4830729 C18.1966146,19.2912326 17.9934896,19.1671007 17.8242188,19.1106771 C17.7677951,19.0993924 17.7057292,19.0683594 17.6380208,19.0175781 C17.5703125,18.9667969 17.5110677,18.9273003 17.4602865,18.8990885 C17.4095052,18.8708767 17.3530816,18.8624132 17.2910156,18.8736979 C17.2289497,18.8849826 17.1640625,18.9244792 17.0963542,18.9921875 C17.0399306,19.0486111 17.0060764,19.1332465 16.9947917,19.2460937 C16.9835069,19.358941 16.9722222,19.4322917 16.9609375,19.4661458 C16.8819444,19.4097222 16.8819444,19.3109809 16.9609375,19.1699219 C17.0399306,19.0288628 17.0512153,18.9244792 16.9947917,18.8567708 C16.9609375,18.7890625 16.9016927,18.7636719 16.8170573,18.780599 C16.7324219,18.797526 16.6647135,18.8229167 16.6139323,18.8567708 C16.563151,18.890625 16.4982639,18.9385851 16.4192708,19.000651 C16.3402778,19.062717 16.2894965,19.0993924 16.2669271,19.1106771 C16.2443576,19.1219618 16.1963976,19.1529948 16.1230469,19.203776 C16.0496962,19.2545573 16.0017361,19.296875 15.9791667,19.3307292 C15.9453125,19.3758681 15.9114583,19.4435764 15.8776042,19.5338542 C15.84375,19.6241319 15.8155382,19.6861979 15.7929688,19.7200521 C15.7703993,19.6749132 15.7055122,19.6382378 15.5983073,19.610026 C15.4911024,19.5818142 15.4375,19.5507812 15.4375,19.5169271 C15.4600694,19.6297743 15.4826389,19.8272569 15.5052083,20.109375 C15.5277778,20.3914931 15.5559896,20.6059028 15.5898438,20.7526042 C15.6688368,21.1024306 15.6011285,21.3732639 15.3867188,21.5651042 C15.0820312,21.8472222 14.9184028,22.0729167 14.8958333,22.2421875 C14.8506944,22.4904514 14.9184028,22.6371528 15.0989583,22.6822917 C15.0989583,22.7612847 15.0538194,22.8769531 14.9635417,23.0292969 C14.8732639,23.1816406 14.8337674,23.3029514 14.8450521,23.3932292 C14.8450521,23.4609375 14.8563368,23.5512153 14.8789062,23.6640625 Z"
            id="peace-corps-Shape" /> </g>
        </g>
      </g>
    </g>
  </symbol>
  <symbol viewBox="0 0 46 46" id="public">
    <title>public</title>
    <desc>Created with Sketch.</desc>
    <!-- Generator: Sketch 47 (45396) - http://www.bohemiancoding.com/sketch -->
    <g id="public-Symbols" stroke="none" stroke-width="1" fill="none" fill-rule="evenodd">
      <g id="public-public">
        <g id="public-Group" transform="translate(1.000000, 1.000000)">
          <circle id="public-Oval-3" fill="#02BFE7" cx="22" cy="22" r="22" />
          <g id="public-users" transform="translate(8.000000, 9.000000)" fill-rule="nonzero" fill="#FFFFFF">
            <path d="M8.60379464,13 C7.03683036,13.0483631 5.75520833,13.6674107 4.75892857,14.8571429 L2.81473214,14.8571429 C2.02157738,14.8571429 1.35416667,14.6612723 0.8125,14.2695312 C0.270833333,13.8777902 0,13.3046875 0,12.5502232 C0,9.13578869 0.599702381,7.42857143 1.79910714,7.42857143 C1.85714286,7.42857143 2.06752232,7.53013393 2.43024554,7.73325893 C2.79296875,7.93638393 3.26450893,8.14192708 3.84486607,8.34988839 C4.42522321,8.5578497 5.00074405,8.66183036 5.57142857,8.66183036 C6.21949405,8.66183036 6.86272321,8.55059524 7.50111607,8.328125 C7.45275298,8.6860119 7.42857143,9.00520833 7.42857143,9.28571429 C7.42857143,10.6302083 7.8203125,11.8683036 8.60379464,13 Z M24.1428571,22.2421875 C24.1428571,23.4029018 23.7898065,24.3193824 23.0837054,24.9916295 C22.3776042,25.6638765 21.4393601,26 20.2689732,26 L7.58816964,26 C6.41778274,26 5.47953869,25.6638765 4.7734375,24.9916295 C4.06733631,24.3193824 3.71428571,23.4029018 3.71428571,22.2421875 C3.71428571,21.7295387 3.7312128,21.2289807 3.76506696,20.7405134 C3.79892113,20.2520461 3.86662946,19.7248884 3.96819196,19.1590402 C4.06975446,18.593192 4.19791667,18.0684524 4.35267857,17.5848214 C4.50744048,17.1011905 4.71540179,16.6296503 4.9765625,16.1702009 C5.23772321,15.7107515 5.5375744,15.3190104 5.87611607,14.9949777 C6.21465774,14.6709449 6.6281622,14.4122024 7.11662946,14.21875 C7.60509673,14.0252976 8.14434524,13.9285714 8.734375,13.9285714 C8.83110119,13.9285714 9.0390625,14.0325521 9.35825893,14.2405134 C9.67745536,14.4484747 10.030506,14.6806176 10.4174107,14.936942 C10.8043155,15.1932664 11.3218006,15.4254092 11.9698661,15.6333705 C12.6179315,15.8413318 13.2708333,15.9453125 13.9285714,15.9453125 C14.5863095,15.9453125 15.2392113,15.8413318 15.8872768,15.6333705 C16.5353423,15.4254092 17.0528274,15.1932664 17.4397321,14.936942 C17.8266369,14.6806176 18.1796875,14.4484747 18.4988839,14.2405134 C18.8180804,14.0325521 19.0260417,13.9285714 19.1227679,13.9285714 C19.7127976,13.9285714 20.2520461,14.0252976 20.7405134,14.21875 C21.2289807,14.4122024 21.6424851,14.6709449 21.9810268,14.9949777 C22.3195685,15.3190104 22.6194196,15.7107515 22.8805804,16.1702009 C23.1417411,16.6296503 23.3497024,17.1011905 23.5044643,17.5848214 C23.6592262,18.0684524 23.7873884,18.593192 23.8889509,19.1590402 C23.9905134,19.7248884 24.0582217,20.2520461 24.0920759,20.7405134 C24.1259301,21.2289807 24.1428571,21.7295387 24.1428571,22.2421875 Z M9.28571429,3.71428571 C9.28571429,4.73958333 8.92299107,5.61495536 8.19754464,6.34040179 C7.47209821,7.06584821 6.59672619,7.42857143 5.57142857,7.42857143 C4.54613095,7.42857143 3.67075893,7.06584821 2.9453125,6.34040179 C2.21986607,5.61495536 1.85714286,4.73958333 1.85714286,3.71428571 C1.85714286,2.6889881 2.21986607,1.81361607 2.9453125,1.08816964 C3.67075893,0.362723214 4.54613095,0 5.57142857,0 C6.59672619,0 7.47209821,0.362723214 8.19754464,1.08816964 C8.92299107,1.81361607 9.28571429,2.6889881 9.28571429,3.71428571 Z M19.5,9.28571429 C19.5,10.8236607 18.9559152,12.1367187 17.8677455,13.2248884 C16.7795759,14.313058 15.4665179,14.8571429 13.9285714,14.8571429 C12.390625,14.8571429 11.077567,14.313058 9.98939732,13.2248884 C8.90122768,12.1367187 8.35714286,10.8236607 8.35714286,9.28571429 C8.35714286,7.74776786 8.90122768,6.43470982 9.98939732,5.34654018 C11.077567,4.25837054 12.390625,3.71428571 13.9285714,3.71428571 C15.4665179,3.71428571 16.7795759,4.25837054 17.8677455,5.34654018 C18.9559152,6.43470982 19.5,7.74776786 19.5,9.28571429 Z M27.8571429,12.5502232 C27.8571429,13.3046875 27.5863095,13.8777902 27.0446429,14.2695312 C26.5029762,14.6612723 25.8355655,14.8571429 25.0424107,14.8571429 L23.0982143,14.8571429 C22.1019345,13.6674107 20.8203125,13.0483631 19.2533482,13 C20.0368304,11.8683036 20.4285714,10.6302083 20.4285714,9.28571429 C20.4285714,9.00520833 20.4043899,8.6860119 20.3560268,8.328125 C20.9944196,8.55059524 21.6376488,8.66183036 22.2857143,8.66183036 C22.8563988,8.66183036 23.4319196,8.5578497 24.0122768,8.34988839 C24.5926339,8.14192708 25.0641741,7.93638393 25.4268973,7.73325893 C25.7896205,7.53013393 26,7.42857143 26.0580357,7.42857143 C27.2574405,7.42857143 27.8571429,9.13578869 27.8571429,12.5502232 Z M26,3.71428571 C26,4.73958333 25.6372768,5.61495536 24.9118304,6.34040179 C24.1863839,7.06584821 23.3110119,7.42857143 22.2857143,7.42857143 C21.2604167,7.42857143 20.3850446,7.06584821 19.6595982,6.34040179 C18.9341518,5.61495536 18.5714286,4.73958333 18.5714286,3.71428571 C18.5714286,2.6889881 18.9341518,1.81361607 19.6595982,1.08816964 C20.3850446,0.362723214 21.2604167,0 22.2857143,0 C23.3110119,0 24.1863839,0.362723214 24.9118304,1.08816964 C25.6372768,1.81361607 26,2.6889881 26,3.71428571 Z"
            id="public-Shape" /> </g>
        </g>
      </g>
    </g>
  </symbol>
  <symbol viewBox="0 0 46 46" id="ses">
    <title>ses</title>
    <desc>Created with Sketch.</desc>
    <!-- Generator: Sketch 47 (45396) - http://www.bohemiancoding.com/sketch -->
    <g id="ses-Symbols" stroke="none" stroke-width="1" fill="none" fill-rule="evenodd">
      <g id="ses-ses">
        <g id="ses-Group" transform="translate(1.000000, 1.000000)">
          <path d="M44,22 C44,34.1506076 34.1502514,44 21.9992043,44 C9.84974862,44 0,34.1506076 0,22 C0,9.84939236 9.84974862,0 21.9992043,0 C34.1502514,0 44,9.84939236 44,22" id="ses-Fill-1-Copy-8" fill="#112E51" />
          <g id="ses-briefcase" transform="translate(9.000000, 9.000000)" fill-rule="nonzero" fill="#FFFFFF">
            <path d="M9.28571429,4.33333333 L16.7142857,4.33333333 L16.7142857,2.16666667 L9.28571429,2.16666667 L9.28571429,4.33333333 Z M26,15.1666667 L26,23.2916667 C26,24.0364583 25.7726935,24.6740451 25.3180804,25.2044271 C24.8634673,25.734809 24.3169643,26 23.6785714,26 L2.32142857,26 C1.68303571,26 1.13653274,25.734809 0.681919643,25.2044271 C0.227306548,24.6740451 0,24.0364583 0,23.2916667 L0,15.1666667 L9.75,15.1666667 L9.75,17.875 C9.75,18.1684028 9.84188988,18.422309 10.0256696,18.6367188 C10.2094494,18.8511285 10.4270833,18.9583333 10.6785714,18.9583333 L15.3214286,18.9583333 C15.5729167,18.9583333 15.7905506,18.8511285 15.9743304,18.6367188 C16.1581101,18.422309 16.25,18.1684028 16.25,17.875 L16.25,15.1666667 L26,15.1666667 Z M14.8571429,15.1666667 L14.8571429,17.3333333 L11.1428571,17.3333333 L11.1428571,15.1666667 L14.8571429,15.1666667 Z M26,7.04166667 L26,13.5416667 L0,13.5416667 L0,7.04166667 C0,6.296875 0.227306548,5.65928819 0.681919643,5.12890625 C1.13653274,4.59852431 1.68303571,4.33333333 2.32142857,4.33333333 L7.42857143,4.33333333 L7.42857143,1.625 C7.42857143,1.17361111 7.5639881,0.789930556 7.83482143,0.473958333 C8.10565476,0.157986111 8.43452381,0 8.82142857,0 L17.1785714,0 C17.5654762,0 17.8943452,0.157986111 18.1651786,0.473958333 C18.4360119,0.789930556 18.5714286,1.17361111 18.5714286,1.625 L18.5714286,4.33333333 L23.6785714,4.33333333 C24.3169643,4.33333333 24.8634673,4.59852431 25.3180804,5.12890625 C25.7726935,5.65928819 26,6.296875 26,7.04166667 Z"
            id="ses-Shape" /> </g>
        </g>
      </g>
    </g>
  </symbol>
  <symbol viewBox="0 0 46 46" id="students">
    <title>students</title>
    <desc>Created with Sketch.</desc>
    <!-- Generator: Sketch 47 (45396) - http://www.bohemiancoding.com/sketch -->
    <g id="students-Symbols" stroke="none" stroke-width="1" fill="none" fill-rule="evenodd">
      <g id="students-students">
        <g id="students-Group" transform="translate(1.000000, 1.000000)">
          <path d="M44,22 C44,34.1506076 34.1502514,44 21.9992043,44 C9.84974862,44 0,34.1506076 0,22 C0,9.84939236 9.84974862,0 21.9992043,0 C34.1502514,0 44,9.84939236 44,22" id="students-Fill-1-Copy" fill="#FDB81E" />
          <g id="students-graduation-cap" transform="translate(5.000000, 9.000000)" fill-rule="nonzero" fill="#FFFFFF">
            <path d="M25.7388393,11.984375 L26,17.3333333 C26.0386905,18.1119792 25.6421131,18.8342014 24.8102679,19.5 C23.9784226,20.1657986 22.8418899,20.6933594 21.4006696,21.0826823 C19.9594494,21.4720052 18.3973214,21.6666667 16.7142857,21.6666667 C15.03125,21.6666667 13.469122,21.4720052 12.0279018,21.0826823 C10.5866815,20.6933594 9.45014881,20.1657986 8.61830357,19.5 C7.78645833,18.8342014 7.38988095,18.1119792 7.42857143,17.3333333 L7.68973214,11.984375 L16.0178571,15.0481771 C16.2306548,15.1271701 16.4627976,15.1666667 16.7142857,15.1666667 C16.9657738,15.1666667 17.1979167,15.1271701 17.4107143,15.0481771 L25.7388393,11.984375 Z M33.4285714,6.5 C33.4285714,6.75954861 33.3221726,6.93446181 33.109375,7.02473958 L16.859375,12.9830729 C16.8206845,12.9943576 16.7723214,13 16.7142857,13 C16.65625,13 16.6078869,12.9943576 16.5691964,12.9830729 L7.109375,9.49609375 C6.69345238,9.87977431 6.3500744,10.5088976 6.07924107,11.3834635 C5.80840774,12.2580295 5.64397321,13.265191 5.5859375,14.4049479 C6.1953125,14.8111979 6.5,15.4262153 6.5,16.25 C6.5,17.0286458 6.21949405,17.6323785 5.65848214,18.0611979 L6.5,25.390625 C6.51934524,25.5486111 6.48065476,25.6896701 6.38392857,25.8138021 C6.296875,25.937934 6.18080357,26 6.03571429,26 L3.25,26 C3.10491071,26 2.98883929,25.937934 2.90178571,25.8138021 C2.80505952,25.6896701 2.76636905,25.5486111 2.78571429,25.390625 L3.62723214,18.0611979 C3.06622024,17.6323785 2.78571429,17.0286458 2.78571429,16.25 C2.78571429,15.4262153 3.1000744,14.7999132 3.72879464,14.3710938 C3.83519345,12.0351563 4.30915179,10.1731771 5.15066964,8.78515625 L0.319196429,7.02473958 C0.10639881,6.93446181 0,6.75954861 0,6.5 C0,6.24045139 0.10639881,6.06553819 0.319196429,5.97526042 L16.5691964,0.0169270833 C16.6078869,0.00564236111 16.65625,0 16.7142857,0 C16.7723214,0 16.8206845,0.00564236111 16.859375,0.0169270833 L33.109375,5.97526042 C33.3221726,6.06553819 33.4285714,6.24045139 33.4285714,6.5 Z"
            id="students-Shape" /> </g>
        </g>
      </g>
    </g>
  </symbol>
  <symbol viewBox="0 0 46 46" id="veterans">
    <title>veterans</title>
    <desc>Created with Sketch.</desc>
    <!-- Generator: Sketch 47 (45396) - http://www.bohemiancoding.com/sketch -->
    <g id="veterans-Symbols" stroke="none" stroke-width="1" fill="none" fill-rule="evenodd">
      <g id="veterans-veterans">
        <g id="veterans-Group" transform="translate(1.000000, 1.000000)">
          <path d="M44,22 C44,34.1506076 34.1502514,44 21.9992043,44 C9.84974862,44 0,34.1506076 0,22 C0,9.84939236 9.84974862,0 21.9992043,0 C34.1502514,0 44,9.84939236 44,22" id="veterans-Fill-1" fill="#008647" />
          <g id="veterans-shield" transform="translate(12.000000, 9.000000)" fill-rule="nonzero" fill="#FFFFFF">
            <path d="M16.2714281,14.5166663 L16.2714281,3.3499999 L9.5714283,3.3499999 L9.5714283,23.1882806 C10.7578866,22.4554681 11.8197169,21.6586799 12.7569193,20.7979161 C15.0999252,18.6576384 16.2714281,16.5638884 16.2714281,14.5166663 Z M19.1428566,1.11666663 L19.1428566,14.5166663 C19.1428566,15.5170134 18.9758551,16.5086367 18.6418521,17.491536 C18.3078492,18.4744352 17.8940843,19.346831 17.4005575,20.1087234 C16.9070308,20.8706157 16.3187867,21.6121522 15.6358254,22.3333327 C14.9528642,23.0545132 14.3222466,23.6535584 13.7439728,24.1304681 C13.165699,24.6073778 12.5624996,25.0581156 11.9343747,25.4826816 C11.3062497,25.9072475 10.8600815,26.1951381 10.5958702,26.3463534 C10.3316589,26.4975687 10.1197914,26.6138881 9.96026757,26.6953117 C9.84062472,26.7651034 9.71101163,26.7999992 9.5714283,26.7999992 C9.43184497,26.7999992 9.30223188,26.7651034 9.18258902,26.6953117 C9.02306522,26.6138881 8.81119767,26.4975687 8.54698636,26.3463534 C8.28277506,26.1951381 7.83660692,25.9072475 7.20848194,25.4826816 C6.58035696,25.0581156 5.97715757,24.6073778 5.39888377,24.1304681 C4.82060998,23.6535584 4.18999244,23.0545132 3.50703115,22.3333327 C2.82406986,21.6121522 2.23582583,20.8706157 1.74229906,20.1087234 C1.24877229,19.346831 0.835007417,18.4744352 0.50100445,17.491536 C0.167001483,16.5086367 0,15.5170134 0,14.5166663 L0,1.11666663 C0,0.814236088 0.0947172592,0.552517345 0.284151778,0.331510407 C0.473586296,0.110503469 0.697916647,0 0.95714283,0 L18.1857138,0 C18.44494,0 18.6692703,0.110503469 18.8587048,0.331510407 C19.0481393,0.552517345 19.1428566,0.814236088 19.1428566,1.11666663 Z"
            id="veterans-Shape" /> </g>
        </g>
      </g>
    </g>
  </symbol>
</svg>