<svg xmlns="http://www.w3.org/2000/svg" xmlns:xlink="http://www.w3.org/1999/xlink">
  <defs>
        <polygon id="path-1" points="0.415810909 0.611803636 37.1232727 0.611803636 37.1232727 37.3209673 0.415810909 37.3209673"/>
        <polygon id="path-3" points="0 0.881730909 44.3027709 0.881730909 44.3027709 45.38144 0 45.38144"/>

        <polygon id="path-1" points="0.0004 0.586716981 51.404 0.586716981 51.404 51.0188679 0.0004 51.0188679"/>

        <polygon id="path-1" points="0.000275995191 0.757058824 41.8538824 0.757058824 41.8538824 51.2352941 0.000275995191 51.2352941"/>

        <polygon id="path-1" points="0.000212578616 0.0812295597 51.0188679 0.0812295597 51.0188679 16.0246258 0.000212578616 16.0246258"/>
        <polygon id="path-3" points="0 0 31.8867925 0 31.8867925 31.8867925 0 31.8867925"/>
    </defs><symbol id="apply-to-a-job-ive-already-found" viewBox="0 0 52 52">
    <title>apply-to-a-job-ive-already-found</title>

    <g id="Symbols" stroke="none" stroke-width="1" fill="none" fill-rule="evenodd">
        <g id="What-would-you-like-to-do-next?" transform="translate(-30.000000, -107.000000)">
            <g id="Group-2" transform="translate(30.000000, 107.000000)">
                <g id="apply-to-a-job-ive-already-found">
                    <g id="Group-3" transform="translate(14.181818, 0.333556)">
                        <mask id="mask-2" fill="white">
                            <use xlink:href="#path-1"/>
                        </mask>
                        <g id="Clip-2"/>
                        <path d="M6.18592,36.6600945 L0.415810909,37.3209673 L1.07762909,31.5518036 L6.18592,36.6600945 Z M36.2249018,10.7527491 L33.2741382,13.7054036 L24.0332655,4.46264 L26.98592,1.50998545 C27.5825018,0.910567273 28.3095564,0.611803636 29.1661382,0.611803636 C30.02272,0.611803636 30.7497745,0.910567273 31.3491927,1.50998545 L36.2249018,6.38569455 C36.8233745,6.98511273 37.1240291,7.71500364 37.1240291,8.57158545 C37.1240291,9.42249455 36.8233745,10.1533309 36.2249018,10.7527491 Z M2.33319273,26.1627127 L21.9787927,6.51711273 L31.2206109,15.7598764 L11.5740655,35.4054764 L2.33319273,26.1627127 Z" id="Fill-1" fill="#0071BC" mask="url(#mask-2)"/>
                    </g>
                    <g id="Group-6" transform="translate(0.000000, 6.006284)">
                        <mask id="mask-4" fill="white">
                            <use xlink:href="#path-3"/>
                        </mask>
                        <g id="Clip-5"/>
                        <path d="M28.6053891,3.70580364 L25.6924436,6.59416727 C24.9634982,7.31649455 23.9783345,7.72209455 22.9525164,7.72209455 L10.44888,7.72209455 C8.45586182,7.72209455 6.84102545,9.33787636 6.84102545,11.3299491 L6.84102545,34.9322764 C6.84102545,36.9252945 8.45586182,38.5410764 10.44888,38.5410764 L33.8507709,38.5410764 C35.8437891,38.5410764 37.4605164,36.9243491 37.4605164,34.9303855 L37.4605164,24.7100218 C37.4605164,23.3514036 37.9946982,22.0476218 38.9467709,21.0804218 L41.3595709,18.6307491 C41.3595709,18.6307491 44.3027709,15.8832582 44.3027709,19.9553309 L44.3027709,34.9322764 C44.3027709,40.7033309 39.6237164,45.38144 33.8526618,45.38144 L10.44888,45.38144 C4.67782545,45.38144 -0.000283636364,40.7033309 -0.000283636364,34.9322764 L-0.000283636364,11.3299491 C-0.000283636364,5.55889455 4.67782545,0.881730909 10.44888,0.881730909 L27.1418255,0.881730909 C31.3490982,0.881730909 28.6053891,3.70580364 28.6053891,3.70580364" id="Fill-4" fill="#FDB81E" mask="url(#mask-4)"/>
                    </g>
                </g>
            </g>
        </g>
    </g>
</symbol><symbol id="find-a-job" viewBox="0 0 52 51">
    <title>find-a-job</title>

    <g id="Symbols" stroke="none" stroke-width="1" fill="none" fill-rule="evenodd">
        <g id="What-would-you-like-to-do-next?" transform="translate(-30.000000, -205.000000)">
            <g id="Group" transform="translate(30.000000, 204.000000)">
                <g id="find-a-job">
                    <g id="Group-3" transform="translate(0.000000, 0.394317)">
                        <mask id="mask-2" fill="white">
                            <use xlink:href="#path-1"/>
                        </mask>
                        <g id="Clip-2"/>
                        <path d="M31.5234,31.5178868 C34.2334,28.8619623 35.5864,25.6615094 35.5864,21.9273208 C35.5864,18.1872453 34.2334,14.9867925 31.5234,12.3298868 C28.8154,9.67396226 25.5564,8.34845283 21.7484,8.34845283 C17.9364,8.34845283 14.6774,9.67396226 11.9694,12.3298868 C9.2624,14.9867925 7.9084,18.1872453 7.9084,21.9273208 C7.9084,25.6615094 9.2624,28.8619623 11.9694,31.5178868 C14.6774,34.1738113 17.9364,35.5042264 21.7484,35.5042264 C25.5564,35.5042264 28.8154,34.1738113 31.5234,31.5178868 M51.4044,47.1424151 C51.4044,48.1902642 51.0124,49.1007547 50.2284,49.8699623 C49.4464,50.6381887 48.5184,51.0188679 47.4484,51.0188679 C46.3364,51.0188679 45.4104,50.6381887 44.6694,49.8699623 L34.0734,39.505283 C30.3864,42.0101132 26.2774,43.2620377 21.7484,43.2620377 C18.8014,43.2620377 15.9854,42.6998491 13.2984,41.577434 C10.6114,40.4589434 8.2934,38.9430943 6.3474,37.0338113 C4.4014,35.1245283 2.8584,32.8522264 1.7144,30.2139623 C0.5724,27.574717 0.0004,24.8128302 0.0004,21.9273208 C0.0004,19.0359245 0.5724,16.2730566 1.7144,13.6338113 C2.8584,11.0004528 4.4014,8.72422642 6.3474,6.81396226 C8.2934,4.90467925 10.6114,3.38883019 13.2984,2.27033962 C15.9854,1.14792453 18.8014,0.586716981 21.7484,0.586716981 C24.6914,0.586716981 27.5094,1.14792453 30.1964,2.27033962 C32.8844,3.38883019 35.1994,4.90467925 37.1464,6.81396226 C39.0914,8.72422642 40.6374,11.0004528 41.7814,13.6338113 C42.9234,16.2730566 43.4954,19.0359245 43.4954,21.9273208 C43.4954,26.3689057 42.2184,30.3993962 39.6644,34.0197736 L50.2594,44.4158491 C51.0214,45.1624906 51.4044,46.0680755 51.4044,47.1424151" id="Fill-1" fill="#0071BC" mask="url(#mask-2)"/>
                    </g>
                    <path d="M32.978,18.7981962 C32.978,18.9924604 32.861,19.2024226 32.628,19.4320075 L27.749,24.1012151 L28.904,30.6954038 C28.913,30.756234 28.918,30.845517 28.918,30.9593283 C28.918,31.1437811 28.871,31.2988 28.777,31.4283094 C28.683,31.5548755 28.545,31.6186491 28.367,31.6186491 C28.197,31.6186491 28.017,31.5666491 27.829,31.4606868 L21.792,28.3485358 L15.757,31.4606868 C15.559,31.5666491 15.381,31.6186491 15.219,31.6186491 C15.031,31.6186491 14.89,31.5548755 14.795,31.4283094 C14.702,31.2988 14.654,31.1437811 14.654,30.9593283 C14.654,30.9073283 14.663,30.8180453 14.681,30.6954038 L15.837,24.1012151 L10.944,19.4320075 C10.72,19.1945736 10.608,18.9826491 10.608,18.7981962 C10.608,18.4734415 10.859,18.2713283 11.361,18.1928377 L18.11,17.2283849 L21.134,11.2277811 C21.304,10.8677057 21.524,10.6871774 21.792,10.6871774 C22.062,10.6871774 22.281,10.8677057 22.451,11.2277811 L25.477,17.2283849 L32.225,18.1928377 C32.726,18.2713283 32.978,18.4734415 32.978,18.7981962" id="Fill-4" fill="#FDB81E"/>
                </g>
            </g>
        </g>
    </g>
</symbol><symbol id="learn-a-new-skill" viewBox="0 0 42 52">
    <title>learn-a-new-skill</title>

    <g id="Symbols" stroke="none" stroke-width="1" fill="none" fill-rule="evenodd">
        <g id="What-would-you-like-to-do-next?" transform="translate(-30.000000, -301.000000)">
            <g id="Group-5" transform="translate(30.000000, 301.000000)">
                <g id="learn-a-new-skill">
                    <g id="Group-3" transform="translate(0.000000, 0.007876)">
                        <mask id="mask-2" fill="white">
                            <use xlink:href="#path-1"/>
                        </mask>
                        <g id="Clip-2"/>
                        <path d="M17.9065824,51.2356765 L17.9065824,46.0685588 L11.3920529,46.0685588 L8.53128824,46.0685588 C6.15993529,46.0685588 4.2367,44.1460882 4.2367,41.7739706 L4.2367,38.8963824 L4.2367,33.4172647 L1.21228824,32.6403235 C0.215111765,32.3841471 -0.289594118,31.2715 0.173817647,30.3515588 L4.3147,22.1409118 L4.3147,19.5715 C4.3147,9.18067647 12.7172882,0.756676471 23.0844059,0.756676471 C33.4507588,0.756676471 41.8541118,9.18067647 41.8541118,19.8934412 C41.8541118,22.8115588 41.2607,25.2593824 40.3789941,27.5374412 C37.5564647,34.8289118 37.9028765,37.0763824 37.9028765,42.9653824 L37.9028765,51.2356765" id="Fill-1" fill="#0071BC" mask="url(#mask-2)"/>
                    </g>
                    <path d="M9.93467647,19.4208529 C9.93467647,12.1133235 15.8580882,6.18991176 23.1656176,6.18991176 C30.4723824,6.18991176 36.3965588,12.1133235 36.3965588,19.4208529 C36.3965588,26.7276176 30.4723824,32.6510294 23.1656176,32.6510294 C15.8580882,32.6510294 9.93467647,26.7276176 9.93467647,19.4208529" id="Fill-4" fill="#FFFFFF"/>
                    <path d="M27.6027471,15.3441294 C27.7243353,15.4794824 27.7472765,15.6286 27.6738647,15.7899529 L22.1901588,27.5388941 C22.1014529,27.7078941 21.9592176,27.7920118 21.7634529,27.7920118 C21.7359235,27.7920118 21.6885118,27.7866588 21.6219824,27.7728941 C21.5057471,27.7384824 21.4201,27.6734824 21.3627471,27.5786588 C21.3053941,27.4838353 21.2901,27.3836588 21.3161,27.2758353 L23.3173353,19.0697765 L19.1948059,20.0960118 C19.1680412,20.1021294 19.1267471,20.1067176 19.0732176,20.1067176 C18.9508647,20.1067176 18.8453353,20.0700118 18.7581588,19.9943059 C18.6358059,19.8933647 18.5922176,19.7595412 18.6258647,19.5981882 L20.6668647,11.2216 C20.6936294,11.1267765 20.7479235,11.0487765 20.8297471,10.9876 C20.9108059,10.9271882 21.0056294,10.8958353 21.1142176,10.8958353 L24.4437471,10.8958353 C24.5729824,10.8958353 24.6815706,10.9386588 24.7687471,11.0235412 C24.8574529,11.1076588 24.9018059,11.2070706 24.9018059,11.3225412 C24.9018059,11.3776 24.8834529,11.4380118 24.8498059,11.5053059 L23.1146882,16.2059529 L27.1347471,15.2110706 C27.1898059,15.1980706 27.2295706,15.1919529 27.2563353,15.1919529 C27.3855706,15.1919529 27.5002765,15.2416588 27.6027471,15.3441294" id="Fill-6" fill="#FDB81E"/>
                </g>
            </g>
        </g>
    </g>
</symbol><symbol id="learn-more-about-working-in-the-government" viewBox="0 0 56 52">
    <title>learn-more-about-working-in-the-government</title>

    <g id="Symbols" stroke="none" stroke-width="1" fill="none" fill-rule="evenodd">
        <g id="What-would-you-like-to-do-next?" transform="translate(-30.000000, -398.000000)" fill="#0071BC">
            <g id="Group-5-Copy" transform="translate(30.000000, 398.000000)">
                <path d="M7.46689013,18.5712698 L14.9337803,18.5712698 L14.9337803,40.8574605 L18.6666667,40.8574605 L18.6666667,18.5712698 L26.1335568,18.5712698 L26.1335568,40.8574605 L29.8664432,40.8574605 L29.8664432,18.5712698 L37.3333333,18.5712698 L37.3333333,40.8574605 L41.067337,40.8574605 L41.067337,18.5712698 L48.5342272,18.5712698 L48.5342272,40.8574605 L50.2548632,40.8574605 C50.7978692,40.8574605 51.2704854,41.0419838 51.6704774,41.4088072 C52.0671176,41.774519 52.2682309,42.2102608 52.2682309,42.7149209 L52.2682309,44.5723814 L3.73288641,44.5723814 L3.73288641,42.7149209 C3.73288641,42.2102608 3.93176513,41.774519 4.33063985,41.4088072 C4.72839728,41.0419838 5.20101355,40.8574605 5.74513677,40.8574605 L7.46689013,40.8574605 L7.46689013,18.5712698 Z M53.9888669,46.4287302 C54.5318729,46.4287302 55.0033718,46.6143651 55.4022466,46.980077 C55.800004,47.3469004 56,47.7815306 56,48.2850791 L56,52 L0,52 L0,48.2850791 C0,47.7815306 0.198878714,47.3469004 0.597753437,46.980077 C0.995510864,46.6143651 1.46700984,46.4287302 2.01225035,46.4287302 L53.9888669,46.4287302 Z M28.0005586,1.13686838e-13 L56,11.1425395 L56,14.8563489 L52.2682309,14.8563489 C52.2682309,15.361009 52.0671176,15.7967507 51.6704774,16.1624626 C51.2704854,16.529286 50.7978692,16.7138093 50.2548632,16.7138093 L5.74513677,16.7138093 C5.20101355,16.7138093 4.72839728,16.529286 4.33063985,16.1624626 C3.93176513,15.7967507 3.73288641,15.361009 3.73288641,14.8563489 L0,14.8563489 L0,11.1425395 L28.0005586,1.13686838e-13 Z" id="learn-more-about-working-in-the-government"/>
            </g>
        </g>
    </g>
</symbol><symbol id="profile" viewBox="0 0 52 52">
    <title>profile</title>

    <g id="Phase-1---Desktop" stroke="none" stroke-width="1" fill="none" fill-rule="evenodd">
        <g id="&quot;What&apos;s-Next&quot;-post-onboarding---Selection---Short" transform="translate(-162.000000, -596.000000)">
            <g id="Group-Copy-13" transform="translate(162.000000, 596.000000)">
                <g id="profile">
                    <g id="Group-3" transform="translate(0.000000, 34.993711)">
                        <mask id="mask-2" fill="white">
                            <use xlink:href="#path-1"/>
                        </mask>
                        <g id="Clip-2"/>
                        <path d="M39.8587031,0.0812295597 L37.0133384,0.0812295597 C29.9376591,4.33811635 21.0784453,4.33599057 14.0059547,0.0812295597 L11.1605899,0.0812295597 C4.99687296,0.0812295597 0.000212578616,5.07788994 0.000212578616,11.2416069 L0.000212578616,13.6331164 C0.000212578616,14.9542925 1.07054591,16.0246258 2.39172201,16.0246258 L48.6275711,16.0246258 C49.9487472,16.0246258 51.0190805,14.9542925 51.0190805,13.6331164 L51.0190805,11.2416069 C51.0190805,5.07788994 46.0224201,0.0812295597 39.8587031,0.0812295597" id="Fill-1" fill="#0071BC" mask="url(#mask-2)"/>
                    </g>
                    <g id="Group-6" transform="translate(9.566038, 0.000000)">
                        <mask id="mask-4" fill="white">
                            <use xlink:href="#path-3"/>
                        </mask>
                        <g id="Clip-5"/>
                        <path d="M0,15.9433962 C0,7.13838994 7.13732704,0 15.9433962,0 C24.7484025,0 31.8867925,7.13838994 31.8867925,15.9433962 C31.8867925,24.7494654 24.7484025,31.8867925 15.9433962,31.8867925 C7.13732704,31.8867925 0,24.7494654 0,15.9433962" id="Fill-4" fill="#0071BC" mask="url(#mask-4)"/>
                    </g>
                </g>
            </g>
        </g>
    </g>
</symbol></svg>
