<svg xmlns="http://www.w3.org/2000/svg" xmlns:xlink="http://www.w3.org/1999/xlink"><defs><clipPath id="ba798196-1abf-48c3-9982-6801ac789558"><rect width="37.2" height="37.84" x="14.8" fill="none"/></clipPath><clipPath id="62cca916-c44d-4881-97d1-d1e018d6171a"><rect width="38.51" height="39.17" x="14.19" y="-.97" fill="none"/></clipPath><clipPath id="532dfde3-7da6-4fb0-a782-a6a24a35b941"><path fill="none" d="M16.74,26.34,36.65,6.09,46,15.62,26.1,35.87ZM51.09,10.45l-3,3.05L38.73,4l3-3A3,3,0,0,1,43.94,0a3,3,0,0,1,2.21.93l4.94,5A3.09,3.09,0,0,1,52,8.21,3.06,3.06,0,0,1,51.09,10.45ZM20.64,37.16l-5.84.68.67-5.94Z" clip-rule="evenodd"/></clipPath><clipPath id="68a0895b-b4ee-4065-ad01-424f02415766"><rect width="44.9" height="45.87" y="6.13" fill="none"/></clipPath><clipPath id="7d3ae3e2-cfc8-43e1-b52d-76ed3a95ff83"><rect width="45.61" height="47.42" y="5.21" fill="none"/></clipPath><clipPath id="bd8790e8-049c-4380-a9ae-a2662ed03c7b"><path fill="none" d="M29,9,26,12a3.91,3.91,0,0,1-2.78,1.17H10.59A3.69,3.69,0,0,0,6.93,16.9V41.23A3.69,3.69,0,0,0,10.59,45H34.31A3.69,3.69,0,0,0,38,41.23V30.69A5.4,5.4,0,0,1,39.47,27l2.45-2.53s3-2.83,3,1.37V41.23A10.68,10.68,0,0,1,34.31,52H10.59A10.68,10.68,0,0,1,0,41.23V16.9A10.68,10.68,0,0,1,10.59,6.13H27.51C31.77,6.13,29,9,29,9" clip-rule="evenodd"/></clipPath><clipPath id="ad2ce061-d1cc-4971-84e6-ce199f7dcbc3"><rect width="52" height="52" fill="none"/></clipPath><clipPath id="48276c5e-a5a0-4942-b95c-a213349b4373"><rect width="52.6" height="53.62" y="-1.01" fill="none"/></clipPath><clipPath id="a091b502-fcf6-4241-8890-47b1f13ebada"><path fill="none" d="M52,48a3.89,3.89,0,0,1-1.19,2.82A3.84,3.84,0,0,1,48,52a3.7,3.7,0,0,1-2.81-1.18L34.47,40.13A21.43,21.43,0,0,1,22,44a21.74,21.74,0,0,1-8.55-1.73A21.58,21.58,0,0,1,1.73,30.55a22,22,0,0,1,0-17.1,22.15,22.15,0,0,1,4.69-7,21.85,21.85,0,0,1,7-4.68,21.88,21.88,0,0,1,17.1,0,21.85,21.85,0,0,1,7,4.68,22.32,22.32,0,0,1,4.69,7A21.74,21.74,0,0,1,44,22a21.37,21.37,0,0,1-3.88,12.47L50.84,45.19A3.83,3.83,0,0,1,52,48M31.89,31.89A13.49,13.49,0,0,0,36,22a13.49,13.49,0,0,0-4.11-9.89A13.49,13.49,0,0,0,22,8a13.47,13.47,0,0,0-9.89,4.11A13.49,13.49,0,0,0,8,22a13.49,13.49,0,0,0,4.11,9.89A13.47,13.47,0,0,0,22,36a13.49,13.49,0,0,0,9.89-4.11" clip-rule="evenodd"/></clipPath><clipPath id="ef4ba735-e439-4e94-bb16-34a521f8d75e"><path fill="none" d="M33,17.8a1,1,0,0,1-.35.63L27.75,23.1l1.15,6.6a1.61,1.61,0,0,1,0,.26.82.82,0,0,1-.14.47.5.5,0,0,1-.41.19,1.07,1.07,0,0,1-.54-.16l-6-3.11-6,3.11a1.13,1.13,0,0,1-.54.16.5.5,0,0,1-.42-.19.75.75,0,0,1-.15-.47,1.85,1.85,0,0,1,0-.26l1.16-6.6-4.9-4.67a1,1,0,0,1-.33-.63c0-.33.25-.53.75-.61l6.75-1,3-6q.26-.54.66-.54t.66.54l3,6,6.74,1c.51.08.76.28.76.61" clip-rule="evenodd"/></clipPath><clipPath id="3d289f40-61bc-4b55-9d36-cdc4731b12db"><rect width="52" height="52" y="-1" fill="none"/></clipPath><clipPath id="ff87c763-bd64-4a15-8c25-b2a856950ebe"><rect width="43" height="52" x="3.5" fill="none"/></clipPath><clipPath id="18dad814-1eeb-4f6a-8853-e7644ca5d465"><rect width="44.18" height="53.57" x="2.47" y="-.78" fill="none"/></clipPath><clipPath id="03e50a11-d472-4c2b-827b-990e61ae152c"><path fill="none" d="M21.9,52V46.68H12.26a4.42,4.42,0,0,1-4.41-4.42V33.65l-3.1-.8a1.66,1.66,0,0,1-1.07-2.36L7.93,22V19.39a19.29,19.29,0,1,1,38.57.33A21.17,21.17,0,0,1,45,27.59c-2.9,7.51-2.54,9.83-2.54,15.89V52" clip-rule="evenodd"/></clipPath><clipPath id="0c58180e-395f-40a1-8df0-f32ebbc81997"><rect width="43.15" height="53.57" x="3.5" y="-.78" fill="none"/></clipPath><clipPath id="8d2237b8-0c80-4e86-9cb0-052303a4b083"><path fill="none" d="M13.71,19.22A13.59,13.59,0,1,1,27.3,32.85,13.61,13.61,0,0,1,13.71,19.22" clip-rule="evenodd"/></clipPath><clipPath id="6610b7c0-4107-434e-a07b-f468d59e3e13"><path fill="none" d="M31.86,15a.4.4,0,0,1,.07.46L26.3,27.59a.47.47,0,0,1-.44.26l-.15,0a.48.48,0,0,1-.26-.2.4.4,0,0,1-.05-.32l2.06-8.45-4.24,1.06H23.1a.48.48,0,0,1-.33-.12.38.38,0,0,1-.13-.4l2.09-8.63a.53.53,0,0,1,.17-.25.48.48,0,0,1,.29-.09h3.42a.45.45,0,0,1,.34.13.42.42,0,0,1,.13.31.49.49,0,0,1,0,.19l-1.78,4.84,4.13-1a.32.32,0,0,1,.12,0,.51.51,0,0,1,.36.15" clip-rule="evenodd"/></clipPath><clipPath id="3b26332d-1bf3-4e92-b60f-543621b21e3f"><path fill="none" d="M25.86,0l26,11.14v3.72H48.39a1.88,1.88,0,0,1-1.87,1.85H5.19a1.79,1.79,0,0,1-1.31-.55,1.76,1.76,0,0,1-.56-1.3H-.14V11.14ZM50,46.43a1.9,1.9,0,0,1,1.87,1.86V52h-52V48.29A1.78,1.78,0,0,1,.41,47a1.8,1.8,0,0,1,1.32-.55ZM6.79,18.57h6.93V40.86h3.47V18.57h6.93V40.86h3.47V18.57h6.93V40.86H38V18.57h6.93V40.86h1.6a1.88,1.88,0,0,1,1.87,1.85v1.86H3.32V42.71a1.76,1.76,0,0,1,.56-1.3,1.79,1.79,0,0,1,1.31-.55h1.6Z" clip-rule="evenodd"/></clipPath><clipPath id="119cc278-defb-4479-bb44-5bfec49f1075"><rect width="52" height="16.25" y="35.75" fill="none"/></clipPath><clipPath id="941c0fa6-535b-452d-83dd-fa5352c0e9ac"><rect width="53" height="17.33" y="35.67" fill="none"/></clipPath><clipPath id="beb85508-6cdc-4d0d-b3f4-71574d9ee40e"><path fill="none" d="M40.63,35.75h-2.9a22.75,22.75,0,0,1-23.45,0h-2.9A11.37,11.37,0,0,0,0,47.12v2.44A2.44,2.44,0,0,0,2.44,52H49.56A2.44,2.44,0,0,0,52,49.56V47.12A11.37,11.37,0,0,0,40.63,35.75" clip-rule="evenodd"/></clipPath><clipPath id="ec683002-029c-4518-a32e-6cb66863aa5e"><rect width="32.5" height="32.5" x="9.75" fill="none"/></clipPath><clipPath id="3f85abad-d22e-4192-b607-797cda787f6b"><rect width="33.63" height="32.62" x="9.17" fill="none"/></clipPath><clipPath id="b9fdd40f-d39e-42e1-b6fb-0ee83e2463bb"><path fill="none" d="M9.75,16.25A16.25,16.25,0,1,1,26,32.5,16.25,16.25,0,0,1,9.75,16.25" clip-rule="evenodd"/></clipPath></defs><symbol id="apply" viewBox="0 0 52 52"><title>apply</title><g clip-path="url(#ba798196-1abf-48c3-9982-6801ac789558)"><g style="isolation:isolate"><g clip-path="url(#62cca916-c44d-4881-97d1-d1e018d6171a)"><g clip-path="url(#532dfde3-7da6-4fb0-a782-a6a24a35b941)"><g clip-path="url(#62cca916-c44d-4881-97d1-d1e018d6171a)"><rect width="47.34" height="48.15" x="9.73" y="-5.15" fill="#0071bc"/></g></g></g></g></g><g clip-path="url(#68a0895b-b4ee-4065-ad01-424f02415766)"><g style="isolation:isolate"><g clip-path="url(#7d3ae3e2-cfc8-43e1-b52d-76ed3a95ff83)"><g clip-path="url(#bd8790e8-049c-4380-a9ae-a2662ed03c7b)"><g clip-path="url(#7d3ae3e2-cfc8-43e1-b52d-76ed3a95ff83)"><rect width="55.04" height="56.18" x="-5.07" y=".97" fill="#fdb81e"/></g></g></g></g></g></symbol><symbol id="find-a-job" viewBox="0 0 52 52"><title>find-a-job</title><g clip-path="url(#ad2ce061-d1cc-4971-84e6-ce199f7dcbc3)"><g clip-path="url(#48276c5e-a5a0-4942-b95c-a213349b4373)"><g style="isolation:isolate"><g clip-path="url(#48276c5e-a5a0-4942-b95c-a213349b4373)"><g clip-path="url(#a091b502-fcf6-4241-8890-47b1f13ebada)"><g clip-path="url(#48276c5e-a5a0-4942-b95c-a213349b4373)"><rect width="62.12" height="62.31" x="-5.06" y="-5.16" fill="#0071bc"/></g></g></g></g></g></g><g clip-path="url(#ef4ba735-e439-4e94-bb16-34a521f8d75e)"><g clip-path="url(#3d289f40-61bc-4b55-9d36-cdc4731b12db)"><rect width="32.37" height="30.93" x="5.61" y="4.69" fill="#fdb81e"/></g></g></symbol><symbol id="learn-a-skill" viewBox="0 0 52 52"><title>learn-a-skill</title><g clip-path="url(#ff87c763-bd64-4a15-8c25-b2a856950ebe)"><g style="isolation:isolate"><g clip-path="url(#18dad814-1eeb-4f6a-8853-e7644ca5d465)"><g clip-path="url(#03e50a11-d472-4c2b-827b-990e61ae152c)"><g clip-path="url(#0c58180e-395f-40a1-8df0-f32ebbc81997)"><rect width="53.27" height="62.3" x="-1.64" y="-5.15" fill="#0071bc"/></g></g></g></g></g><g clip-path="url(#8d2237b8-0c80-4e86-9cb0-052303a4b083)"><rect width="37.46" height="37.56" x="8.57" y=".44" fill="#fff"/></g><g clip-path="url(#6610b7c0-4107-434e-a07b-f468d59e3e13)"><rect width="19.62" height="27.71" x="17.49" y="5.29" fill="#fdb81e"/></g></symbol><symbol id="learn-more" viewBox="0 0 52 52"><title>learn-more</title><g clip-path="url(#3b26332d-1bf3-4e92-b60f-543621b21e3f)"><rect width="61.33" height="62" x="-4.81" y="-5" fill="#0071bc"/></g></symbol><symbol id="profile" viewBox="0 0 52 52"><title>profile</title><g clip-path="url(#119cc278-defb-4479-bb44-5bfec49f1075)"><g style="isolation:isolate"><g clip-path="url(#941c0fa6-535b-452d-83dd-fa5352c0e9ac)"><g clip-path="url(#beb85508-6cdc-4d0d-b3f4-71574d9ee40e)"><g clip-path="url(#941c0fa6-535b-452d-83dd-fa5352c0e9ac)"><rect width="62.19" height="26.44" x="-5.1" y="30.65" fill="#0071bc"/></g></g></g></g></g><g clip-path="url(#ec683002-029c-4518-a32e-6cb66863aa5e)"><g style="isolation:isolate"><g clip-path="url(#3f85abad-d22e-4192-b607-797cda787f6b)"><g clip-path="url(#b9fdd40f-d39e-42e1-b6fb-0ee83e2463bb)"><g clip-path="url(#3f85abad-d22e-4192-b607-797cda787f6b)"><rect width="42.69" height="42.69" x="4.65" y="-5.1" fill="#0071bc"/></g></g></g></g></g></symbol></svg>