<svg xmlns="http://www.w3.org/2000/svg" xmlns:xlink="http://www.w3.org/1999/xlink" width="115" height="114" version="1.1" viewBox="0 0 115 114"><title>Signed out</title><g id="signed-ou" fill="none" fill-rule="evenodd" stroke="none" stroke-width="1"><g id="signed-out-group"><g id="signed-out-g"><path id="signed-out-shape" fill="#FFF" fill-rule="nonzero" d="M113.9,72.3 C113.9,72.6 113.8,72.8 113.8,72.9 L113.8,73 C113.8,73.2 113.7,73.4 113.7,73.6 C113.7,73.6 113.7,73.6 113.7,73.7 C113.6,73.9 113.6,74.1 113.5,74.3 C112.7,76.4 111.3,78.2 109.4,79.3 C109.3,79.4 109.1,79.5 109,79.5 C107.5,80.3 105.8,80.7 103.9,80.6 C101.3,80.4 96.2,77.9 95.8,77.7 C95.8,77.7 95.8,77.7 95.7,77.7 C95.2,77.4 94.7,77.3 94.2,77.2 C93.9,77.2 93.7,77.1 93.4,77.1 C93.3,77.1 93.1,77.1 93,77.1 C92.8,77.1 92.5,77.2 92.3,77.2 C92.1,77.3 91.9,77.4 91.6,77.5 C91.4,77.6 91.2,77.7 91,77.9 C90.8,78 90.7,78.2 90.5,78.4 C90.5,78.4 90.5,78.4 90.5,78.5 C90.4,78.6 90.4,78.7 90.3,78.8 C90.2,78.9 90.2,79 90.1,79.1 L90.1,79.2 C90,79.3 90,79.4 89.9,79.5 C89.9,79.6 89.8,79.7 89.8,79.8 L89.8,79.9 C89.8,80 89.7,80.2 89.7,80.3 C89.7,80.4 89.7,80.6 89.6,80.7 L89.6,80.8 C89.6,80.9 89.6,81.1 89.6,81.2 L88.1,107.2 L87.7,113.8 L82.4,113.5 C82,113.4 81.5,113.3 81,113.3 L57.6,111.9 L56.1,111.8 L55,111.7 C51.3,111.5 49.7,108.6 51.4,105.4 C51.4,105.4 54.1,100.1 54.3,97.3 C54.3,97.1 54.3,97 54.3,96.8 C54.3,96.7 54.3,96.7 54.3,96.6 C54.3,96.5 54.3,96.4 54.3,96.3 C54.3,96.2 54.3,96.2 54.3,96.1 C54.3,96 54.3,95.9 54.3,95.8 C54.3,95.7 54.3,95.7 54.3,95.6 C54.3,95.5 54.3,95.4 54.3,95.3 C54.3,95.2 54.3,95.2 54.3,95.1 C54.3,95 54.3,94.9 54.2,94.8 C54.2,94.7 54.2,94.7 54.2,94.6 C54.2,94.5 54.2,94.4 54.1,94.3 C54.1,94.2 54.1,94.2 54.1,94.1 C54.1,94 54,93.9 54,93.8 C54,93.7 54,93.7 53.9,93.6 C53.9,93.5 53.8,93.4 53.8,93.3 C53.8,93.2 53.8,93.2 53.7,93.1 C53.7,93 53.6,92.9 53.6,92.8 C53.6,92.8 53.6,92.7 53.5,92.7 C53.5,92.6 53.4,92.5 53.4,92.4 C53.4,92.4 53.4,92.3 53.3,92.3 C53.2,92.2 53.2,92.1 53.1,92 C53.1,92 53.1,91.9 53,91.9 C52.9,91.8 52.9,91.7 52.8,91.5 C52.8,91.5 52.8,91.5 52.8,91.4 C52.4,90.9 52,90.3 51.6,89.9 C50,88.3 47.8,87.2 45.3,87.1 C41.1,86.9 37.4,89.3 35.9,93 C35.7,93.5 35.6,93.9 35.4,94.4 L35.4,94.5 C35.4,94.6 35.4,94.7 35.3,94.8 C35.3,94.9 35.3,94.9 35.3,95 C35.3,95.1 35.3,95.1 35.3,95.2 C35.3,95.3 35.3,95.4 35.3,95.5 C35.3,95.6 35.3,95.6 35.3,95.7 C35.3,95.8 35.3,96 35.3,96.2 C35.1,99 37.2,104.6 37.2,104.6 C38.5,108 36.5,110.7 32.9,110.5 L32,110.4 L30.6,110.3 L6.9,108.9 C6.4,108.9 6,108.9 5.5,109 L0.2,108.7 L0.6,102.1 L2.1,76 C2.1,75.9 2.1,75.7 2.1,75.6 L2.1,75.5 C2.1,75.4 2.1,75.3 2.2,75.2 C2.2,75.2 2.2,75.2 2.2,75.1 C2.5,73.8 3.1,72.9 3.9,72.3 C3.9,72.3 3.9,72.3 4,72.3 C4.1,72.3 4.1,72.2 4.2,72.2 L4.3,72.2 C4.4,72.2 4.4,72.1 4.5,72.1 L4.6,72.1 C4.7,72.1 4.7,72.1 4.8,72 L4.9,72 C5,72 5,72 5.1,71.9 L5.2,71.9 C5.3,71.9 5.3,71.9 5.4,71.9 L5.5,71.9 C5.6,71.9 5.6,71.9 5.7,71.9 C5.7,71.9 5.7,71.9 5.8,71.9 C6,71.9 6.2,71.9 6.4,71.9 C6.4,71.9 6.4,71.9 6.5,71.9 C6.6,71.9 6.6,71.9 6.7,71.9 L6.8,71.9 C6.9,71.9 6.9,71.9 7,71.9 L7.1,71.9 C7.2,71.9 7.2,71.9 7.3,71.9 L7.4,71.9 C7.5,71.9 7.5,71.9 7.6,72 L7.7,72 C7.8,72 7.8,72 7.9,72.1 L8,72.1 C8.1,72.1 8.1,72.2 8.2,72.2 L8.3,72.2 C8.4,72.2 8.5,72.3 8.6,72.4 C8.6,72.4 13.9,75.1 16.7,75.3 C16.9,75.3 17.1,75.3 17.3,75.3 C17.4,75.3 17.4,75.3 17.5,75.3 C17.6,75.3 17.8,75.3 17.9,75.3 C18,75.3 18,75.3 18.1,75.3 C18.2,75.3 18.4,75.3 18.5,75.3 L18.6,75.3 C18.8,75.3 18.9,75.3 19.1,75.2 C19.1,75.2 19.1,75.2 19.2,75.2 C19.8,75.1 20.3,74.9 20.8,74.7 C21,74.6 21.1,74.6 21.3,74.5 C24.5,73.1 26.8,70 27,66.3 C27.2,63.2 25.8,60.3 23.6,58.4 C23.4,58.3 23.2,58.1 23.1,58 C23.1,58 23,58 23,57.9 C22.8,57.8 22.6,57.6 22.4,57.5 C22.4,57.5 22.4,57.5 22.3,57.5 C22.1,57.4 21.9,57.3 21.7,57.2 C21.7,57.2 21.7,57.2 21.6,57.2 C21.4,57.1 21.2,57 21,56.9 C21,56.9 20.9,56.9 20.9,56.8 C20.7,56.7 20.5,56.6 20.3,56.6 C20.3,56.6 20.3,56.6 20.2,56.6 C20,56.5 19.8,56.5 19.6,56.4 L19.5,56.4 C19.3,56.4 19.1,56.3 18.8,56.3 L18.7,56.3 C18.5,56.3 18.2,56.2 18,56.2 C15.2,56 9.6,58.1 9.6,58.1 C6.2,59.4 3.5,57.4 3.7,53.8 L3.7,53 L3.8,51.2 L5.2,27.7 L5.5,21.8 L5.5,21.2 L5.5,21.1 L12.1,21.5 L36.3,22.9 L38.1,23 C38.2,23 38.3,23 38.4,23 C40.8,23 42.4,21.8 42.7,20 C42.7,19.9 42.7,19.8 42.7,19.8 C42.7,19.7 42.7,19.7 42.7,19.6 C42.7,19.6 42.7,19.6 42.7,19.5 C42.7,19.4 42.7,19.4 42.7,19.3 L42.7,19.2 C42.7,19.1 42.7,19.1 42.7,19 L42.7,18.9 C42.7,18.8 42.7,18.8 42.7,18.7 L42.7,18.6 C42.7,18.5 42.7,18.5 42.7,18.4 C42.7,18.3 42.7,18.3 42.7,18.2 L42.7,18.1 C42.7,18 42.7,18 42.7,17.9 L42.7,17.8 C42.7,17.7 42.7,17.7 42.6,17.6 L42.6,17.5 C42.6,17.4 42.5,17.3 42.5,17.2 L42.5,17.1 C42.1,16.1 40.5,11.4 40.7,8.9 C40.8,7.4 41.2,5.9 42,4.7 C42.2,4.3 42.5,3.9 42.8,3.6 C43.1,3.3 43.4,2.9 43.7,2.6 C43.7,2.6 43.7,2.6 43.8,2.5 C44,2.4 44.1,2.2 44.3,2.1 C44.5,2 44.6,1.8 44.8,1.7 C44.8,1.7 44.9,1.7 44.9,1.6 C45.1,1.5 45.2,1.4 45.4,1.3 C45.6,1.2 45.8,1.1 46,1 C46,1 46.1,1 46.1,0.9 C46.3,0.8 46.5,0.7 46.7,0.6 C46.9,0.5 47.1,0.4 47.3,0.4 L47.4,0.4 C47.6,0.3 47.8,0.3 48,0.2 C48.2,0.1 48.4,0.1 48.6,0.1 C48.7,0.1 48.7,0.1 48.8,0.1 C49,0.1 49.2,-1.42108547e-14 49.4,-1.42108547e-14 C49.6,-1.42108547e-14 49.8,-1.42108547e-14 50,-1.42108547e-14 C50.1,-1.42108547e-14 50.1,-1.42108547e-14 50.2,-1.42108547e-14 C50.4,-1.42108547e-14 50.6,-1.42108547e-14 50.9,-1.42108547e-14 C56.2,0.3 60.2,4.9 59.9,10.2 C59.7,13 57,18.3 57,18.3 C55.3,21.6 57,24.4 60.6,24.6 L86.6,26.1 L93.2,26.5 L92.8,33.1 L91.3,59.1 C91.1,62.7 93.7,64.7 97.1,63.4 C97.1,63.4 97.1,63.4 97.2,63.4 C97.6,63.2 102.9,61.3 105.5,61.5 C107.3,61.6 109,62.2 110.4,63.2 C110.5,63.3 110.7,63.4 110.8,63.5 C113.3,65.4 114.8,68.4 114.6,71.7 C114,71.8 114,72 113.9,72.3 Z"/><rect id="signed-out-rectangle-path" width="54" height="47" x="29.4" y="37.2"/></g><g id="sign-out-alt" fill="#046B99" fill-rule="nonzero" transform="translate(37.000000, 42.000000)"><path id="signed-out-alt-path" d="M39.9296212,16.7930384 L26.4322844,30.2903751 C25.2271651,31.4954945 23.1382915,30.6519109 23.1382915,28.9245732 L23.1382915,21.2118093 L12.2118761,21.2118093 C11.1433369,21.2118093 10.2836851,20.3521575 10.2836851,19.2836184 L10.2836851,11.5708545 C10.2836851,10.5023154 11.1433369,9.64266356 12.2118761,9.64266356 L23.1382915,9.64266356 L23.1382915,1.92989971 C23.1382915,0.210596106 25.219131,-0.641021569 26.4322844,0.564097782 L39.9296212,14.0614345 C40.6767952,14.8166426 40.6767952,16.0378303 39.9296212,16.7930384 Z M15.4255277,29.8886687 L15.4255277,26.6750171 C15.4255277,26.1447646 14.9916847,25.7109216 14.4614322,25.7109216 L7.71276385,25.7109216 C6.29072301,25.7109216 5.14184257,24.5620411 5.14184257,23.1400003 L5.14184257,7.7144726 C5.14184257,6.29243177 6.29072301,5.14355132 7.71276385,5.14355132 L14.4614322,5.14355132 C14.9916847,5.14355132 15.4255277,4.70970835 15.4255277,4.17945584 L15.4255277,0.965804233 C15.4255277,0.435551718 14.9916847,0.00170875152 14.4614322,0.00170875152 L7.71276385,0.00170875152 C3.45467547,0.00170875152 0,3.45638423 0,7.7144726 L0,23.1400003 C0,27.3980887 3.45467547,30.8527642 7.71276385,30.8527642 L14.4614322,30.8527642 C14.9916847,30.8527642 15.4255277,30.4189212 15.4255277,29.8886687 Z"/></g></g></g></svg>